<?xml version="1.0" encoding="UTF-8" standalone="no"?>
<!-- Created with Inkscape (http://www.inkscape.org/) -->

<svg
   version="1.1"
   id="svg1"
   width="1254"
   height="1254"
   viewBox="0 0 1254 1254"
   sodipodi:docname="notra.svg"
   inkscape:version="1.4.4 (dcaf3e7d9e, 2026-05-05)"
   xmlns:inkscape="http://www.inkscape.org/namespaces/inkscape"
   xmlns:sodipodi="http://sodipodi.sourceforge.net/DTD/sodipodi-0.dtd"
   xmlns="http://www.w3.org/2000/svg"
   xmlns:svg="http://www.w3.org/2000/svg">
  <defs
     id="defs1" />
  <sodipodi:namedview
     id="namedview1"
     pagecolor="#ffffff"
     bordercolor="#000000"
     borderopacity="0.25"
     inkscape:showpageshadow="2"
     inkscape:pageopacity="0.0"
     inkscape:pagecheckerboard="0"
     inkscape:deskcolor="#d1d1d1"
     showgrid="false"
     inkscape:zoom="0.63157895"
     inkscape:cx="627"
     inkscape:cy="627"
     inkscape:window-width="1920"
     inkscape:window-height="1008"
     inkscape:window-x="0"
     inkscape:window-y="0"
     inkscape:window-maximized="1"
     inkscape:current-layer="g1" />
  <g
     inkscape:groupmode="layer"
     inkscape:label="Image"
     id="g1">
    <path
       style="fill:#000000"
       d="m 644.33339,1071.2335 c -9.507,-4.9245 -18.89463,-13.8272 -23.30323,-22.0996 -2.5769,-4.8352 -3.3713,-8.1858 -5.1493,-21.7173 -7.3494,-55.9334 -14.0066,-95.2261 -21.0088,-123.99994 -9.9528,-40.89892 -22.7741,-69.23472 -39.4923,-87.28061 -3.2002,-3.45433 -5.6448,-6.41259 -5.4325,-6.57389 0.2123,-0.1613 3.5976,-2.39821 7.5228,-4.9709 11.8789,-7.78574 23.0848,-21.17159 31.1206,-37.1746 7.4539,-14.84433 13.2297,-37.80619 13.2387,-52.63108 v -6.63108 l -9.75,-0.67766 c -37.2474,-2.58884 -75.8703,-10.41201 -113.9355,-23.07792 -43.1439,-14.35579 -84.81957,-33.94387 -161.31453,-75.81974 -97.07256,-53.14074 -159.10565,-65.89023 -226.537931,-46.55974 -5.85307,1.67788 -10.775039,2.90365 -10.937709,2.72395 -0.16267,-0.1797 0.78982,-4.60173 2.11665,-9.82673 6.298689,-24.80387 4.324029,-51.45561 -5.35354,-72.2561 -1.98472,-4.26586 -3.42383,-7.93863 -3.19802,-8.16172 0.22581,-0.22308 5.13556,0.21456 10.91056,0.97254 48.03126,6.30424 95.71637,-1.16583 157.99999,-24.75132 23.4417,-8.87688 57.75691,-24.42869 105.5,-47.81306 77.71163,-38.06284 120.15493,-54.85688 170.50003,-67.46376 40.5533,-10.15493 74.172,-14.53151 111.5,-14.51542 46.68803,0.0201 83.92043,6.00134 134.00003,21.52651 29.6031,9.17726 63.5792,23.74226 123.5,52.94243 47.7184,23.25379 64.7989,31.0845 89.3409,40.95895 68.47841,27.5523 124.68401,35.1798 188.07291,25.52279 7.1026,-1.08205 13.1668,-1.71444 13.476,-1.4053 0.8857,0.88573 -4.7448,10.97679 -11.3506,20.34279 -8.0119,11.35962 -23.3551,26.62569 -31.498,31.33973 -3.7821,2.18947 -14.3501,6.28354 -25.5,9.87873 -58.0295,18.71109 -84.8382,31.13801 -174.54121,80.90693 -48.7329,27.03793 -64.7801,35.55524 -91.5,48.5652 -35.5845,17.32612 -69.9766,30.97476 -98.25,38.99098 -12.1833,3.45426 -11.9663,2.89177 -6.64,17.21277 11.6765,31.39472 45.9006,89.0415 78.786,132.70633 35.0504,46.53958 77.8367,82.46494 115.604,97.06624 23.5649,9.1106 33.3279,10.9543 57.5,10.8584 17.22391,-0.068 19.91551,-0.321 28.79401,-2.7035 24.6804,-6.623 44.4618,-19.3052 57.873,-37.1034 21.1924,-28.12448 25.4828,-63.49757 11.1558,-91.97672 -5.0964,-10.13066 -16.3005,-21.15366 -26.3228,-25.89728 -21.0489,-9.96253 -44.2395,-7.08807 -59.5369,7.37958 -9.86977,9.33442 -13.93071,24.2699 -9.43827,34.71274 l 2.2723,5.28224 2.9024,-6.04709 c 4.55987,-9.50078 12.05387,-14.07121 23.07197,-14.07121 18.4088,0 31.1979,17.90882 26.3376,36.88072 -2.7929,10.9018 -9.9385,19.03875 -21.4497,24.42545 -5.3763,2.51589 -8.0388,3.08866 -16.1795,3.48066 -6.0373,0.29072 -11.78617,-0.0126 -15.11207,-0.79729 -14.89534,-3.51443 -29.00644,-14.7565 -35.38704,-28.19225 -13.7555,-28.9653 -4.1852,-63.71887 23.7016,-86.0695 30.93351,-24.79245 78.63961,-25.91217 112.93941,-2.65082 49.0447,33.261 58.0627,107.52311 20.0272,164.92307 -7.7396,11.6799 -25.0907,28.8209 -37.6942,37.2376 -51.7823,34.5807 -120.13411,36.3677 -183.95481,4.8093 -67.6701,-33.4619 -119.5086,-92.40907 -209.837,-238.6123 -5.7989,-9.38595 -11.4194,-18.14721 -12.4901,-19.46946 l -1.9468,-2.40409 -2.1251,6.96946 c -4.7265,15.50029 -8.8529,41.04319 -11.0611,68.46945 -2.808,34.87574 -5.0196,137.59374 -5.0327,233.74994 -0.01,41.9545 -0.2724,53.2402 -1.2572,53.2035 -0.6875,-0.026 -3.5,-1.2121 -6.25,-2.6366 z m 13,-416.75374 c 38.0621,-6.9093 67.0681,-21.10808 90,-44.05607 30.0311,-30.05229 43.2442,-69.45785 37.0554,-110.51118 -6.3187,-41.91538 -34.6061,-78.98771 -76.1521,-99.80185 -18.4589,-9.24776 -40.8864,-15.7121 -63.4033,-18.27496 -16.01003,-1.82225 -43.47183,-0.64012 -58.65943,2.52506 -64.7722,13.4989 -109.1382,53.38994 -122.0039,109.69789 -1.2332,5.39714 -1.6878,12.15492 -1.706,25.35801 -0.021,15.5446 0.2941,19.29591 2.3128,27.5 8.3555,33.95778 27.606,61.19757 57.4124,81.23932 10.4112,7.00045 27.781,15.5663 38.8108,19.13937 10.0185,3.24546 28.2715,7.30248 38.3333,8.52021 11.8709,1.43667 47.21063,0.62276 58.00003,-1.3358 z m -71.15883,-22.59622 c -16.2997,-2.92001 -28.3716,-12.58805 -31.3808,-25.13199 -5.444,-22.69277 12.2647,-47.24783 41.0228,-56.88266 8.1591,-2.73355 10.8434,-3.16218 19.9714,-3.18901 9.8861,-0.0291 15.64,1.07412 25.66293,4.92024 1.1692,0.44868 1.3825,-11.21097 1.3825,-75.57647 v -76.10699 l 2.25,0.0436 c 1.2375,0.024 4.95,0.60491 8.25,1.2909 l 6,1.24727 0.263,90.9591 c 0.256,88.52469 0.2095,91.13627 -1.7393,97.57913 -5.2347,17.30651 -21.7803,32.47593 -42.25923,38.74427 -7.8662,2.40776 -22.0586,3.42193 -29.4233,2.10257 z m -84.3316,10.23067 c -8.6517,-5.8975 -23.0346,-18.53755 -29.5643,-25.98194 -22.1463,-25.24839 -34.0538,-52.02011 -37.4571,-84.21561 -4.4929,-42.50302 12.0233,-88.00435 43.9629,-121.11592 5.5091,-5.71124 10.0239,-10.46513 10.0327,-10.56419 0.01,-0.0991 -5.7213,1.75795 -12.7338,4.1267 -29.5359,9.97691 -52.9621,20.42608 -128.75003,57.42829 -48.02034,23.44516 -76.1656,35.61144 -108,46.68489 -9.9,3.44367 -17.325,6.49741 -16.5,6.78608 0.825,0.28867 5.55,1.71483 10.5,3.16924 26.96503,7.92286 62.49065,24.7976 118,56.05022 60.6508,34.14734 95.31533,50.72228 133.00003,63.5944 17.6699,6.03558 21.8568,7.00112 17.5096,4.03784 z m 270.26933,-12.09048 c 44.0613,-17.63602 77.4698,-34.51121 173.2211,-87.49669 11.55,-6.39138 29.8875,-16.23027 40.75,-21.86419 10.86254,-5.63393 19.75001,-10.49304 19.75001,-10.79802 0,-0.30497 -3.2625,-1.59575 -7.24997,-2.86838 -25.94084,-8.27914 -61.72854,-24.14569 -128.75004,-57.08149 -61.8581,-30.39836 -77.5931,-37.57057 -103.409,-47.13506 l -7.9091,-2.93019 9.9091,10.32334 c 12.5614,13.08671 21.7461,26.00518 29.3231,41.24361 11.6063,23.34201 15.4864,40.04068 15.4519,66.5 -0.025,18.98213 -1.7202,30.0259 -7.1371,46.49048 -3.6071,10.96396 -12.5502,28.22904 -20.0833,38.77164 -6.2774,8.78531 -21.1738,24.70747 -28.6235,30.59446 -2.1878,1.72888 -3.6373,3.14342 -3.2211,3.14342 0.4162,0 8.5062,-3.10182 17.9779,-6.89293 z M 143.83334,363.27791 c -27.28343,-2.58467 -54.603431,-12.23019 -77,-27.18541 l -8.500001,-5.67584 25.500001,-0.635 c 57.64604,-1.43551 98.86893,-10.08418 155.49999,-32.6243 23.5981,-9.39245 37.68156,-16.00702 88.5,-41.56582 67.33529,-33.86582 92.23303,-44.9018 128.00003,-56.73623 143.482,-47.47478 282.62743,-39.96188 433.11963,23.38547 15.4478,6.5025 38.7242,17.1448 75.8804,34.69357 99.82691,47.148 144.45981,59.69955 204.74991,57.57916 10.5875,-0.37236 19.25,-0.4457 19.25,-0.16298 0,0.28273 -3.2625,2.81722 -7.25,5.63222 -13.8306,9.76383 -30.2641,16.7201 -49.8695,21.10973 -9.3335,2.08977 -12.8515,2.32264 -34.8805,2.30889 -21.1967,-0.0132 -26.2527,-0.3286 -37.4999,-2.33897 -36.9787,-6.60972 -76.06311,-18.79226 -133.50001,-41.61181 -100.0309,-39.74199 -149.2198,-53.96439 -216.1805,-62.50602 -67.365,-8.59321 -142.25953,-1.53176 -221.55893,20.88975 -43.4683,12.29043 -67.3489,21.43519 -162.76063,62.32707 -53.99214,23.14012 -88.3986,34.51116 -122.04308,40.33417 -11.93463,2.06559 -18.99825,2.65131 -34.95691,2.89866 -11,0.17049 -22.025,0.11815 -24.5,-0.11631 z"
       id="path1" />
  </g>
</svg>
