<?xml version="1.0" encoding="UTF-8"?>
<!DOCTYPE score-partwise PUBLIC "-//Recordare//DTD MusicXML 4.0 Partwise//EN" "http://www.musicxml.org/dtds/partwise.dtd">
<score-partwise version="4.0">
  <work>
    <work-title>Untitled score</work-title>
    </work>
  <identification>
    <creator type="composer">Composer / arranger</creator>
    <encoding>
      <software>MuseScore Studio 4.6.3</software>
      <encoding-date>2026-05-30</encoding-date>
      <supports element="accidental" type="yes"/>
      <supports element="beam" type="yes"/>
      <supports element="print" attribute="new-page" type="yes" value="yes"/>
      <supports element="print" attribute="new-system" type="yes" value="yes"/>
      <supports element="stem" type="yes"/>
      </encoding>
    <miscellaneous>
      <miscellaneous-field name="creationDate">2026-01-03</miscellaneous-field>
      <miscellaneous-field name="platform">Microsoft Windows</miscellaneous-field>
      <miscellaneous-field name="subtitle">Subtitle</miscellaneous-field>
      </miscellaneous>
    </identification>
  <defaults>
    <scaling>
      <millimeters>6.99912</millimeters>
      <tenths>40</tenths>
      </scaling>
    <page-layout>
      <page-height>1596.77</page-height>
      <page-width>1233.87</page-width>
      <page-margins type="even">
        <left-margin>85.725</left-margin>
        <right-margin>85.725</right-margin>
        <top-margin>85.725</top-margin>
        <bottom-margin>85.725</bottom-margin>
        </page-margins>
      <page-margins type="odd">
        <left-margin>85.725</left-margin>
        <right-margin>85.725</right-margin>
        <top-margin>85.725</top-margin>
        <bottom-margin>85.725</bottom-margin>
        </page-margins>
      </page-layout>
    <appearance>
      <line-width type="light barline">1.8</line-width>
      <line-width type="heavy barline">5.5</line-width>
      <line-width type="beam">5</line-width>
      <line-width type="bracket">4.5</line-width>
      <line-width type="dashes">1</line-width>
      <line-width type="enclosure">1</line-width>
      <line-width type="ending">1.1</line-width>
      <line-width type="extend">1</line-width>
      <line-width type="leger">1.6</line-width>
      <line-width type="pedal">1.1</line-width>
      <line-width type="octave shift">1.1</line-width>
      <line-width type="slur middle">2.1</line-width>
      <line-width type="slur tip">0.5</line-width>
      <line-width type="staff">1.1</line-width>
      <line-width type="stem">1</line-width>
      <line-width type="tie middle">2.1</line-width>
      <line-width type="tie tip">0.5</line-width>
      <line-width type="tuplet bracket">1</line-width>
      <line-width type="wedge">1.2</line-width>
      <note-size type="cue">70</note-size>
      <note-size type="grace">70</note-size>
      <note-size type="grace-cue">49</note-size>
      </appearance>
    <music-font font-family="Leland"/>
    <word-font font-family="Edwin" font-size="10"/>
    <lyric-font font-family="Edwin" font-size="10"/>
    </defaults>
  <credit page="1">
    <credit-type>title</credit-type>
    <credit-words default-x="616.9347" default-y="1511.047129" justify="center" valign="top" font-size="22">Fanfare</credit-words>
    </credit>
  <part-list>
    <score-part id="P1">
      <part-name>Violoncello</part-name>
      <part-abbreviation>Vc.</part-abbreviation>
      <score-instrument id="P1-I1">
        <instrument-name>Violoncello</instrument-name>
        <instrument-sound>strings.cello</instrument-sound>
        </score-instrument>
      <midi-device id="P1-I1" port="1"></midi-device>
      <midi-instrument id="P1-I1">
        <midi-channel>1</midi-channel>
        <midi-program>43</midi-program>
        <volume>78.7402</volume>
        <pan>0</pan>
        </midi-instrument>
      </score-part>
    </part-list>
  <part id="P1">
    <measure number="1" width="314.88">
      <print>
        <system-layout>
          <system-margins>
            <left-margin>50</left-margin>
            <right-margin>0</right-margin>
            </system-margins>
          <top-system-distance>170</top-system-distance>
          </system-layout>
        </print>
      <attributes>
        <divisions>2</divisions>
        <key>
          <fifths>1</fifths>
          </key>
        <time symbol="common">
          <beats>4</beats>
          <beat-type>4</beat-type>
          </time>
        <clef>
          <sign>F</sign>
          <line>4</line>
          </clef>
        </attributes>
      <direction placement="above" system="only-top">
        <direction-type>
          <metronome parentheses="no" default-x="-38.52" default-y="16.21" relative-y="20">
            <beat-unit>quarter</beat-unit>
            <per-minute>120</per-minute>
            </metronome>
          </direction-type>
        <sound tempo="120"/>
        </direction>
      <direction placement="below">
        <direction-type>
          <dynamics default-x="2.31" default-y="-47.32" relative-y="-20">
            <f/>
            </dynamics>
          </direction-type>
        <sound dynamics="106.67"/>
        </direction>
      <note default-x="99.83" default-y="-40">
        <pitch>
          <step>G</step>
          <octave>2</octave>
          </pitch>
        <duration>2</duration>
        <voice>1</voice>
        <type>quarter</type>
        <stem>up</stem>
        <notations>
          <technical>
            <down-bow default-x="0.2" default-y="4.55"/>
            <fingering default-x="6.5" default-y="64.96">0</fingering>
            </technical>
          </notations>
        </note>
      <note default-x="149.8" default-y="-5">
        <pitch>
          <step>G</step>
          <octave>3</octave>
          </pitch>
        <duration>1</duration>
        <voice>1</voice>
        <type>eighth</type>
        <stem>down</stem>
        <beam number="1">begin</beam>
        <notations>
          <technical>
            <fingering default-x="6.5" default-y="15.84">2</fingering>
            </technical>
          </notations>
        </note>
      <note default-x="183.11" default-y="-5">
        <pitch>
          <step>G</step>
          <octave>3</octave>
          </pitch>
        <duration>1</duration>
        <voice>1</voice>
        <type>eighth</type>
        <stem>down</stem>
        <beam number="1">end</beam>
        <notations>
          <technical>
            <fingering default-x="6.5" default-y="15.84">2</fingering>
            </technical>
          </notations>
        </note>
      <note default-x="216.42" default-y="-5">
        <pitch>
          <step>G</step>
          <octave>3</octave>
          </pitch>
        <duration>3</duration>
        <voice>1</voice>
        <type>quarter</type>
        <dot default-x="234.42" default-y="-5"/>
        <stem>down</stem>
        <notations>
          <slur type="start" bezier-x="14.822499" bezier-y="14.474375" number="1"/>
          <technical>
            <up-bow default-x="1.26" default-y="12.59"/>
            <fingering default-x="6.5" default-y="31.74">2</fingering>
            </technical>
          </notations>
        </note>
      <note default-x="279.77" default-y="-5">
        <pitch>
          <step>G</step>
          <octave>3</octave>
          </pitch>
        <duration>1</duration>
        <voice>1</voice>
        <type>eighth</type>
        <stem>down</stem>
        <notations>
          <slur type="stop" number="1" bezier-x="-17.388491" bezier-y="11.262964"/>
          <articulations>
            <tenuto default-x="0.18" default-y="4.3"/>
            </articulations>
          <technical>
            <up-bow default-x="1.26" default-y="16.81"/>
            <fingering default-x="6.5" default-y="37.32">2</fingering>
            </technical>
          </notations>
        </note>
      </measure>
    <measure number="2" width="247.49">
      <note default-x="12.5" default-y="-10">
        <pitch>
          <step>F</step>
          <alter>1</alter>
          <octave>3</octave>
          </pitch>
        <duration>1</duration>
        <voice>1</voice>
        <type>eighth</type>
        <stem>down</stem>
        <beam number="1">begin</beam>
        <notations>
          <technical>
            <fingering default-x="6.5" default-y="20.85">1</fingering>
            </technical>
          </notations>
        </note>
      <note default-x="45.81" default-y="-5">
        <pitch>
          <step>G</step>
          <octave>3</octave>
          </pitch>
        <duration>1</duration>
        <voice>1</voice>
        <type>eighth</type>
        <stem>down</stem>
        <beam number="1">continue</beam>
        <notations>
          <technical>
            <fingering default-x="6.5" default-y="15.84">2</fingering>
            </technical>
          </notations>
        </note>
      <note default-x="79.12" default-y="0">
        <pitch>
          <step>A</step>
          <octave>3</octave>
          </pitch>
        <duration>1</duration>
        <voice>1</voice>
        <type>eighth</type>
        <stem>down</stem>
        <beam number="1">continue</beam>
        <notations>
          <technical>
            <fingering default-x="6.5" default-y="16.04">4</fingering>
            </technical>
          </notations>
        </note>
      <note default-x="112.44" default-y="-10">
        <pitch>
          <step>F</step>
          <alter>1</alter>
          <octave>3</octave>
          </pitch>
        <duration>1</duration>
        <voice>1</voice>
        <type>eighth</type>
        <stem>down</stem>
        <beam number="1">end</beam>
        <notations>
          <technical>
            <fingering default-x="6.5" default-y="20.85">1</fingering>
            </technical>
          </notations>
        </note>
      <note default-x="145.75" default-y="-5">
        <pitch>
          <step>G</step>
          <octave>3</octave>
          </pitch>
        <duration>2</duration>
        <voice>1</voice>
        <type>quarter</type>
        <stem>down</stem>
        <notations>
          <technical>
            <fingering default-x="6.5" default-y="15.84">2</fingering>
            </technical>
          </notations>
        </note>
      <note default-x="195.72" default-y="-20">
        <pitch>
          <step>D</step>
          <octave>3</octave>
          </pitch>
        <duration>2</duration>
        <voice>1</voice>
        <type>quarter</type>
        <stem>down</stem>
        <notations>
          <technical>
            <fingering default-x="6.5" default-y="30.85">0</fingering>
            </technical>
          </notations>
        </note>
      </measure>
    <measure number="3" width="227.55">
      <note default-x="12.5" default-y="-40">
        <pitch>
          <step>G</step>
          <octave>2</octave>
          </pitch>
        <duration>2</duration>
        <voice>1</voice>
        <type>quarter</type>
        <stem>up</stem>
        <notations>
          <technical>
            <fingering default-x="6.5" default-y="50.85">0</fingering>
            </technical>
          </notations>
        </note>
      <note default-x="62.47" default-y="5">
        <pitch>
          <step>B</step>
          <octave>3</octave>
          </pitch>
        <duration>1</duration>
        <voice>1</voice>
        <type>eighth</type>
        <stem>down</stem>
        <beam number="1">begin</beam>
        <notations>
          <technical>
            <fingering default-x="6.5" default-y="16.04">1</fingering>
            </technical>
          </notations>
        </note>
      <note default-x="95.78" default-y="5">
        <pitch>
          <step>B</step>
          <octave>3</octave>
          </pitch>
        <duration>1</duration>
        <voice>1</voice>
        <type>eighth</type>
        <stem>down</stem>
        <beam number="1">end</beam>
        <notations>
          <technical>
            <fingering default-x="6.5" default-y="16.04">1</fingering>
            </technical>
          </notations>
        </note>
      <note default-x="129.09" default-y="5">
        <pitch>
          <step>B</step>
          <octave>3</octave>
          </pitch>
        <duration>3</duration>
        <voice>1</voice>
        <type>quarter</type>
        <dot default-x="147.09" default-y="5"/>
        <stem>down</stem>
        <notations>
          <slur type="start" bezier-x="14.822499" bezier-y="14.474375" number="1"/>
          <technical>
            <up-bow default-x="1.26" default-y="22.59"/>
            <fingering default-x="6.5" default-y="31.79">1</fingering>
            </technical>
          </notations>
        </note>
      <note default-x="192.44" default-y="5">
        <pitch>
          <step>B</step>
          <octave>3</octave>
          </pitch>
        <duration>1</duration>
        <voice>1</voice>
        <type>eighth</type>
        <stem>down</stem>
        <notations>
          <slur type="stop" number="1" bezier-x="-17.388491" bezier-y="11.262964"/>
          <articulations>
            <tenuto default-x="0.18" default-y="14.3"/>
            </articulations>
          <technical>
            <up-bow default-x="1.26" default-y="26.81"/>
            <fingering default-x="6.5" default-y="37.62">1</fingering>
            </technical>
          </notations>
        </note>
      </measure>
    <measure number="4" width="222.5">
      <note default-x="12.5" default-y="0">
        <pitch>
          <step>A</step>
          <octave>3</octave>
          </pitch>
        <duration>1</duration>
        <voice>1</voice>
        <type>eighth</type>
        <stem>down</stem>
        <beam number="1">begin</beam>
        <notations>
          <technical>
            <fingering default-x="6.5" default-y="16.04">0</fingering>
            </technical>
          </notations>
        </note>
      <note default-x="45.81" default-y="5">
        <pitch>
          <step>B</step>
          <octave>3</octave>
          </pitch>
        <duration>1</duration>
        <voice>1</voice>
        <type>eighth</type>
        <stem>down</stem>
        <beam number="1">continue</beam>
        <notations>
          <technical>
            <fingering default-x="6.5" default-y="16.04">1</fingering>
            </technical>
          </notations>
        </note>
      <note default-x="79.12" default-y="10">
        <pitch>
          <step>C</step>
          <octave>4</octave>
          </pitch>
        <duration>1</duration>
        <voice>1</voice>
        <type>eighth</type>
        <stem>down</stem>
        <beam number="1">continue</beam>
        <notations>
          <technical>
            <fingering default-x="6.5" default-y="15.84">2</fingering>
            </technical>
          </notations>
        </note>
      <note default-x="112.44" default-y="0">
        <pitch>
          <step>A</step>
          <octave>3</octave>
          </pitch>
        <duration>1</duration>
        <voice>1</voice>
        <type>eighth</type>
        <stem>down</stem>
        <beam number="1">end</beam>
        <notations>
          <technical>
            <fingering default-x="6.5" default-y="16.04">0</fingering>
            </technical>
          </notations>
        </note>
      <note default-x="145.75" default-y="5">
        <pitch>
          <step>B</step>
          <octave>3</octave>
          </pitch>
        <duration>4</duration>
        <voice>1</voice>
        <type>half</type>
        <stem>down</stem>
        <notations>
          <articulations>
            <breath-mark default-y="5">comma</breath-mark>
            </articulations>
          <technical>
            <fingering default-x="6.5" default-y="16.12">1</fingering>
            </technical>
          </notations>
        </note>
      </measure>
    <measure number="5" width="326.7">
      <print new-system="yes">
        <system-layout>
          <system-margins>
            <left-margin>0</left-margin>
            <right-margin>0</right-margin>
            </system-margins>
          <system-distance>235</system-distance>
          </system-layout>
        </print>
      <note default-x="76.31" default-y="15">
        <pitch>
          <step>D</step>
          <octave>4</octave>
          </pitch>
        <duration>1</duration>
        <voice>1</voice>
        <type>eighth</type>
        <stem>down</stem>
        <beam number="1">begin</beam>
        <notations>
          <technical>
            <down-bow default-x="0.2" default-y="24.3"/>
            <fingering default-x="6.5" default-y="29.4">2</fingering>
            </technical>
          </notations>
        </note>
      <note default-x="107.39" default-y="-20">
        <pitch>
          <step>D</step>
          <octave>3</octave>
          </pitch>
        <duration>1</duration>
        <voice>1</voice>
        <type>eighth</type>
        <stem>down</stem>
        <beam number="1">continue</beam>
        <notations>
          <technical>
            <fingering default-x="6.5" default-y="30.85">0</fingering>
            </technical>
          </notations>
        </note>
      <note default-x="138.46" default-y="15">
        <pitch>
          <step>D</step>
          <octave>4</octave>
          </pitch>
        <duration>1</duration>
        <voice>1</voice>
        <type>eighth</type>
        <stem>down</stem>
        <beam number="1">continue</beam>
        <notations>
          <technical>
            <fingering default-x="6.5" default-y="15.84">2</fingering>
            </technical>
          </notations>
        </note>
      <note default-x="169.53" default-y="20">
        <pitch>
          <step>E</step>
          <octave>4</octave>
          </pitch>
        <duration>1</duration>
        <voice>1</voice>
        <type>eighth</type>
        <stem>down</stem>
        <beam number="1">end</beam>
        <notations>
          <technical>
            <fingering default-x="6.5" default-y="16.04">4</fingering>
            </technical>
          </notations>
        </note>
      <note default-x="200.61" default-y="15">
        <pitch>
          <step>D</step>
          <octave>4</octave>
          </pitch>
        <duration>1</duration>
        <voice>1</voice>
        <type>eighth</type>
        <stem>down</stem>
        <beam number="1">begin</beam>
        <notations>
          <technical>
            <fingering default-x="6.5" default-y="16.04">4</fingering>
            </technical>
          </notations>
        </note>
      <note default-x="231.68" default-y="10">
        <pitch>
          <step>C</step>
          <octave>4</octave>
          </pitch>
        <duration>1</duration>
        <voice>1</voice>
        <type>eighth</type>
        <stem>down</stem>
        <beam number="1">continue</beam>
        <notations>
          <technical>
            <fingering default-x="6.5" default-y="15.84">2</fingering>
            </technical>
          </notations>
        </note>
      <note default-x="262.75" default-y="5">
        <pitch>
          <step>B</step>
          <octave>3</octave>
          </pitch>
        <duration>1</duration>
        <voice>1</voice>
        <type>eighth</type>
        <stem>down</stem>
        <beam number="1">continue</beam>
        <notations>
          <technical>
            <fingering default-x="6.5" default-y="16.04">1</fingering>
            </technical>
          </notations>
        </note>
      <note default-x="293.83" default-y="0">
        <pitch>
          <step>A</step>
          <octave>3</octave>
          </pitch>
        <duration>1</duration>
        <voice>1</voice>
        <type>eighth</type>
        <stem>down</stem>
        <beam number="1">end</beam>
        <notations>
          <technical>
            <fingering default-x="6.5" default-y="16.04">0</fingering>
            </technical>
          </notations>
        </note>
      </measure>
    <measure number="6" width="231.81">
      <note default-x="12.5" default-y="-5">
        <pitch>
          <step>G</step>
          <octave>3</octave>
          </pitch>
        <duration>1</duration>
        <voice>1</voice>
        <type>eighth</type>
        <stem>down</stem>
        <beam number="1">begin</beam>
        <notations>
          <technical>
            <fingering default-x="6.5" default-y="15.84">2</fingering>
            </technical>
          </notations>
        </note>
      <note default-x="43.57" default-y="-40">
        <pitch>
          <step>G</step>
          <octave>2</octave>
          </pitch>
        <duration>1</duration>
        <voice>1</voice>
        <type>eighth</type>
        <stem>down</stem>
        <beam number="1">continue</beam>
        <notations>
          <technical>
            <fingering default-x="6.5" default-y="50.85">0</fingering>
            </technical>
          </notations>
        </note>
      <note default-x="74.65" default-y="-5">
        <pitch>
          <step>G</step>
          <octave>3</octave>
          </pitch>
        <duration>1</duration>
        <voice>1</voice>
        <type>eighth</type>
        <stem>down</stem>
        <beam number="1">continue</beam>
        <notations>
          <technical>
            <fingering default-x="6.5" default-y="15.84">2</fingering>
            </technical>
          </notations>
        </note>
      <note default-x="105.72" default-y="0">
        <pitch>
          <step>A</step>
          <octave>3</octave>
          </pitch>
        <duration>1</duration>
        <voice>1</voice>
        <type>eighth</type>
        <stem>down</stem>
        <beam number="1">end</beam>
        <notations>
          <technical>
            <fingering default-x="6.5" default-y="16.04">4</fingering>
            </technical>
          </notations>
        </note>
      <note default-x="136.79" default-y="-5">
        <pitch>
          <step>G</step>
          <octave>3</octave>
          </pitch>
        <duration>2</duration>
        <voice>1</voice>
        <type>quarter</type>
        <stem>down</stem>
        <notations>
          <technical>
            <fingering default-x="6.5" default-y="15.84">2</fingering>
            </technical>
          </notations>
        </note>
      <note default-x="183.4" default-y="-20">
        <pitch>
          <step>D</step>
          <octave>3</octave>
          </pitch>
        <duration>2</duration>
        <voice>1</voice>
        <type>quarter</type>
        <stem>down</stem>
        <notations>
          <technical>
            <fingering default-x="6.5" default-y="30.85">0</fingering>
            </technical>
          </notations>
        </note>
      </measure>
    <measure number="7" width="262.89">
      <note default-x="12.5" default-y="-15">
        <pitch>
          <step>E</step>
          <octave>3</octave>
          </pitch>
        <duration>1</duration>
        <voice>1</voice>
        <type>eighth</type>
        <stem>down</stem>
        <beam number="1">begin</beam>
        <notations>
          <technical>
            <fingering default-x="6.5" default-y="25.85">1</fingering>
            </technical>
          </notations>
        </note>
      <note default-x="43.57" default-y="-10">
        <pitch>
          <step>F</step>
          <alter>1</alter>
          <octave>3</octave>
          </pitch>
        <duration>1</duration>
        <voice>1</voice>
        <type>eighth</type>
        <stem>down</stem>
        <beam number="1">continue</beam>
        <notations>
          <technical>
            <fingering default-x="6.5" default-y="21.05">3</fingering>
            </technical>
          </notations>
        </note>
      <note default-x="74.65" default-y="-5">
        <pitch>
          <step>G</step>
          <octave>3</octave>
          </pitch>
        <duration>1</duration>
        <voice>1</voice>
        <type>eighth</type>
        <stem>down</stem>
        <beam number="1">continue</beam>
        <notations>
          <technical>
            <fingering default-x="6.5" default-y="16.04">4</fingering>
            </technical>
          </notations>
        </note>
      <note default-x="105.72" default-y="-15">
        <pitch>
          <step>E</step>
          <octave>3</octave>
          </pitch>
        <duration>1</duration>
        <voice>1</voice>
        <type>eighth</type>
        <stem>down</stem>
        <beam number="1">end</beam>
        <notations>
          <technical>
            <fingering default-x="6.5" default-y="25.85">1</fingering>
            </technical>
          </notations>
        </note>
      <note default-x="136.79" default-y="-20">
        <pitch>
          <step>D</step>
          <octave>3</octave>
          </pitch>
        <duration>1</duration>
        <voice>1</voice>
        <type>eighth</type>
        <stem>down</stem>
        <beam number="1">begin</beam>
        <notations>
          <technical>
            <fingering default-x="6.5" default-y="30.85">0</fingering>
            </technical>
          </notations>
        </note>
      <note default-x="167.87" default-y="-5">
        <pitch>
          <step>G</step>
          <octave>3</octave>
          </pitch>
        <duration>1</duration>
        <voice>1</voice>
        <type>eighth</type>
        <stem>down</stem>
        <beam number="1">continue</beam>
        <notations>
          <technical>
            <fingering default-x="6.5" default-y="16.24">h</fingering>
            </technical>
          </notations>
        </note>
      <note default-x="198.94" default-y="5">
        <pitch>
          <step>B</step>
          <octave>3</octave>
          </pitch>
        <duration>1</duration>
        <voice>1</voice>
        <type>eighth</type>
        <stem>down</stem>
        <beam number="1">continue</beam>
        <notations>
          <technical>
            <fingering default-x="6.5" default-y="16.04">1</fingering>
            </technical>
          </notations>
        </note>
      <note default-x="230.01" default-y="15">
        <pitch>
          <step>D</step>
          <octave>4</octave>
          </pitch>
        <duration>1</duration>
        <voice>1</voice>
        <type>eighth</type>
        <stem>down</stem>
        <beam number="1">end</beam>
        <notations>
          <technical>
            <fingering default-x="6.5" default-y="16.04">4</fingering>
            </technical>
          </notations>
        </note>
      </measure>
    <measure number="8" width="241.01">
      <note default-x="12.5" default-y="15">
        <pitch>
          <step>D</step>
          <octave>4</octave>
          </pitch>
        <duration>1</duration>
        <voice>1</voice>
        <type>eighth</type>
        <stem>down</stem>
        <beam number="1">begin</beam>
        <notations>
          <technical>
            <fingering default-x="6.5" default-y="16.04">4</fingering>
            </technical>
          </notations>
        </note>
      <note default-x="43.57" default-y="10">
        <pitch>
          <step>C</step>
          <octave>4</octave>
          </pitch>
        <duration>1</duration>
        <voice>1</voice>
        <type>eighth</type>
        <stem>down</stem>
        <beam number="1">continue</beam>
        <notations>
          <technical>
            <fingering default-x="6.5" default-y="15.84">2</fingering>
            </technical>
          </notations>
        </note>
      <note default-x="74.65" default-y="5">
        <pitch>
          <step>B</step>
          <octave>3</octave>
          </pitch>
        <duration>1</duration>
        <voice>1</voice>
        <type>eighth</type>
        <stem>down</stem>
        <beam number="1">continue</beam>
        <notations>
          <technical>
            <fingering default-x="6.5" default-y="16.04">1</fingering>
            </technical>
          </notations>
        </note>
      <note default-x="105.72" default-y="0">
        <pitch>
          <step>A</step>
          <octave>3</octave>
          </pitch>
        <duration>1</duration>
        <voice>1</voice>
        <type>eighth</type>
        <stem>down</stem>
        <beam number="1">end</beam>
        <notations>
          <technical>
            <fingering default-x="6.5" default-y="16.04">0</fingering>
            </technical>
          </notations>
        </note>
      <note default-x="136.79" default-y="-5">
        <pitch>
          <step>G</step>
          <octave>3</octave>
          </pitch>
        <duration>2</duration>
        <voice>1</voice>
        <type>quarter</type>
        <stem>down</stem>
        <notations>
          <technical>
            <fingering default-x="6.5" default-y="16.04">4</fingering>
            </technical>
          </notations>
        </note>
      <note default-x="183.4" default-y="-40">
        <pitch>
          <step>G</step>
          <octave>2</octave>
          </pitch>
        <duration>2</duration>
        <voice>1</voice>
        <type>quarter</type>
        <stem>up</stem>
        <notations>
          <technical>
            <fingering default-x="6.5" default-y="50.85">0</fingering>
            </technical>
          </notations>
        </note>
      <barline location="right">
        <bar-style>light-heavy</bar-style>
        </barline>
      </measure>
    </part>
  </score-partwise>
