<?xml version="1.0" encoding="UTF-8"?>
<!DOCTYPE score-partwise PUBLIC "-//Recordare//DTD MusicXML 4.0 Partwise//EN" "http://www.musicxml.org/dtds/partwise.dtd">
<score-partwise version="4.0">
  <work>
    <work-title>Untitled score</work-title>
    </work>
  <identification>
    <creator type="composer">Composer / arranger</creator>
    <encoding>
      <software>MuseScore Studio 4.6.3</software>
      <encoding-date>2026-05-30</encoding-date>
      <supports element="accidental" type="yes"/>
      <supports element="beam" type="yes"/>
      <supports element="print" attribute="new-page" type="yes" value="yes"/>
      <supports element="print" attribute="new-system" type="yes" value="yes"/>
      <supports element="stem" type="yes"/>
      </encoding>
    <miscellaneous>
      <miscellaneous-field name="creationDate">2026-01-03</miscellaneous-field>
      <miscellaneous-field name="platform">Microsoft Windows</miscellaneous-field>
      <miscellaneous-field name="subtitle">Subtitle</miscellaneous-field>
      </miscellaneous>
    </identification>
  <defaults>
    <scaling>
      <millimeters>6.99912</millimeters>
      <tenths>40</tenths>
      </scaling>
    <page-layout>
      <page-height>1596.77</page-height>
      <page-width>1233.87</page-width>
      <page-margins type="even">
        <left-margin>85.725</left-margin>
        <right-margin>85.725</right-margin>
        <top-margin>85.725</top-margin>
        <bottom-margin>85.725</bottom-margin>
        </page-margins>
      <page-margins type="odd">
        <left-margin>85.725</left-margin>
        <right-margin>85.725</right-margin>
        <top-margin>85.725</top-margin>
        <bottom-margin>85.725</bottom-margin>
        </page-margins>
      </page-layout>
    <appearance>
      <line-width type="light barline">1.8</line-width>
      <line-width type="heavy barline">5.5</line-width>
      <line-width type="beam">5</line-width>
      <line-width type="bracket">4.5</line-width>
      <line-width type="dashes">1</line-width>
      <line-width type="enclosure">1</line-width>
      <line-width type="ending">1.1</line-width>
      <line-width type="extend">1</line-width>
      <line-width type="leger">1.6</line-width>
      <line-width type="pedal">1.1</line-width>
      <line-width type="octave shift">1.1</line-width>
      <line-width type="slur middle">2.1</line-width>
      <line-width type="slur tip">0.5</line-width>
      <line-width type="staff">1.1</line-width>
      <line-width type="stem">1</line-width>
      <line-width type="tie middle">2.1</line-width>
      <line-width type="tie tip">0.5</line-width>
      <line-width type="tuplet bracket">1</line-width>
      <line-width type="wedge">1.2</line-width>
      <note-size type="cue">70</note-size>
      <note-size type="grace">70</note-size>
      <note-size type="grace-cue">49</note-size>
      </appearance>
    <music-font font-family="Leland"/>
    <word-font font-family="Edwin" font-size="10"/>
    <lyric-font font-family="Edwin" font-size="10"/>
    </defaults>
  <credit page="1">
    <credit-type>title</credit-type>
    <credit-words default-x="616.9347" default-y="1511.047129" justify="center" valign="top" font-size="22">Skating
</credit-words>
    <credit-words></credit-words>
    </credit>
  <part-list>
    <score-part id="P1">
      <part-name>Violoncello</part-name>
      <part-abbreviation>Vc.</part-abbreviation>
      <score-instrument id="P1-I1">
        <instrument-name>Violoncello</instrument-name>
        <instrument-sound>strings.cello</instrument-sound>
        </score-instrument>
      <midi-device id="P1-I1" port="1"></midi-device>
      <midi-instrument id="P1-I1">
        <midi-channel>1</midi-channel>
        <midi-program>43</midi-program>
        <volume>78.7402</volume>
        <pan>0</pan>
        </midi-instrument>
      </score-part>
    </part-list>
  <part id="P1">
    <measure number="1" width="276.44">
      <print>
        <system-layout>
          <system-margins>
            <left-margin>50</left-margin>
            <right-margin>0</right-margin>
            </system-margins>
          <top-system-distance>170</top-system-distance>
          </system-layout>
        </print>
      <attributes>
        <divisions>2</divisions>
        <key>
          <fifths>1</fifths>
          </key>
        <time>
          <beats>3</beats>
          <beat-type>4</beat-type>
          </time>
        <clef>
          <sign>F</sign>
          <line>4</line>
          </clef>
        </attributes>
      <direction placement="above" system="only-top">
        <direction-type>
          <metronome parentheses="no" default-x="-37.67" default-y="2.1" relative-y="20">
            <beat-unit>quarter</beat-unit>
            <per-minute>108</per-minute>
            </metronome>
          </direction-type>
        <sound tempo="108"/>
        </direction>
      <direction placement="below">
        <direction-type>
          <dynamics default-x="5.32" default-y="-41" relative-y="-20">
            <mp/>
            </dynamics>
          </direction-type>
        <sound dynamics="71.11"/>
        </direction>
      <note default-x="98.43" default-y="-40">
        <pitch>
          <step>G</step>
          <octave>2</octave>
          </pitch>
        <duration>2</duration>
        <voice>1</voice>
        <type>quarter</type>
        <stem>up</stem>
        <notations>
          <technical>
            <fingering default-x="6.5" default-y="50.85">0</fingering>
            </technical>
          </notations>
        </note>
      <note default-x="168.91" default-y="-5">
        <pitch>
          <step>G</step>
          <octave>3</octave>
          </pitch>
        <duration>4</duration>
        <voice>1</voice>
        <type>half</type>
        <stem>down</stem>
        <notations>
          <technical>
            <fingering default-x="6.5" default-y="15.92">2</fingering>
            </technical>
          </notations>
        </note>
      </measure>
    <measure number="2" width="272.74">
      <note default-x="12.5" default-y="-10">
        <pitch>
          <step>F</step>
          <alter>1</alter>
          <octave>3</octave>
          </pitch>
        <duration>1</duration>
        <voice>1</voice>
        <type>eighth</type>
        <stem>down</stem>
        <beam number="1">begin</beam>
        <notations>
          <slur type="start" bezier-x="29.132944" bezier-y="19.39848" number="1"/>
          <technical>
            <fingering default-x="6.5" default-y="20.85">1</fingering>
            </technical>
          </notations>
        </note>
      <note default-x="59.49" default-y="-5">
        <pitch>
          <step>G</step>
          <octave>3</octave>
          </pitch>
        <duration>1</duration>
        <voice>1</voice>
        <type>eighth</type>
        <stem>down</stem>
        <beam number="1">end</beam>
        <notations>
          <technical>
            <fingering default-x="6.5" default-y="15.84">2</fingering>
            </technical>
          </notations>
        </note>
      <note default-x="106.48" default-y="0">
        <pitch>
          <step>A</step>
          <octave>3</octave>
          </pitch>
        <duration>1</duration>
        <voice>1</voice>
        <type>eighth</type>
        <stem>down</stem>
        <beam number="1">begin</beam>
        <notations>
          <technical>
            <fingering default-x="6.5" default-y="16.24">h</fingering>
            </technical>
          </notations>
        </note>
      <note default-x="153.47" default-y="-10">
        <pitch>
          <step>F</step>
          <alter>1</alter>
          <octave>3</octave>
          </pitch>
        <duration>1</duration>
        <voice>1</voice>
        <type>eighth</type>
        <stem>down</stem>
        <beam number="1">end</beam>
        <notations>
          <slur type="stop" number="1" bezier-x="-29.132944" bezier-y="19.39848"/>
          <technical>
            <fingering default-x="6.5" default-y="20.85">1</fingering>
            </technical>
          </notations>
        </note>
      <note default-x="200.45" default-y="-5">
        <pitch>
          <step>G</step>
          <octave>3</octave>
          </pitch>
        <duration>2</duration>
        <voice>1</voice>
        <type>quarter</type>
        <stem>down</stem>
        <notations>
          <technical>
            <fingering default-x="6.5" default-y="15.84">2</fingering>
            </technical>
          </notations>
        </note>
      </measure>
    <measure number="3" width="190.51">
      <direction placement="below">
        <direction-type>
          <dynamics default-x="5.32" default-y="-45.08" relative-y="-20">
            <mf/>
            </dynamics>
          </direction-type>
        <sound dynamics="88.89"/>
        </direction>
      <note default-x="12.5" default-y="-20">
        <pitch>
          <step>D</step>
          <octave>3</octave>
          </pitch>
        <duration>2</duration>
        <voice>1</voice>
        <type>quarter</type>
        <stem>down</stem>
        <notations>
          <technical>
            <fingering default-x="6.5" default-y="30.85">0</fingering>
            </technical>
          </notations>
        </note>
      <note default-x="82.98" default-y="5">
        <pitch>
          <step>B</step>
          <octave>3</octave>
          </pitch>
        <duration>4</duration>
        <voice>1</voice>
        <type>half</type>
        <stem>down</stem>
        <notations>
          <technical>
            <fingering default-x="6.5" default-y="16.12">1</fingering>
            </technical>
          </notations>
        </note>
      </measure>
    <measure number="4" width="272.74">
      <note default-x="12.5" default-y="0">
        <pitch>
          <step>A</step>
          <octave>3</octave>
          </pitch>
        <duration>1</duration>
        <voice>1</voice>
        <type>eighth</type>
        <stem>down</stem>
        <beam number="1">begin</beam>
        <notations>
          <slur type="start" bezier-x="28.202943" bezier-y="20.572523" number="1"/>
          <technical>
            <fingering default-x="6.5" default-y="16.04">0</fingering>
            </technical>
          </notations>
        </note>
      <note default-x="59.49" default-y="5">
        <pitch>
          <step>B</step>
          <octave>3</octave>
          </pitch>
        <duration>1</duration>
        <voice>1</voice>
        <type>eighth</type>
        <stem>down</stem>
        <beam number="1">end</beam>
        <notations>
          <technical>
            <fingering default-x="6.5" default-y="16.04">1</fingering>
            </technical>
          </notations>
        </note>
      <note default-x="106.48" default-y="10">
        <pitch>
          <step>C</step>
          <octave>4</octave>
          </pitch>
        <duration>1</duration>
        <voice>1</voice>
        <type>eighth</type>
        <stem>down</stem>
        <beam number="1">begin</beam>
        <notations>
          <technical>
            <fingering default-x="6.5" default-y="15.84">2</fingering>
            </technical>
          </notations>
        </note>
      <note default-x="153.47" default-y="0">
        <pitch>
          <step>A</step>
          <octave>3</octave>
          </pitch>
        <duration>1</duration>
        <voice>1</voice>
        <type>eighth</type>
        <stem>down</stem>
        <beam number="1">end</beam>
        <notations>
          <slur type="stop" number="1" bezier-x="-27.272942" bezier-y="21.018398"/>
          <technical>
            <fingering default-x="6.5" default-y="16.04">0</fingering>
            </technical>
          </notations>
        </note>
      <note default-x="200.45" default-y="5">
        <pitch>
          <step>B</step>
          <octave>3</octave>
          </pitch>
        <duration>2</duration>
        <voice>1</voice>
        <type>quarter</type>
        <stem>down</stem>
        <notations>
          <technical>
            <fingering default-x="6.5" default-y="16.04">1</fingering>
            </technical>
          </notations>
        </note>
      </measure>
    <measure number="5" width="369.39">
      <print new-system="yes">
        <system-layout>
          <system-margins>
            <left-margin>0</left-margin>
            <right-margin>0</right-margin>
            </system-margins>
          <system-distance>235</system-distance>
          </system-layout>
        </print>
      <direction placement="below">
        <direction-type>
          <dynamics default-x="2.31" default-y="-45.92" relative-y="-20">
            <f/>
            </dynamics>
          </direction-type>
        <sound dynamics="106.67"/>
        </direction>
      <note default-x="76.31" default-y="15">
        <pitch>
          <step>D</step>
          <octave>4</octave>
          </pitch>
        <duration>1</duration>
        <voice>1</voice>
        <type>eighth</type>
        <stem>down</stem>
        <beam number="1">begin</beam>
        <notations>
          <slur type="start" bezier-x="32.186988" bezier-y="21.622376" number="1"/>
          <technical>
            <fingering default-x="6.5" default-y="15.84">2</fingering>
            </technical>
          </notations>
        </note>
      <note default-x="129.27" default-y="-20">
        <pitch>
          <step>D</step>
          <octave>3</octave>
          </pitch>
        <duration>1</duration>
        <voice>1</voice>
        <type>eighth</type>
        <stem>down</stem>
        <beam number="1">end</beam>
        <notations>
          <technical>
            <fingering default-x="6.5" default-y="30.85">0</fingering>
            </technical>
          </notations>
        </note>
      <note default-x="182.23" default-y="15">
        <pitch>
          <step>D</step>
          <octave>4</octave>
          </pitch>
        <duration>1</duration>
        <voice>1</voice>
        <type>eighth</type>
        <stem>down</stem>
        <beam number="1">begin</beam>
        <notations>
          <technical>
            <fingering default-x="6.5" default-y="15.84">2</fingering>
            </technical>
          </notations>
        </note>
      <note default-x="235.19" default-y="20">
        <pitch>
          <step>E</step>
          <octave>4</octave>
          </pitch>
        <duration>1</duration>
        <voice>1</voice>
        <type>eighth</type>
        <stem>down</stem>
        <beam number="1">end</beam>
        <notations>
          <slur type="stop" number="1" bezier-x="-33.482887" bezier-y="19.555706"/>
          <technical>
            <fingering default-x="6.5" default-y="16.24">h</fingering>
            </technical>
          </notations>
        </note>
      <note default-x="288.15" default-y="15">
        <pitch>
          <step>D</step>
          <octave>4</octave>
          </pitch>
        <duration>2</duration>
        <voice>1</voice>
        <type>quarter</type>
        <stem>down</stem>
        <notations>
          <technical>
            <fingering default-x="6.5" default-y="15.84">2</fingering>
            </technical>
          </notations>
        </note>
      </measure>
    <measure number="6" width="305.58">
      <direction placement="below">
        <direction-type>
          <dynamics default-x="5.32" default-y="-42.47" relative-y="-20">
            <mf/>
            </dynamics>
          </direction-type>
        <sound dynamics="88.89"/>
        </direction>
      <note default-x="12.5" default-y="-5">
        <pitch>
          <step>G</step>
          <octave>3</octave>
          </pitch>
        <duration>1</duration>
        <voice>1</voice>
        <type>eighth</type>
        <stem>down</stem>
        <beam number="1">begin</beam>
        <notations>
          <slur type="start" bezier-x="33.055288" bezier-y="20.242214" number="1"/>
          <technical>
            <fingering default-x="6.5" default-y="15.84">2</fingering>
            </technical>
          </notations>
        </note>
      <note default-x="65.46" default-y="0">
        <pitch>
          <step>A</step>
          <octave>3</octave>
          </pitch>
        <duration>1</duration>
        <voice>1</voice>
        <type>eighth</type>
        <stem>down</stem>
        <beam number="1">end</beam>
        <notations>
          <technical>
            <fingering default-x="6.5" default-y="16.04">4</fingering>
            </technical>
          </notations>
        </note>
      <note default-x="118.42" default-y="-5">
        <pitch>
          <step>G</step>
          <octave>3</octave>
          </pitch>
        <duration>1</duration>
        <voice>1</voice>
        <type>eighth</type>
        <stem>down</stem>
        <beam number="1">begin</beam>
        <notations>
          <technical>
            <fingering default-x="6.5" default-y="15.84">2</fingering>
            </technical>
          </notations>
        </note>
      <note default-x="171.38" default-y="-10">
        <pitch>
          <step>F</step>
          <alter>1</alter>
          <octave>3</octave>
          </pitch>
        <duration>1</duration>
        <voice>1</voice>
        <type>eighth</type>
        <stem>down</stem>
        <beam number="1">end</beam>
        <notations>
          <slur type="stop" number="1" bezier-x="-32.614587" bezier-y="20.944881"/>
          <technical>
            <fingering default-x="6.5" default-y="20.85">1</fingering>
            </technical>
          </notations>
        </note>
      <note default-x="224.34" default-y="-5">
        <pitch>
          <step>G</step>
          <octave>3</octave>
          </pitch>
        <duration>2</duration>
        <voice>1</voice>
        <type>quarter</type>
        <stem>down</stem>
        <notations>
          <technical>
            <fingering default-x="6.5" default-y="15.84">2</fingering>
            </technical>
          </notations>
        </note>
      </measure>
    <measure number="7" width="212.9">
      <direction placement="below">
        <direction-type>
          <wedge type="diminuendo" default-y="-63.35" number="1"/>
          </direction-type>
        </direction>
      <note default-x="12.5" default-y="-25">
        <pitch>
          <step>C</step>
          <octave>3</octave>
          </pitch>
        <duration>2</duration>
        <voice>1</voice>
        <type>quarter</type>
        <stem>up</stem>
        <notations>
          <technical>
            <fingering default-x="6.5" default-y="35.65">2</fingering>
            </technical>
          </notations>
        </note>
      <note default-x="91.94" default-y="-20">
        <pitch>
          <step>D</step>
          <octave>3</octave>
          </pitch>
        <duration>4</duration>
        <voice>1</voice>
        <type>half</type>
        <stem>down</stem>
        <notations>
          <technical>
            <fingering default-x="6.5" default-y="30.85">4</fingering>
            </technical>
          </notations>
        </note>
      </measure>
    <measure number="8" width="174.55">
      <note default-x="12.5" default-y="-40">
        <pitch>
          <step>G</step>
          <octave>2</octave>
          </pitch>
        <duration>6</duration>
        <voice>1</voice>
        <type>half</type>
        <dot default-x="30.49" default-y="-35"/>
        <stem>up</stem>
        <notations>
          <technical>
            <fingering default-x="6.5" default-y="50.85">0</fingering>
            </technical>
          </notations>
        </note>
      <direction placement="below">
        <direction-type>
          <wedge type="stop" spread="11.5" number="1"/>
          </direction-type>
        </direction>
      <barline location="right">
        <bar-style>light-heavy</bar-style>
        </barline>
      </measure>
    </part>
  </score-partwise>
