<?xml version="1.0" encoding="UTF-8"?>
<!DOCTYPE score-partwise PUBLIC "-//Recordare//DTD MusicXML 4.0 Partwise//EN" "http://www.musicxml.org/dtds/partwise.dtd">
<score-partwise version="4.0">
  <work>
    <work-title>Untitled score</work-title>
    </work>
  <identification>
    <creator type="composer">Composer / arranger</creator>
    <encoding>
      <software>MuseScore Studio 4.6.3</software>
      <encoding-date>2026-05-30</encoding-date>
      <supports element="accidental" type="yes"/>
      <supports element="beam" type="yes"/>
      <supports element="print" attribute="new-page" type="yes" value="yes"/>
      <supports element="print" attribute="new-system" type="yes" value="yes"/>
      <supports element="stem" type="yes"/>
      </encoding>
    <miscellaneous>
      <miscellaneous-field name="creationDate">2026-01-05</miscellaneous-field>
      <miscellaneous-field name="platform">Microsoft Windows</miscellaneous-field>
      <miscellaneous-field name="subtitle">Subtitle</miscellaneous-field>
      </miscellaneous>
    </identification>
  <defaults>
    <scaling>
      <millimeters>6.99912</millimeters>
      <tenths>40</tenths>
      </scaling>
    <page-layout>
      <page-height>1596.77</page-height>
      <page-width>1233.87</page-width>
      <page-margins type="even">
        <left-margin>85.725</left-margin>
        <right-margin>85.725</right-margin>
        <top-margin>85.725</top-margin>
        <bottom-margin>85.725</bottom-margin>
        </page-margins>
      <page-margins type="odd">
        <left-margin>85.725</left-margin>
        <right-margin>85.725</right-margin>
        <top-margin>85.725</top-margin>
        <bottom-margin>85.725</bottom-margin>
        </page-margins>
      </page-layout>
    <appearance>
      <line-width type="light barline">1.8</line-width>
      <line-width type="heavy barline">5.5</line-width>
      <line-width type="beam">5</line-width>
      <line-width type="bracket">4.5</line-width>
      <line-width type="dashes">1</line-width>
      <line-width type="enclosure">1</line-width>
      <line-width type="ending">1.1</line-width>
      <line-width type="extend">1</line-width>
      <line-width type="leger">1.6</line-width>
      <line-width type="pedal">1.1</line-width>
      <line-width type="octave shift">1.1</line-width>
      <line-width type="slur middle">2.1</line-width>
      <line-width type="slur tip">0.5</line-width>
      <line-width type="staff">1.1</line-width>
      <line-width type="stem">1</line-width>
      <line-width type="tie middle">2.1</line-width>
      <line-width type="tie tip">0.5</line-width>
      <line-width type="tuplet bracket">1</line-width>
      <line-width type="wedge">1.2</line-width>
      <note-size type="cue">70</note-size>
      <note-size type="grace">70</note-size>
      <note-size type="grace-cue">49</note-size>
      </appearance>
    <music-font font-family="Leland"/>
    <word-font font-family="Edwin" font-size="10"/>
    <lyric-font font-family="Edwin" font-size="10"/>
    </defaults>
  <credit page="1">
    <credit-type>title</credit-type>
    <credit-words default-x="616.9347" default-y="1511.047129" justify="center" valign="top" font-size="22">Sitting in the Shade</credit-words>
    </credit>
  <part-list>
    <score-part id="P1">
      <part-name>Violoncello</part-name>
      <part-abbreviation>Vc.</part-abbreviation>
      <score-instrument id="P1-I1">
        <instrument-name>Violoncello</instrument-name>
        <instrument-sound>strings.cello</instrument-sound>
        </score-instrument>
      <midi-device id="P1-I1" port="1"></midi-device>
      <midi-instrument id="P1-I1">
        <midi-channel>1</midi-channel>
        <midi-program>43</midi-program>
        <volume>78.7402</volume>
        <pan>0</pan>
        </midi-instrument>
      </score-part>
    </part-list>
  <part id="P1">
    <measure number="1" width="319.43">
      <print>
        <system-layout>
          <system-margins>
            <left-margin>50</left-margin>
            <right-margin>0</right-margin>
            </system-margins>
          <top-system-distance>170</top-system-distance>
          </system-layout>
        </print>
      <attributes>
        <divisions>2</divisions>
        <key>
          <fifths>2</fifths>
          </key>
        <time symbol="common">
          <beats>4</beats>
          <beat-type>4</beat-type>
          </time>
        <clef>
          <sign>F</sign>
          <line>4</line>
          </clef>
        </attributes>
      <direction placement="above" system="only-top">
        <direction-type>
          <metronome parentheses="no" default-x="-38.52" default-y="5.49" relative-y="20">
            <beat-unit>quarter</beat-unit>
            <per-minute>96</per-minute>
            </metronome>
          </direction-type>
        <sound tempo="96"/>
        </direction>
      <direction placement="below">
        <direction-type>
          <dynamics default-x="5.32" default-y="-45.6" relative-y="-20">
            <mp/>
            </dynamics>
          </direction-type>
        <sound dynamics="71.11"/>
        </direction>
      <note default-x="110.79" default-y="-20">
        <pitch>
          <step>D</step>
          <octave>3</octave>
          </pitch>
        <duration>2</duration>
        <voice>1</voice>
        <type>quarter</type>
        <stem>down</stem>
        <notations>
          <slur type="start" bezier-x="4.43425" bezier-y="17.999411" number="1"/>
          <technical>
            <fingering default-x="6.5" default-y="30.85">0</fingering>
            </technical>
          </notations>
        </note>
      <note default-x="155.11" default-y="15">
        <pitch>
          <step>D</step>
          <octave>4</octave>
          </pitch>
        <duration>2</duration>
        <voice>1</voice>
        <type>quarter</type>
        <stem>down</stem>
        <notations>
          <slur type="stop" number="1" bezier-x="-18.466552" bezier-y="1.621056"/>
          <technical>
            <fingering default-x="6.5" default-y="15.84">2</fingering>
            </technical>
          </notations>
        </note>
      <note default-x="199.44" default-y="10">
        <pitch>
          <step>C</step>
          <alter>1</alter>
          <octave>4</octave>
          </pitch>
        <duration>1</duration>
        <voice>1</voice>
        <type>eighth</type>
        <stem>down</stem>
        <beam number="1">begin</beam>
        <notations>
          <slur type="start" bezier-x="21.9708" bezier-y="18.470585" number="1"/>
          <technical>
            <fingering default-x="6.5" default-y="16.04">1</fingering>
            </technical>
          </notations>
        </note>
      <note default-x="228.99" default-y="15">
        <pitch>
          <step>D</step>
          <octave>4</octave>
          </pitch>
        <duration>1</duration>
        <voice>1</voice>
        <type>eighth</type>
        <stem>down</stem>
        <beam number="1">continue</beam>
        <notations>
          <technical>
            <fingering default-x="6.5" default-y="15.84">2</fingering>
            </technical>
          </notations>
        </note>
      <note default-x="258.53" default-y="20">
        <pitch>
          <step>E</step>
          <octave>4</octave>
          </pitch>
        <duration>1</duration>
        <voice>1</voice>
        <type>eighth</type>
        <stem>down</stem>
        <beam number="1">continue</beam>
        <notations>
          <technical>
            <fingering default-x="6.5" default-y="16.04">4</fingering>
            </technical>
          </notations>
        </note>
      <note default-x="288.08" default-y="10">
        <pitch>
          <step>C</step>
          <alter>1</alter>
          <octave>4</octave>
          </pitch>
        <duration>1</duration>
        <voice>1</voice>
        <type>eighth</type>
        <stem>down</stem>
        <beam number="1">end</beam>
        <notations>
          <slur type="stop" number="1" bezier-x="-21.040799" bezier-y="18.818352"/>
          <technical>
            <fingering default-x="6.5" default-y="16.04">1</fingering>
            </technical>
          </notations>
        </note>
      </measure>
    <measure number="2" width="221.15">
      <note default-x="12.5" default-y="15">
        <pitch>
          <step>D</step>
          <octave>4</octave>
          </pitch>
        <duration>1</duration>
        <voice>1</voice>
        <type>eighth</type>
        <stem>down</stem>
        <beam number="1">begin</beam>
        <notations>
          <slur type="start" bezier-x="25.485456" bezier-y="11.399983" number="1"/>
          <technical>
            <fingering default-x="6.5" default-y="15.84">2</fingering>
            </technical>
          </notations>
        </note>
      <note default-x="42.05" default-y="-10">
        <pitch>
          <step>F</step>
          <alter>1</alter>
          <octave>3</octave>
          </pitch>
        <duration>1</duration>
        <voice>1</voice>
        <type>eighth</type>
        <stem>down</stem>
        <beam number="1">continue</beam>
        <notations>
          <technical>
            <fingering default-x="6.5" default-y="20.85">1</fingering>
            </technical>
          </notations>
        </note>
      <note default-x="71.6" default-y="-5">
        <pitch>
          <step>G</step>
          <octave>3</octave>
          </pitch>
        <duration>1</duration>
        <voice>1</voice>
        <type>eighth</type>
        <stem>down</stem>
        <beam number="1">continue</beam>
        <notations>
          <technical>
            <fingering default-x="6.5" default-y="15.84">2</fingering>
            </technical>
          </notations>
        </note>
      <note default-x="101.15" default-y="0">
        <pitch>
          <step>A</step>
          <octave>3</octave>
          </pitch>
        <duration>1</duration>
        <voice>1</voice>
        <type>eighth</type>
        <stem>down</stem>
        <beam number="1">end</beam>
        <notations>
          <slur type="stop" number="1" bezier-x="-20.316147" bezier-y="19.149993"/>
          <technical>
            <fingering default-x="6.5" default-y="16.04">4</fingering>
            </technical>
          </notations>
        </note>
      <note default-x="130.7" default-y="-10">
        <pitch>
          <step>F</step>
          <alter>1</alter>
          <octave>3</octave>
          </pitch>
        <duration>2</duration>
        <voice>1</voice>
        <type>quarter</type>
        <stem>down</stem>
        <notations>
          <slur type="start" bezier-x="13.874223" bezier-y="8.160031" number="1"/>
          <technical>
            <fingering default-x="6.5" default-y="20.85">1</fingering>
            </technical>
          </notations>
        </note>
      <note default-x="175.02" default-y="-20">
        <pitch>
          <step>D</step>
          <octave>3</octave>
          </pitch>
        <duration>2</duration>
        <voice>1</voice>
        <type>quarter</type>
        <stem>down</stem>
        <notations>
          <slur type="stop" number="1" bezier-x="-9.026578" bezier-y="13.326705"/>
          <technical>
            <fingering default-x="6.5" default-y="30.85">4</fingering>
            </technical>
          </notations>
        </note>
      </measure>
    <measure number="3" width="250.7">
      <note default-x="12.5" default-y="-20">
        <pitch>
          <step>D</step>
          <octave>3</octave>
          </pitch>
        <duration>1</duration>
        <voice>1</voice>
        <type>eighth</type>
        <stem>down</stem>
        <beam number="1">begin</beam>
        <notations>
          <slur type="start" bezier-x="22.435801" bezier-y="16.151876" number="1"/>
          <technical>
            <fingering default-x="6.5" default-y="30.85">0</fingering>
            </technical>
          </notations>
        </note>
      <note default-x="42.05" default-y="-15">
        <pitch>
          <step>E</step>
          <octave>3</octave>
          </pitch>
        <duration>1</duration>
        <voice>1</voice>
        <type>eighth</type>
        <stem>down</stem>
        <beam number="1">continue</beam>
        <notations>
          <technical>
            <fingering default-x="6.5" default-y="25.85">1</fingering>
            </technical>
          </notations>
        </note>
      <note default-x="71.6" default-y="-10">
        <pitch>
          <step>F</step>
          <alter>1</alter>
          <octave>3</octave>
          </pitch>
        <duration>1</duration>
        <voice>1</voice>
        <type>eighth</type>
        <stem>down</stem>
        <beam number="1">continue</beam>
        <notations>
          <technical>
            <fingering default-x="6.5" default-y="21.05">3</fingering>
            </technical>
          </notations>
        </note>
      <note default-x="101.15" default-y="-20">
        <pitch>
          <step>D</step>
          <octave>3</octave>
          </pitch>
        <duration>1</duration>
        <voice>1</voice>
        <type>eighth</type>
        <stem>down</stem>
        <beam number="1">end</beam>
        <notations>
          <slur type="stop" number="1" bezier-x="-21.9708" bezier-y="16.01576"/>
          <technical>
            <fingering default-x="6.5" default-y="30.85">0</fingering>
            </technical>
          </notations>
        </note>
      <note default-x="130.7" default-y="0">
        <pitch>
          <step>A</step>
          <octave>3</octave>
          </pitch>
        <duration>1</duration>
        <voice>1</voice>
        <type>eighth</type>
        <stem>down</stem>
        <beam number="1">begin</beam>
        <notations>
          <slur type="start" bezier-x="21.9708" bezier-y="18.470585" number="1"/>
          <technical>
            <fingering default-x="6.5" default-y="16.04">0</fingering>
            </technical>
          </notations>
        </note>
      <note default-x="160.25" default-y="5">
        <pitch>
          <step>B</step>
          <octave>3</octave>
          </pitch>
        <duration>1</duration>
        <voice>1</voice>
        <type>eighth</type>
        <stem>down</stem>
        <beam number="1">continue</beam>
        <notations>
          <technical>
            <fingering default-x="6.5" default-y="16.04">1</fingering>
            </technical>
          </notations>
        </note>
      <note default-x="189.8" default-y="10">
        <pitch>
          <step>C</step>
          <alter>1</alter>
          <octave>4</octave>
          </pitch>
        <duration>1</duration>
        <voice>1</voice>
        <type>eighth</type>
        <stem>down</stem>
        <beam number="1">continue</beam>
        <notations>
          <technical>
            <fingering default-x="6.5" default-y="16.24">3</fingering>
            </technical>
          </notations>
        </note>
      <note default-x="219.35" default-y="0">
        <pitch>
          <step>A</step>
          <octave>3</octave>
          </pitch>
        <duration>1</duration>
        <voice>1</voice>
        <type>eighth</type>
        <stem>down</stem>
        <beam number="1">end</beam>
        <notations>
          <slur type="stop" number="1" bezier-x="-21.040799" bezier-y="18.818352"/>
          <technical>
            <fingering default-x="6.5" default-y="16.04">0</fingering>
            </technical>
          </notations>
        </note>
      </measure>
    <measure number="4" width="221.15">
      <note default-x="12.5" default-y="15">
        <pitch>
          <step>D</step>
          <octave>4</octave>
          </pitch>
        <duration>1</duration>
        <voice>1</voice>
        <type>eighth</type>
        <stem>down</stem>
        <beam number="1">begin</beam>
        <notations>
          <slur type="start" bezier-x="22.033837" bezier-y="16.662628" number="1"/>
          <technical>
            <fingering default-x="6.5" default-y="15.84">2</fingering>
            </technical>
          </notations>
        </note>
      <note default-x="42.05" default-y="10">
        <pitch>
          <step>C</step>
          <alter>1</alter>
          <octave>4</octave>
          </pitch>
        <duration>1</duration>
        <voice>1</voice>
        <type>eighth</type>
        <stem>down</stem>
        <beam number="1">continue</beam>
        <notations>
          <technical>
            <fingering default-x="6.5" default-y="16.04">1</fingering>
            </technical>
          </notations>
        </note>
      <note default-x="71.6" default-y="15">
        <pitch>
          <step>D</step>
          <octave>4</octave>
          </pitch>
        <duration>1</duration>
        <voice>1</voice>
        <type>eighth</type>
        <stem>down</stem>
        <beam number="1">continue</beam>
        <notations>
          <technical>
            <fingering default-x="6.5" default-y="15.84">2</fingering>
            </technical>
          </notations>
        </note>
      <note default-x="101.15" default-y="20">
        <pitch>
          <step>E</step>
          <octave>4</octave>
          </pitch>
        <duration>1</duration>
        <voice>1</voice>
        <type>eighth</type>
        <stem>down</stem>
        <beam number="1">end</beam>
        <notations>
          <slur type="stop" number="1" bezier-x="-23.767766" bezier-y="14.079291"/>
          <technical>
            <fingering default-x="6.5" default-y="16.04">4</fingering>
            </technical>
          </notations>
        </note>
      <note default-x="130.7" default-y="15">
        <pitch>
          <step>D</step>
          <octave>4</octave>
          </pitch>
        <duration>2</duration>
        <voice>1</voice>
        <type>quarter</type>
        <stem>down</stem>
        <notations>
          <slur type="start" bezier-x="18.466552" bezier-y="1.621056" number="1"/>
          <technical>
            <fingering default-x="6.5" default-y="15.84">2</fingering>
            </technical>
          </notations>
        </note>
      <note default-x="175.02" default-y="-20">
        <pitch>
          <step>D</step>
          <octave>3</octave>
          </pitch>
        <duration>2</duration>
        <voice>1</voice>
        <type>quarter</type>
        <stem>down</stem>
        <notations>
          <slur type="stop" number="1" bezier-x="-4.43425" bezier-y="17.999411"/>
          <technical>
            <fingering default-x="6.5" default-y="30.85">0</fingering>
            </technical>
          </notations>
        </note>
      </measure>
    <measure number="5" width="313.66">
      <print new-system="yes">
        <system-layout>
          <system-margins>
            <left-margin>0</left-margin>
            <right-margin>0</right-margin>
            </system-margins>
          <system-distance>185</system-distance>
          </system-layout>
        </print>
      <direction placement="below">
        <direction-type>
          <dynamics default-x="5.32" default-y="-45.08" relative-y="-20">
            <mf/>
            </dynamics>
          </direction-type>
        <sound dynamics="88.89"/>
        </direction>
      <note default-x="87.27" default-y="-20">
        <pitch>
          <step>D</step>
          <octave>3</octave>
          </pitch>
        <duration>2</duration>
        <voice>1</voice>
        <type>quarter</type>
        <stem>down</stem>
        <notations>
          <slur type="start" bezier-x="5.610154" bezier-y="18.547227" number="1"/>
          <technical>
            <fingering default-x="6.5" default-y="30.85">0</fingering>
            </technical>
          </notations>
        </note>
      <note default-x="135.4" default-y="15">
        <pitch>
          <step>D</step>
          <octave>4</octave>
          </pitch>
        <duration>2</duration>
        <voice>1</voice>
        <type>quarter</type>
        <stem>down</stem>
        <notations>
          <slur type="stop" number="1" bezier-x="-19.255375" bezier-y="2.168873"/>
          <technical>
            <fingering default-x="6.5" default-y="15.84">2</fingering>
            </technical>
          </notations>
        </note>
      <note default-x="183.52" default-y="10">
        <pitch>
          <step>C</step>
          <alter>1</alter>
          <octave>4</octave>
          </pitch>
        <duration>1</duration>
        <voice>1</voice>
        <type>eighth</type>
        <stem>down</stem>
        <beam number="1">begin</beam>
        <notations>
          <slur type="start" bezier-x="23.935528" bezier-y="19.42209" number="1"/>
          <technical>
            <fingering default-x="6.5" default-y="16.04">1</fingering>
            </technical>
          </notations>
        </note>
      <note default-x="215.61" default-y="15">
        <pitch>
          <step>D</step>
          <octave>4</octave>
          </pitch>
        <duration>1</duration>
        <voice>1</voice>
        <type>eighth</type>
        <stem>down</stem>
        <beam number="1">continue</beam>
        <notations>
          <technical>
            <fingering default-x="6.5" default-y="15.84">2</fingering>
            </technical>
          </notations>
        </note>
      <note default-x="247.69" default-y="20">
        <pitch>
          <step>E</step>
          <octave>4</octave>
          </pitch>
        <duration>1</duration>
        <voice>1</voice>
        <type>eighth</type>
        <stem>down</stem>
        <beam number="1">continue</beam>
        <notations>
          <technical>
            <fingering default-x="6.5" default-y="16.24">h</fingering>
            </technical>
          </notations>
        </note>
      <note default-x="279.78" default-y="10">
        <pitch>
          <step>C</step>
          <alter>1</alter>
          <octave>4</octave>
          </pitch>
        <duration>1</duration>
        <voice>1</voice>
        <type>eighth</type>
        <stem>down</stem>
        <beam number="1">end</beam>
        <notations>
          <slur type="stop" number="1" bezier-x="-23.005527" bezier-y="19.164264"/>
          <technical>
            <fingering default-x="6.5" default-y="16.04">1</fingering>
            </technical>
          </notations>
        </note>
      </measure>
    <measure number="6" width="238.89">
      <note default-x="12.5" default-y="15">
        <pitch>
          <step>D</step>
          <octave>4</octave>
          </pitch>
        <duration>1</duration>
        <voice>1</voice>
        <type>eighth</type>
        <stem>down</stem>
        <beam number="1">begin</beam>
        <notations>
          <slur type="start" bezier-x="27.348597" bezier-y="12.058601" number="1"/>
          <technical>
            <fingering default-x="6.5" default-y="15.84">2</fingering>
            </technical>
          </notations>
        </note>
      <note default-x="44.58" default-y="-10">
        <pitch>
          <step>F</step>
          <alter>1</alter>
          <octave>3</octave>
          </pitch>
        <duration>1</duration>
        <voice>1</voice>
        <type>eighth</type>
        <stem>down</stem>
        <beam number="1">continue</beam>
        <notations>
          <technical>
            <fingering default-x="6.5" default-y="20.85">1</fingering>
            </technical>
          </notations>
        </note>
      <note default-x="76.67" default-y="-5">
        <pitch>
          <step>G</step>
          <octave>3</octave>
          </pitch>
        <duration>1</duration>
        <voice>1</voice>
        <type>eighth</type>
        <stem>down</stem>
        <beam number="1">continue</beam>
        <notations>
          <technical>
            <fingering default-x="6.5" default-y="15.84">2</fingering>
            </technical>
          </notations>
        </note>
      <note default-x="108.75" default-y="0">
        <pitch>
          <step>A</step>
          <octave>3</octave>
          </pitch>
        <duration>1</duration>
        <voice>1</voice>
        <type>eighth</type>
        <stem>down</stem>
        <beam number="1">end</beam>
        <notations>
          <slur type="stop" number="1" bezier-x="-22.382461" bezier-y="19.808611"/>
          <technical>
            <fingering default-x="6.5" default-y="16.04">4</fingering>
            </technical>
          </notations>
        </note>
      <note default-x="140.84" default-y="-10">
        <pitch>
          <step>F</step>
          <alter>1</alter>
          <octave>3</octave>
          </pitch>
        <duration>2</duration>
        <voice>1</voice>
        <type>quarter</type>
        <stem>down</stem>
        <notations>
          <slur type="start" bezier-x="14.763153" bezier-y="8.632072" number="1"/>
          <technical>
            <fingering default-x="6.5" default-y="20.85">1</fingering>
            </technical>
          </notations>
        </note>
      <note default-x="188.96" default-y="-20">
        <pitch>
          <step>D</step>
          <octave>3</octave>
          </pitch>
        <duration>2</duration>
        <voice>1</voice>
        <type>quarter</type>
        <stem>down</stem>
        <notations>
          <slur type="stop" number="1" bezier-x="-10.102376" bezier-y="13.798746"/>
          <technical>
            <fingering default-x="6.5" default-y="30.85">4</fingering>
            </technical>
          </notations>
        </note>
      </measure>
    <measure number="7" width="270.98">
      <note default-x="12.5" default-y="-20">
        <pitch>
          <step>D</step>
          <octave>3</octave>
          </pitch>
        <duration>1</duration>
        <voice>1</voice>
        <type>eighth</type>
        <stem>down</stem>
        <beam number="1">begin</beam>
        <notations>
          <slur type="start" bezier-x="24.400528" bezier-y="16.494477" number="1"/>
          <technical>
            <fingering default-x="6.5" default-y="30.85">0</fingering>
            </technical>
          </notations>
        </note>
      <note default-x="44.58" default-y="-15">
        <pitch>
          <step>E</step>
          <octave>3</octave>
          </pitch>
        <duration>1</duration>
        <voice>1</voice>
        <type>eighth</type>
        <stem>down</stem>
        <beam number="1">continue</beam>
        <notations>
          <technical>
            <fingering default-x="6.5" default-y="25.85">1</fingering>
            </technical>
          </notations>
        </note>
      <note default-x="76.67" default-y="-10">
        <pitch>
          <step>F</step>
          <alter>1</alter>
          <octave>3</octave>
          </pitch>
        <duration>1</duration>
        <voice>1</voice>
        <type>eighth</type>
        <stem>down</stem>
        <beam number="1">continue</beam>
        <notations>
          <technical>
            <fingering default-x="6.5" default-y="21.05">3</fingering>
            </technical>
          </notations>
        </note>
      <note default-x="108.75" default-y="-20">
        <pitch>
          <step>D</step>
          <octave>3</octave>
          </pitch>
        <duration>1</duration>
        <voice>1</voice>
        <type>eighth</type>
        <stem>down</stem>
        <beam number="1">end</beam>
        <notations>
          <slur type="stop" number="1" bezier-x="-23.935528" bezier-y="16.959478"/>
          <technical>
            <fingering default-x="6.5" default-y="30.85">0</fingering>
            </technical>
          </notations>
        </note>
      <note default-x="140.84" default-y="0">
        <pitch>
          <step>A</step>
          <octave>3</octave>
          </pitch>
        <duration>1</duration>
        <voice>1</voice>
        <type>eighth</type>
        <stem>down</stem>
        <beam number="1">begin</beam>
        <notations>
          <slur type="start" bezier-x="23.935528" bezier-y="19.42209" number="1"/>
          <technical>
            <fingering default-x="6.5" default-y="16.04">0</fingering>
            </technical>
          </notations>
        </note>
      <note default-x="172.92" default-y="5">
        <pitch>
          <step>B</step>
          <octave>3</octave>
          </pitch>
        <duration>1</duration>
        <voice>1</voice>
        <type>eighth</type>
        <stem>down</stem>
        <beam number="1">continue</beam>
        <notations>
          <technical>
            <fingering default-x="6.5" default-y="16.04">1</fingering>
            </technical>
          </notations>
        </note>
      <note default-x="205.01" default-y="10">
        <pitch>
          <step>C</step>
          <alter>1</alter>
          <octave>4</octave>
          </pitch>
        <duration>1</duration>
        <voice>1</voice>
        <type>eighth</type>
        <stem>down</stem>
        <beam number="1">continue</beam>
        <notations>
          <technical>
            <fingering default-x="6.5" default-y="16.24">3</fingering>
            </technical>
          </notations>
        </note>
      <note default-x="237.09" default-y="0">
        <pitch>
          <step>A</step>
          <octave>3</octave>
          </pitch>
        <duration>1</duration>
        <voice>1</voice>
        <type>eighth</type>
        <stem>down</stem>
        <beam number="1">end</beam>
        <notations>
          <slur type="stop" number="1" bezier-x="-23.005527" bezier-y="19.164264"/>
          <technical>
            <fingering default-x="6.5" default-y="16.04">0</fingering>
            </technical>
          </notations>
        </note>
      </measure>
    <measure number="8" width="238.89">
      <note default-x="12.5" default-y="15">
        <pitch>
          <step>D</step>
          <octave>4</octave>
          </pitch>
        <duration>1</duration>
        <voice>1</voice>
        <type>eighth</type>
        <stem>down</stem>
        <beam number="1">begin</beam>
        <notations>
          <slur type="start" bezier-x="24.03342" bezier-y="17.31035" number="1"/>
          <technical>
            <fingering default-x="6.5" default-y="15.84">2</fingering>
            </technical>
          </notations>
        </note>
      <note default-x="44.58" default-y="10">
        <pitch>
          <step>C</step>
          <alter>1</alter>
          <octave>4</octave>
          </pitch>
        <duration>1</duration>
        <voice>1</voice>
        <type>eighth</type>
        <stem>down</stem>
        <beam number="1">continue</beam>
        <notations>
          <technical>
            <fingering default-x="6.5" default-y="16.04">1</fingering>
            </technical>
          </notations>
        </note>
      <note default-x="76.67" default-y="15">
        <pitch>
          <step>D</step>
          <octave>4</octave>
          </pitch>
        <duration>1</duration>
        <voice>1</voice>
        <type>eighth</type>
        <stem>down</stem>
        <beam number="1">continue</beam>
        <notations>
          <technical>
            <fingering default-x="6.5" default-y="15.84">2</fingering>
            </technical>
          </notations>
        </note>
      <note default-x="108.75" default-y="20">
        <pitch>
          <step>E</step>
          <octave>4</octave>
          </pitch>
        <duration>1</duration>
        <voice>1</voice>
        <type>eighth</type>
        <stem>down</stem>
        <beam number="1">end</beam>
        <notations>
          <slur type="stop" number="1" bezier-x="-25.697638" bezier-y="14.727013"/>
          <technical>
            <fingering default-x="6.5" default-y="16.04">4</fingering>
            </technical>
          </notations>
        </note>
      <note default-x="140.84" default-y="15">
        <pitch>
          <step>D</step>
          <octave>4</octave>
          </pitch>
        <duration>2</duration>
        <voice>1</voice>
        <type>quarter</type>
        <stem>down</stem>
        <notations>
          <slur type="start" bezier-x="19.255375" bezier-y="2.168873" number="1"/>
          <technical>
            <fingering default-x="6.5" default-y="15.84">2</fingering>
            </technical>
          </notations>
        </note>
      <note default-x="188.96" default-y="-20">
        <pitch>
          <step>D</step>
          <octave>3</octave>
          </pitch>
        <duration>2</duration>
        <voice>1</voice>
        <type>quarter</type>
        <stem>down</stem>
        <notations>
          <slur type="stop" number="1" bezier-x="-5.610154" bezier-y="18.547227"/>
          <technical>
            <fingering default-x="6.5" default-y="30.85">0</fingering>
            </technical>
          </notations>
        </note>
      </measure>
    <measure number="9" width="337.19">
      <print new-system="yes">
        <system-layout>
          <system-margins>
            <left-margin>0</left-margin>
            <right-margin>0</right-margin>
            </system-margins>
          <system-distance>185</system-distance>
          </system-layout>
        </print>
      <direction placement="below">
        <direction-type>
          <dynamics default-x="3.09" default-y="-40" relative-y="-20">
            <p/>
            </dynamics>
          </direction-type>
        <sound dynamics="54.44"/>
        </direction>
      <note default-x="87.27" default-y="-5">
        <pitch>
          <step>G</step>
          <octave>3</octave>
          </pitch>
        <duration>1</duration>
        <voice>1</voice>
        <type>eighth</type>
        <stem>down</stem>
        <beam number="1">begin</beam>
        <notations>
          <slur type="start" bezier-x="21.184622" bezier-y="17.872242" number="1"/>
          <technical>
            <fingering default-x="6.5" default-y="15.84">2</fingering>
            </technical>
          </notations>
        </note>
      <note default-x="122.71" default-y="-10">
        <pitch>
          <step>F</step>
          <alter>1</alter>
          <octave>3</octave>
          </pitch>
        <duration>1</duration>
        <voice>1</voice>
        <type>eighth</type>
        <stem>down</stem>
        <beam number="1">continue</beam>
        <notations>
          <technical>
            <fingering default-x="6.5" default-y="20.85">1</fingering>
            </technical>
          </notations>
        </note>
      <note default-x="158.16" default-y="-5">
        <pitch>
          <step>G</step>
          <octave>3</octave>
          </pitch>
        <duration>1</duration>
        <voice>1</voice>
        <type>eighth</type>
        <stem>down</stem>
        <beam number="1">continue</beam>
        <notations>
          <technical>
            <fingering default-x="6.5" default-y="15.84">2</fingering>
            </technical>
          </notations>
        </note>
      <note default-x="193.61" default-y="0">
        <pitch>
          <step>A</step>
          <octave>3</octave>
          </pitch>
        <duration>1</duration>
        <voice>1</voice>
        <type>eighth</type>
        <stem>down</stem>
        <beam number="1">end</beam>
        <notations>
          <slur type="stop" number="1" bezier-x="-22.76816" bezier-y="15.805573"/>
          <technical>
            <fingering default-x="6.5" default-y="16.04">4</fingering>
            </technical>
          </notations>
        </note>
      <note default-x="229.05" default-y="-5">
        <pitch>
          <step>G</step>
          <octave>3</octave>
          </pitch>
        <duration>2</duration>
        <voice>1</voice>
        <type>quarter</type>
        <stem>down</stem>
        <notations>
          <slur type="start" bezier-x="17.556919" bezier-y="7.090198" number="1"/>
          <technical>
            <fingering default-x="6.5" default-y="15.84">2</fingering>
            </technical>
          </notations>
        </note>
      <note default-x="282.22" default-y="-40">
        <pitch>
          <step>G</step>
          <octave>2</octave>
          </pitch>
        <duration>2</duration>
        <voice>1</voice>
        <type>quarter</type>
        <stem>up</stem>
        <notations>
          <slur type="stop" number="1" bezier-x="-9.91357" bezier-y="16.131876"/>
          <technical>
            <fingering default-x="6.5" default-y="50.85">0</fingering>
            </technical>
          </notations>
        </note>
      </measure>
    <measure number="10" width="262.42">
      <note default-x="12.5" default-y="-20">
        <pitch>
          <step>D</step>
          <octave>3</octave>
          </pitch>
        <duration>1</duration>
        <voice>1</voice>
        <type>eighth</type>
        <stem>down</stem>
        <beam number="1">begin</beam>
        <notations>
          <slur type="start" bezier-x="21.976391" bezier-y="16.848207" number="1"/>
          <technical>
            <fingering default-x="6.5" default-y="30.85">0</fingering>
            </technical>
          </notations>
        </note>
      <note default-x="47.95" default-y="-15">
        <pitch>
          <step>E</step>
          <octave>3</octave>
          </pitch>
        <duration>1</duration>
        <voice>1</voice>
        <type>eighth</type>
        <stem>down</stem>
        <beam number="1">continue</beam>
        <notations>
          <technical>
            <fingering default-x="6.5" default-y="25.85">1</fingering>
            </technical>
          </notations>
        </note>
      <note default-x="83.39" default-y="-10">
        <pitch>
          <step>F</step>
          <alter>1</alter>
          <octave>3</octave>
          </pitch>
        <duration>1</duration>
        <voice>1</voice>
        <type>eighth</type>
        <stem>down</stem>
        <beam number="1">continue</beam>
        <notations>
          <technical>
            <fingering default-x="6.5" default-y="21.05">3</fingering>
            </technical>
          </notations>
        </note>
      <note default-x="118.84" default-y="-20">
        <pitch>
          <step>D</step>
          <octave>3</octave>
          </pitch>
        <duration>1</duration>
        <voice>1</voice>
        <type>eighth</type>
        <stem>down</stem>
        <beam number="1">end</beam>
        <notations>
          <slur type="stop" number="1" bezier-x="-21.976391" bezier-y="16.848207"/>
          <technical>
            <fingering default-x="6.5" default-y="30.85">0</fingering>
            </technical>
          </notations>
        </note>
      <note default-x="154.28" default-y="-5">
        <pitch>
          <step>G</step>
          <octave>3</octave>
          </pitch>
        <duration>2</duration>
        <voice>1</voice>
        <type>quarter</type>
        <stem>down</stem>
        <notations>
          <slur type="start" bezier-x="17.556919" bezier-y="7.090198" number="1"/>
          <technical>
            <fingering default-x="6.5" default-y="16.04">4</fingering>
            </technical>
          </notations>
        </note>
      <note default-x="207.45" default-y="-40">
        <pitch>
          <step>G</step>
          <octave>2</octave>
          </pitch>
        <duration>2</duration>
        <voice>1</voice>
        <type>quarter</type>
        <stem>up</stem>
        <notations>
          <slur type="stop" number="1" bezier-x="-9.91357" bezier-y="16.131876"/>
          <technical>
            <fingering default-x="6.5" default-y="50.85">0</fingering>
            </technical>
          </notations>
        </note>
      </measure>
    <measure number="11" width="262.42">
      <note default-x="12.5" default-y="-5">
        <pitch>
          <step>G</step>
          <octave>3</octave>
          </pitch>
        <duration>1</duration>
        <voice>1</voice>
        <type>eighth</type>
        <stem>down</stem>
        <beam number="1">begin</beam>
        <notations>
          <slur type="start" bezier-x="21.184622" bezier-y="17.872242" number="1"/>
          <technical>
            <fingering default-x="6.5" default-y="15.84">2</fingering>
            </technical>
          </notations>
        </note>
      <note default-x="47.95" default-y="-10">
        <pitch>
          <step>F</step>
          <alter>1</alter>
          <octave>3</octave>
          </pitch>
        <duration>1</duration>
        <voice>1</voice>
        <type>eighth</type>
        <stem>down</stem>
        <beam number="1">continue</beam>
        <notations>
          <technical>
            <fingering default-x="6.5" default-y="20.85">1</fingering>
            </technical>
          </notations>
        </note>
      <note default-x="83.39" default-y="-5">
        <pitch>
          <step>G</step>
          <octave>3</octave>
          </pitch>
        <duration>1</duration>
        <voice>1</voice>
        <type>eighth</type>
        <stem>down</stem>
        <beam number="1">continue</beam>
        <notations>
          <technical>
            <fingering default-x="6.5" default-y="15.84">2</fingering>
            </technical>
          </notations>
        </note>
      <note default-x="118.84" default-y="0">
        <pitch>
          <step>A</step>
          <octave>3</octave>
          </pitch>
        <duration>1</duration>
        <voice>1</voice>
        <type>eighth</type>
        <stem>down</stem>
        <beam number="1">end</beam>
        <notations>
          <slur type="stop" number="1" bezier-x="-22.76816" bezier-y="15.805573"/>
          <technical>
            <fingering default-x="6.5" default-y="16.04">4</fingering>
            </technical>
          </notations>
        </note>
      <note default-x="154.28" default-y="-5">
        <pitch>
          <step>G</step>
          <octave>3</octave>
          </pitch>
        <duration>2</duration>
        <voice>1</voice>
        <type>quarter</type>
        <stem>down</stem>
        <notations>
          <slur type="start" bezier-x="17.556919" bezier-y="7.090198" number="1"/>
          <technical>
            <fingering default-x="6.5" default-y="15.84">2</fingering>
            </technical>
          </notations>
        </note>
      <note default-x="207.45" default-y="-40">
        <pitch>
          <step>G</step>
          <octave>2</octave>
          </pitch>
        <duration>2</duration>
        <voice>1</voice>
        <type>quarter</type>
        <stem>up</stem>
        <notations>
          <slur type="stop" number="1" bezier-x="-9.91357" bezier-y="16.131876"/>
          <technical>
            <fingering default-x="6.5" default-y="50.85">0</fingering>
            </technical>
          </notations>
        </note>
      </measure>
    <measure number="12" width="200.39">
      <note default-x="12.5" default-y="-30">
        <pitch>
          <step>B</step>
          <octave>2</octave>
          </pitch>
        <duration>2</duration>
        <voice>1</voice>
        <type>quarter</type>
        <stem>up</stem>
        <notations>
          <slur type="start" bezier-x="15.583863" bezier-y="-9.697817" number="1"/>
          <technical>
            <fingering default-x="6.5" default-y="40.85">1</fingering>
            </technical>
          </notations>
        </note>
      <note default-x="65.67" default-y="-25">
        <pitch>
          <step>C</step>
          <alter>1</alter>
          <octave>3</octave>
          </pitch>
        <duration>2</duration>
        <voice>1</voice>
        <type>quarter</type>
        <stem>up</stem>
        <notations>
          <slur type="stop" number="1" bezier-x="-11.886626" bezier-y="-13.986155"/>
          <technical>
            <fingering default-x="6.5" default-y="36.05">3</fingering>
            </technical>
          </notations>
        </note>
      <note default-x="118.84" default-y="-20">
        <pitch>
          <step>D</step>
          <octave>3</octave>
          </pitch>
        <duration>4</duration>
        <voice>1</voice>
        <type>half</type>
        <stem>down</stem>
        <notations>
          <technical>
            <fingering default-x="6.5" default-y="30.85">4</fingering>
            </technical>
          </notations>
        </note>
      </measure>
    <measure number="13" width="311.44">
      <print new-system="yes">
        <system-layout>
          <system-margins>
            <left-margin>0</left-margin>
            <right-margin>0</right-margin>
            </system-margins>
          <system-distance>185</system-distance>
          </system-layout>
        </print>
      <direction placement="below">
        <direction-type>
          <dynamics default-x="5.32" default-y="-45.08" relative-y="-20">
            <mf/>
            </dynamics>
          </direction-type>
        <sound dynamics="88.89"/>
        </direction>
      <note default-x="87.27" default-y="-20">
        <pitch>
          <step>D</step>
          <octave>3</octave>
          </pitch>
        <duration>2</duration>
        <voice>1</voice>
        <type>quarter</type>
        <stem>down</stem>
        <notations>
          <slur type="start" bezier-x="5.463613" bezier-y="18.480301" number="1"/>
          <technical>
            <fingering default-x="6.5" default-y="30.85">0</fingering>
            </technical>
          </notations>
        </note>
      <note default-x="134.92" default-y="15">
        <pitch>
          <step>D</step>
          <octave>4</octave>
          </pitch>
        <duration>2</duration>
        <voice>1</voice>
        <type>quarter</type>
        <stem>down</stem>
        <notations>
          <slur type="stop" number="1" bezier-x="-19.156054" bezier-y="2.101947"/>
          <technical>
            <fingering default-x="6.5" default-y="15.84">2</fingering>
            </technical>
          </notations>
        </note>
      <note default-x="182.57" default-y="10">
        <pitch>
          <step>C</step>
          <alter>1</alter>
          <octave>4</octave>
          </pitch>
        <duration>1</duration>
        <voice>1</voice>
        <type>eighth</type>
        <stem>down</stem>
        <beam number="1">begin</beam>
        <notations>
          <slur type="start" bezier-x="23.689665" bezier-y="19.038326" number="1"/>
          <technical>
            <fingering default-x="6.5" default-y="16.04">1</fingering>
            </technical>
          </notations>
        </note>
      <note default-x="214.34" default-y="15">
        <pitch>
          <step>D</step>
          <octave>4</octave>
          </pitch>
        <duration>1</duration>
        <voice>1</voice>
        <type>eighth</type>
        <stem>down</stem>
        <beam number="1">continue</beam>
        <notations>
          <technical>
            <fingering default-x="6.5" default-y="15.84">2</fingering>
            </technical>
          </notations>
        </note>
      <note default-x="246.11" default-y="20">
        <pitch>
          <step>E</step>
          <octave>4</octave>
          </pitch>
        <duration>1</duration>
        <voice>1</voice>
        <type>eighth</type>
        <stem>down</stem>
        <beam number="1">continue</beam>
        <notations>
          <technical>
            <fingering default-x="6.5" default-y="16.24">h</fingering>
            </technical>
          </notations>
        </note>
      <note default-x="277.87" default-y="10">
        <pitch>
          <step>C</step>
          <alter>1</alter>
          <octave>4</octave>
          </pitch>
        <duration>1</duration>
        <voice>1</voice>
        <type>eighth</type>
        <stem>down</stem>
        <beam number="1">end</beam>
        <notations>
          <slur type="stop" number="1" bezier-x="-22.759664" bezier-y="19.383457"/>
          <technical>
            <fingering default-x="6.5" default-y="16.04">1</fingering>
            </technical>
          </notations>
        </note>
      </measure>
    <measure number="14" width="236.67">
      <note default-x="12.5" default-y="15">
        <pitch>
          <step>D</step>
          <octave>4</octave>
          </pitch>
        <duration>1</duration>
        <voice>1</voice>
        <type>eighth</type>
        <stem>down</stem>
        <beam number="1">begin</beam>
        <notations>
          <slur type="start" bezier-x="27.114806" bezier-y="11.977747" number="1"/>
          <technical>
            <fingering default-x="6.5" default-y="15.84">2</fingering>
            </technical>
          </notations>
        </note>
      <note default-x="44.27" default-y="-10">
        <pitch>
          <step>F</step>
          <alter>1</alter>
          <octave>3</octave>
          </pitch>
        <duration>1</duration>
        <voice>1</voice>
        <type>eighth</type>
        <stem>down</stem>
        <beam number="1">continue</beam>
        <notations>
          <technical>
            <fingering default-x="6.5" default-y="20.85">1</fingering>
            </technical>
          </notations>
        </note>
      <note default-x="76.03" default-y="-5">
        <pitch>
          <step>G</step>
          <octave>3</octave>
          </pitch>
        <duration>1</duration>
        <voice>1</voice>
        <type>eighth</type>
        <stem>down</stem>
        <beam number="1">continue</beam>
        <notations>
          <technical>
            <fingering default-x="6.5" default-y="15.84">2</fingering>
            </technical>
          </notations>
        </note>
      <note default-x="107.8" default-y="0">
        <pitch>
          <step>A</step>
          <octave>3</octave>
          </pitch>
        <duration>1</duration>
        <voice>1</voice>
        <type>eighth</type>
        <stem>down</stem>
        <beam number="1">end</beam>
        <notations>
          <slur type="stop" number="1" bezier-x="-22.124528" bezier-y="19.727756"/>
          <technical>
            <fingering default-x="6.5" default-y="16.04">4</fingering>
            </technical>
          </notations>
        </note>
      <note default-x="139.57" default-y="-10">
        <pitch>
          <step>F</step>
          <alter>1</alter>
          <octave>3</octave>
          </pitch>
        <duration>2</duration>
        <voice>1</voice>
        <type>quarter</type>
        <stem>down</stem>
        <notations>
          <slur type="start" bezier-x="14.651343" bezier-y="8.574171" number="1"/>
          <technical>
            <fingering default-x="6.5" default-y="20.85">1</fingering>
            </technical>
          </notations>
        </note>
      <note default-x="187.22" default-y="-20">
        <pitch>
          <step>D</step>
          <octave>3</octave>
          </pitch>
        <duration>2</duration>
        <voice>1</voice>
        <type>quarter</type>
        <stem>down</stem>
        <notations>
          <slur type="stop" number="1" bezier-x="-9.968323" bezier-y="13.740844"/>
          <technical>
            <fingering default-x="6.5" default-y="30.85">4</fingering>
            </technical>
          </notations>
        </note>
      </measure>
    <measure number="15" width="268.44">
      <note default-x="12.5" default-y="-20">
        <pitch>
          <step>D</step>
          <octave>3</octave>
          </pitch>
        <duration>1</duration>
        <voice>1</voice>
        <type>eighth</type>
        <stem>down</stem>
        <beam number="1">begin</beam>
        <notations>
          <slur type="start" bezier-x="24.154666" bezier-y="16.415033" number="1"/>
          <technical>
            <fingering default-x="6.5" default-y="30.85">0</fingering>
            </technical>
          </notations>
        </note>
      <note default-x="44.27" default-y="-15">
        <pitch>
          <step>E</step>
          <octave>3</octave>
          </pitch>
        <duration>1</duration>
        <voice>1</voice>
        <type>eighth</type>
        <stem>down</stem>
        <beam number="1">continue</beam>
        <notations>
          <technical>
            <fingering default-x="6.5" default-y="25.85">1</fingering>
            </technical>
          </notations>
        </note>
      <note default-x="76.03" default-y="-10">
        <pitch>
          <step>F</step>
          <alter>1</alter>
          <octave>3</octave>
          </pitch>
        <duration>1</duration>
        <voice>1</voice>
        <type>eighth</type>
        <stem>down</stem>
        <beam number="1">continue</beam>
        <notations>
          <technical>
            <fingering default-x="6.5" default-y="21.05">3</fingering>
            </technical>
          </notations>
        </note>
      <note default-x="107.8" default-y="-20">
        <pitch>
          <step>D</step>
          <octave>3</octave>
          </pitch>
        <duration>1</duration>
        <voice>1</voice>
        <type>eighth</type>
        <stem>down</stem>
        <beam number="1">end</beam>
        <notations>
          <slur type="stop" number="1" bezier-x="-23.689665" bezier-y="16.880034"/>
          <technical>
            <fingering default-x="6.5" default-y="30.85">1</fingering>
            </technical>
          </notations>
        </note>
      <note default-x="139.57" default-y="0">
        <pitch>
          <step>A</step>
          <octave>3</octave>
          </pitch>
        <duration>1</duration>
        <voice>1</voice>
        <type>eighth</type>
        <stem>down</stem>
        <beam number="1">begin</beam>
        <notations>
          <slur type="start" bezier-x="23.689665" bezier-y="19.038326" number="1"/>
          <technical>
            <fingering default-x="6.5" default-y="16.04">0</fingering>
            </technical>
          </notations>
        </note>
      <note default-x="171.34" default-y="5">
        <pitch>
          <step>B</step>
          <octave>3</octave>
          </pitch>
        <duration>1</duration>
        <voice>1</voice>
        <type>eighth</type>
        <stem>down</stem>
        <beam number="1">continue</beam>
        <notations>
          <technical>
            <fingering default-x="6.5" default-y="16.04">1</fingering>
            </technical>
          </notations>
        </note>
      <note default-x="203.1" default-y="10">
        <pitch>
          <step>C</step>
          <alter>1</alter>
          <octave>4</octave>
          </pitch>
        <duration>1</duration>
        <voice>1</voice>
        <type>eighth</type>
        <stem>down</stem>
        <beam number="1">continue</beam>
        <notations>
          <technical>
            <fingering default-x="6.5" default-y="16.24">3</fingering>
            </technical>
          </notations>
        </note>
      <note default-x="234.87" default-y="0">
        <pitch>
          <step>A</step>
          <octave>3</octave>
          </pitch>
        <duration>1</duration>
        <voice>1</voice>
        <type>eighth</type>
        <stem>down</stem>
        <beam number="1">end</beam>
        <notations>
          <slur type="stop" number="1" bezier-x="-22.759664" bezier-y="19.383457"/>
          <technical>
            <fingering default-x="6.5" default-y="16.04">1</fingering>
            </technical>
          </notations>
        </note>
      </measure>
    <measure number="16" width="245.87">
      <note default-x="12.5" default-y="15">
        <pitch>
          <step>D</step>
          <octave>4</octave>
          </pitch>
        <duration>1</duration>
        <voice>1</voice>
        <type>eighth</type>
        <stem>down</stem>
        <beam number="1">begin</beam>
        <notations>
          <slur type="start" bezier-x="23.783425" bezier-y="17.230744" number="1"/>
          <technical>
            <fingering default-x="6.5" default-y="15.84">2</fingering>
            </technical>
          </notations>
        </note>
      <note default-x="44.27" default-y="10">
        <pitch>
          <step>C</step>
          <alter>1</alter>
          <octave>4</octave>
          </pitch>
        <duration>1</duration>
        <voice>1</voice>
        <type>eighth</type>
        <stem>down</stem>
        <beam number="1">continue</beam>
        <notations>
          <technical>
            <fingering default-x="6.5" default-y="16.04">1</fingering>
            </technical>
          </notations>
        </note>
      <note default-x="76.03" default-y="15">
        <pitch>
          <step>D</step>
          <octave>4</octave>
          </pitch>
        <duration>1</duration>
        <voice>1</voice>
        <type>eighth</type>
        <stem>down</stem>
        <beam number="1">continue</beam>
        <notations>
          <technical>
            <fingering default-x="6.5" default-y="15.84">2</fingering>
            </technical>
          </notations>
        </note>
      <note default-x="107.8" default-y="20">
        <pitch>
          <step>E</step>
          <octave>4</octave>
          </pitch>
        <duration>1</duration>
        <voice>1</voice>
        <type>eighth</type>
        <stem>down</stem>
        <beam number="1">end</beam>
        <notations>
          <slur type="stop" number="1" bezier-x="-25.455909" bezier-y="14.647407"/>
          <technical>
            <fingering default-x="6.5" default-y="16.04">4</fingering>
            </technical>
          </notations>
        </note>
      <note default-x="139.57" default-y="15">
        <pitch>
          <step>D</step>
          <octave>4</octave>
          </pitch>
        <duration>2</duration>
        <voice>1</voice>
        <type>quarter</type>
        <stem>down</stem>
        <notations>
          <slur type="start" bezier-x="19.156054" bezier-y="2.101947" number="1"/>
          <technical>
            <fingering default-x="6.5" default-y="15.84">2</fingering>
            </technical>
          </notations>
        </note>
      <note default-x="187.22" default-y="-20">
        <pitch>
          <step>D</step>
          <octave>3</octave>
          </pitch>
        <duration>2</duration>
        <voice>1</voice>
        <type>quarter</type>
        <stem>down</stem>
        <notations>
          <slur type="stop" number="1" bezier-x="-5.463613" bezier-y="18.480301"/>
          <technical>
            <fingering default-x="6.5" default-y="30.85">0</fingering>
            </technical>
          </notations>
        </note>
      <barline location="right">
        <bar-style>light-heavy</bar-style>
        </barline>
      </measure>
    </part>
  </score-partwise>
