<?xml version="1.0" encoding="UTF-8"?>
<!DOCTYPE score-partwise PUBLIC "-//Recordare//DTD MusicXML 4.0 Partwise//EN" "http://www.musicxml.org/dtds/partwise.dtd">
<score-partwise version="4.0">
  <work>
    <work-title>Untitled score</work-title>
    </work>
  <identification>
    <creator type="composer">Composer / arranger</creator>
    <encoding>
      <software>MuseScore Studio 4.6.3</software>
      <encoding-date>2026-05-30</encoding-date>
      <supports element="accidental" type="yes"/>
      <supports element="beam" type="yes"/>
      <supports element="print" attribute="new-page" type="yes" value="yes"/>
      <supports element="print" attribute="new-system" type="yes" value="yes"/>
      <supports element="stem" type="yes"/>
      </encoding>
    <miscellaneous>
      <miscellaneous-field name="creationDate">2026-05-30</miscellaneous-field>
      <miscellaneous-field name="platform">Linux</miscellaneous-field>
      <miscellaneous-field name="subtitle">Subtitle</miscellaneous-field>
      </miscellaneous>
    </identification>
  <defaults>
    <scaling>
      <millimeters>6.99912</millimeters>
      <tenths>40</tenths>
      </scaling>
    <page-layout>
      <page-height>1596.77</page-height>
      <page-width>1233.87</page-width>
      <page-margins type="even">
        <left-margin>85.725</left-margin>
        <right-margin>85.725</right-margin>
        <top-margin>85.725</top-margin>
        <bottom-margin>85.725</bottom-margin>
        </page-margins>
      <page-margins type="odd">
        <left-margin>85.725</left-margin>
        <right-margin>85.725</right-margin>
        <top-margin>85.725</top-margin>
        <bottom-margin>85.725</bottom-margin>
        </page-margins>
      </page-layout>
    <appearance>
      <line-width type="light barline">1.8</line-width>
      <line-width type="heavy barline">5.5</line-width>
      <line-width type="beam">5</line-width>
      <line-width type="bracket">4.5</line-width>
      <line-width type="dashes">1</line-width>
      <line-width type="enclosure">1</line-width>
      <line-width type="ending">1.1</line-width>
      <line-width type="extend">1</line-width>
      <line-width type="leger">1.6</line-width>
      <line-width type="pedal">1.1</line-width>
      <line-width type="octave shift">1.1</line-width>
      <line-width type="slur middle">2.1</line-width>
      <line-width type="slur tip">0.5</line-width>
      <line-width type="staff">1.1</line-width>
      <line-width type="stem">1</line-width>
      <line-width type="tie middle">2.1</line-width>
      <line-width type="tie tip">0.5</line-width>
      <line-width type="tuplet bracket">1</line-width>
      <line-width type="wedge">1.2</line-width>
      <note-size type="cue">70</note-size>
      <note-size type="grace">70</note-size>
      <note-size type="grace-cue">49</note-size>
      </appearance>
    <music-font font-family="Leland"/>
    <word-font font-family="Edwin" font-size="10"/>
    <lyric-font font-family="Edwin" font-size="10"/>
    </defaults>
  <credit page="1">
    <credit-type>title</credit-type>
    <credit-words default-x="616.9347" default-y="1511.047129" justify="center" valign="top" font-size="22"> Trio Sonata in D Minor
</credit-words>
    <credit-words></credit-words>
    </credit>
  <credit page="1">
    <credit-type>subtitle</credit-type>
    <credit-words default-x="616.9347" default-y="1453.897088" justify="center" valign="top" font-size="14">La Follia RV 63</credit-words>
    </credit>
  <credit page="1">
    <credit-type>composer</credit-type>
    <credit-words default-x="1148.144364" default-y="1411.047256" justify="right" valign="bottom">Antonio Vivaldi
</credit-words>
    <credit-words>(1678-1741)
</credit-words>
    <credit-words>arr. Arpad Pejtsik</credit-words>
    </credit>
  <part-list>
    <score-part id="P1">
      <part-name>Violoncello</part-name>
      <part-abbreviation>Vc.</part-abbreviation>
      <score-instrument id="P1-I1">
        <instrument-name>Violoncello</instrument-name>
        <instrument-sound>strings.cello</instrument-sound>
        </score-instrument>
      <midi-device id="P1-I1" port="1"></midi-device>
      <midi-instrument id="P1-I1">
        <midi-channel>1</midi-channel>
        <midi-program>43</midi-program>
        <volume>78.7402</volume>
        <pan>0</pan>
        </midi-instrument>
      </score-part>
    </part-list>
  <part id="P1">
    <measure number="1" width="268.15">
      <print>
        <system-layout>
          <system-margins>
            <left-margin>50</left-margin>
            <right-margin>0</right-margin>
            </system-margins>
          <top-system-distance>228.03</top-system-distance>
          </system-layout>
        </print>
      <attributes>
        <divisions>4</divisions>
        <key>
          <fifths>-1</fifths>
          </key>
        <time>
          <beats>3</beats>
          <beat-type>4</beat-type>
          </time>
        <clef>
          <sign>F</sign>
          <line>4</line>
          </clef>
        </attributes>
      <direction placement="above" system="only-top">
        <direction-type>
          <words default-x="-37.67" default-y="40.29" relative-y="20" font-weight="bold" font-size="12">Adagio</words>
          </direction-type>
        <sound tempo="71"/>
        </direction>
      <direction placement="above" system="only-top">
        <direction-type>
          <metronome parentheses="no" default-x="-37.67" default-y="65.45" relative-y="20">
            <beat-unit>quarter</beat-unit>
            <per-minute>66</per-minute>
            </metronome>
          </direction-type>
        <direction-type>
          <words default-x="-37.67" default-y="65.45" relative-y="20" font-weight="bold" font-size="12">-72</words>
          </direction-type>
        <sound tempo="66"/>
        </direction>
      <direction placement="below">
        <direction-type>
          <dynamics default-x="2.31" default-y="-42.47" relative-y="-20">
            <f/>
            </dynamics>
          </direction-type>
        <sound dynamics="106.67"/>
        </direction>
      <note default-x="96.79" default-y="15">
        <pitch>
          <step>D</step>
          <octave>4</octave>
          </pitch>
        <duration>4</duration>
        <voice>1</voice>
        <type>quarter</type>
        <stem>down</stem>
        <notations>
          <technical>
            <down-bow default-x="0.2" default-y="24.3"/>
            <fingering default-x="6.5" default-y="29.4">2</fingering>
            </technical>
          </notations>
        </note>
      <note default-x="154.63" default-y="15">
        <pitch>
          <step>D</step>
          <octave>4</octave>
          </pitch>
        <duration>6</duration>
        <voice>1</voice>
        <type>quarter</type>
        <dot default-x="172.62" default-y="15"/>
        <stem>down</stem>
        <notations>
          <slur type="start" bezier-x="18.189958" bezier-y="13.709965" number="1"/>
          <technical>
            <up-bow default-x="1.26" default-y="31.44"/>
            <fingering default-x="6.5" default-y="31.48">2</fingering>
            </technical>
          </notations>
        </note>
      <note default-x="225.04" default-y="15">
        <pitch>
          <step>D</step>
          <octave>4</octave>
          </pitch>
        <duration>2</duration>
        <voice>1</voice>
        <type>eighth</type>
        <stem>down</stem>
        <notations>
          <slur type="stop" number="1" bezier-x="-18.189958" bezier-y="13.709965"/>
          <technical>
            <up-bow default-x="1.26" default-y="31.44"/>
            <fingering default-x="6.5" default-y="31.48">2</fingering>
            </technical>
          </notations>
        </note>
      </measure>
    <measure number="2" width="192.71">
      <note default-x="21.36" default-y="10">
        <pitch>
          <step>C</step>
          <alter>1</alter>
          <octave>4</octave>
          </pitch>
        <duration>4</duration>
        <voice>1</voice>
        <type>quarter</type>
        <accidental>sharp</accidental>
        <stem>down</stem>
        <notations>
          <technical>
            <down-bow default-x="0.2" default-y="19.3"/>
            <fingering default-x="6.5" default-y="29.7">1</fingering>
            </technical>
          </notations>
        </note>
      <note default-x="79.19" default-y="10">
        <pitch>
          <step>C</step>
          <alter>1</alter>
          <octave>4</octave>
          </pitch>
        <duration>6</duration>
        <voice>1</voice>
        <type>quarter</type>
        <dot default-x="97.18" default-y="15"/>
        <stem>down</stem>
        <notations>
          <slur type="start" bezier-x="18.189958" bezier-y="13.709965" number="1"/>
          <technical>
            <up-bow default-x="1.26" default-y="26.44"/>
            <fingering default-x="6.5" default-y="31.79">1</fingering>
            </technical>
          </notations>
        </note>
      <note default-x="149.6" default-y="10">
        <pitch>
          <step>C</step>
          <alter>1</alter>
          <octave>4</octave>
          </pitch>
        <duration>2</duration>
        <voice>1</voice>
        <type>eighth</type>
        <stem>down</stem>
        <notations>
          <slur type="stop" number="1" bezier-x="-18.189958" bezier-y="13.709965"/>
          <technical>
            <up-bow default-x="1.26" default-y="26.44"/>
            <fingering default-x="6.5" default-y="31.79">1</fingering>
            </technical>
          </notations>
        </note>
      </measure>
    <measure number="3" width="183.85">
      <note default-x="12.5" default-y="15">
        <pitch>
          <step>D</step>
          <octave>4</octave>
          </pitch>
        <duration>4</duration>
        <voice>1</voice>
        <type>quarter</type>
        <stem>down</stem>
        <notations>
          <technical>
            <down-bow default-x="0.2" default-y="24.3"/>
            <fingering default-x="6.5" default-y="29.4">2</fingering>
            </technical>
          </notations>
        </note>
      <note default-x="70.33" default-y="15">
        <pitch>
          <step>D</step>
          <octave>4</octave>
          </pitch>
        <duration>6</duration>
        <voice>1</voice>
        <type>quarter</type>
        <dot default-x="88.33" default-y="15"/>
        <stem>down</stem>
        <notations>
          <slur type="start" bezier-x="18.189958" bezier-y="13.709965" number="1"/>
          <technical>
            <up-bow default-x="1.26" default-y="31.44"/>
            <fingering default-x="6.5" default-y="31.79">1</fingering>
            </technical>
          </notations>
        </note>
      <note default-x="140.75" default-y="15">
        <pitch>
          <step>D</step>
          <octave>4</octave>
          </pitch>
        <duration>2</duration>
        <voice>1</voice>
        <type>eighth</type>
        <stem>down</stem>
        <notations>
          <slur type="stop" number="1" bezier-x="-18.189958" bezier-y="13.709965"/>
          <technical>
            <up-bow default-x="1.26" default-y="31.44"/>
            <fingering default-x="6.5" default-y="31.79">1</fingering>
            </technical>
          </notations>
        </note>
      </measure>
    <measure number="4" width="183.85">
      <note default-x="12.5" default-y="20">
        <pitch>
          <step>E</step>
          <octave>4</octave>
          </pitch>
        <duration>4</duration>
        <voice>1</voice>
        <type>quarter</type>
        <stem>down</stem>
        <notations>
          <technical>
            <down-bow default-x="0.2" default-y="29.3"/>
            <fingering default-x="6.5" default-y="30.01">3</fingering>
            </technical>
          </notations>
        </note>
      <note default-x="70.33" default-y="20">
        <pitch>
          <step>E</step>
          <octave>4</octave>
          </pitch>
        <duration>6</duration>
        <voice>1</voice>
        <type>quarter</type>
        <dot default-x="88.33" default-y="25"/>
        <stem>down</stem>
        <notations>
          <slur type="start" bezier-x="18.189958" bezier-y="13.709965" number="1"/>
          <technical>
            <up-bow default-x="1.26" default-y="36.44"/>
            <fingering default-x="6.5" default-y="32.09">3</fingering>
            </technical>
          </notations>
        </note>
      <note default-x="140.75" default-y="20">
        <pitch>
          <step>E</step>
          <octave>4</octave>
          </pitch>
        <duration>2</duration>
        <voice>1</voice>
        <type>eighth</type>
        <stem>down</stem>
        <notations>
          <slur type="stop" number="1" bezier-x="-18.189958" bezier-y="13.709965"/>
          <technical>
            <up-bow default-x="1.26" default-y="36.44"/>
            <fingering default-x="6.5" default-y="32.09">3</fingering>
            </technical>
          </notations>
        </note>
      </measure>
    <measure number="5" width="183.85">
      <note default-x="12.5" default-y="25">
        <pitch>
          <step>F</step>
          <octave>4</octave>
          </pitch>
        <duration>4</duration>
        <voice>1</voice>
        <type>quarter</type>
        <stem>down</stem>
        <notations>
          <technical>
            <down-bow default-x="0.2" default-y="34.3"/>
            <fingering default-x="6.5" default-y="29.7">4</fingering>
            </technical>
          </notations>
        </note>
      <note default-x="70.33" default-y="25">
        <pitch>
          <step>F</step>
          <octave>4</octave>
          </pitch>
        <duration>6</duration>
        <voice>1</voice>
        <type>quarter</type>
        <dot default-x="88.33" default-y="25"/>
        <stem>down</stem>
        <notations>
          <slur type="start" bezier-x="18.189958" bezier-y="13.709965" number="1"/>
          <technical>
            <up-bow default-x="1.26" default-y="41.44"/>
            <fingering default-x="6.5" default-y="31.79">4</fingering>
            </technical>
          </notations>
        </note>
      <note default-x="140.75" default-y="25">
        <pitch>
          <step>F</step>
          <octave>4</octave>
          </pitch>
        <duration>2</duration>
        <voice>1</voice>
        <type>eighth</type>
        <stem>down</stem>
        <notations>
          <slur type="stop" number="1" bezier-x="-18.189958" bezier-y="13.709965"/>
          <technical>
            <up-bow default-x="1.26" default-y="41.44"/>
            <fingering default-x="6.5" default-y="31.79">4</fingering>
            </technical>
          </notations>
        </note>
      </measure>
    <measure number="6" width="237.14">
      <print new-system="yes">
        <system-layout>
          <system-margins>
            <left-margin>0</left-margin>
            <right-margin>0</right-margin>
            </system-margins>
          <system-distance>177.41</system-distance>
          </system-layout>
        </print>
      <note default-x="74.67" default-y="20">
        <pitch>
          <step>E</step>
          <octave>4</octave>
          </pitch>
        <duration>4</duration>
        <voice>1</voice>
        <type>quarter</type>
        <stem>down</stem>
        <notations>
          <technical>
            <down-bow default-x="0.2" default-y="29.3"/>
            <fingering default-x="6.5" default-y="30.01">3</fingering>
            </technical>
          </notations>
        </note>
      <note default-x="129.48" default-y="20">
        <pitch>
          <step>E</step>
          <octave>4</octave>
          </pitch>
        <duration>6</duration>
        <voice>1</voice>
        <type>quarter</type>
        <dot default-x="147.47" default-y="25"/>
        <stem>down</stem>
        <notations>
          <slur type="start" bezier-x="17.236293" bezier-y="13.345733" number="1"/>
          <technical>
            <up-bow default-x="1.26" default-y="36.7"/>
            <fingering default-x="6.5" default-y="32.09">3</fingering>
            </technical>
          </notations>
        </note>
      <note default-x="196.2" default-y="20">
        <pitch>
          <step>E</step>
          <octave>4</octave>
          </pitch>
        <duration>2</duration>
        <voice>1</voice>
        <type>eighth</type>
        <stem>down</stem>
        <notations>
          <slur type="stop" number="1" bezier-x="-17.236293" bezier-y="13.345733"/>
          <technical>
            <up-bow default-x="1.26" default-y="36.7"/>
            <fingering default-x="6.5" default-y="32.09">3</fingering>
            </technical>
          </notations>
        </note>
      </measure>
    <measure number="7" width="174.96">
      <note default-x="12.5" default-y="15">
        <pitch>
          <step>D</step>
          <octave>4</octave>
          </pitch>
        <duration>4</duration>
        <voice>1</voice>
        <type>quarter</type>
        <stem>down</stem>
        <notations>
          <technical>
            <down-bow default-x="0.2" default-y="24.3"/>
            <fingering default-x="6.5" default-y="29.7">1</fingering>
            </technical>
          </notations>
        </note>
      <note default-x="67.3" default-y="15">
        <pitch>
          <step>D</step>
          <octave>4</octave>
          </pitch>
        <duration>6</duration>
        <voice>1</voice>
        <type>quarter</type>
        <dot default-x="85.29" default-y="15"/>
        <stem>down</stem>
        <notations>
          <slur type="start" bezier-x="17.236293" bezier-y="13.345733" number="1"/>
          <technical>
            <up-bow default-x="1.26" default-y="31.7"/>
            <fingering default-x="6.5" default-y="31.48">2</fingering>
            </technical>
          </notations>
        </note>
      <note default-x="134.02" default-y="15">
        <pitch>
          <step>D</step>
          <octave>4</octave>
          </pitch>
        <duration>2</duration>
        <voice>1</voice>
        <type>eighth</type>
        <stem>down</stem>
        <notations>
          <slur type="stop" number="1" bezier-x="-17.236293" bezier-y="13.345733"/>
          <technical>
            <up-bow default-x="1.26" default-y="31.7"/>
            <fingering default-x="6.5" default-y="31.48">2</fingering>
            </technical>
          </notations>
        </note>
      </measure>
    <measure number="8" width="116.57">
      <note default-x="21.36" default-y="10">
        <pitch>
          <step>C</step>
          <alter>1</alter>
          <octave>4</octave>
          </pitch>
        <duration>12</duration>
        <voice>1</voice>
        <type>half</type>
        <dot default-x="39.35" default-y="15"/>
        <accidental>sharp</accidental>
        <stem>down</stem>
        <notations>
          <technical>
            <down-bow default-x="0.2" default-y="19.34"/>
            <fingering default-x="6.5" default-y="29.75">1</fingering>
            </technical>
          </notations>
        </note>
      </measure>
    <measure number="9" width="174.96">
      <direction placement="below">
        <direction-type>
          <dynamics default-x="3.09" default-y="-40" relative-y="-20">
            <p/>
            </dynamics>
          </direction-type>
        <sound dynamics="54.44"/>
        </direction>
      <note default-x="12.5" default-y="15">
        <pitch>
          <step>D</step>
          <octave>4</octave>
          </pitch>
        <duration>4</duration>
        <voice>1</voice>
        <type>quarter</type>
        <stem>down</stem>
        <notations>
          <technical>
            <down-bow default-x="0.2" default-y="24.3"/>
            <fingering default-x="6.5" default-y="29.4">2</fingering>
            </technical>
          </notations>
        </note>
      <note default-x="67.3" default-y="15">
        <pitch>
          <step>D</step>
          <octave>4</octave>
          </pitch>
        <duration>6</duration>
        <voice>1</voice>
        <type>quarter</type>
        <dot default-x="85.29" default-y="15"/>
        <stem>down</stem>
        <notations>
          <slur type="start" bezier-x="17.236293" bezier-y="13.345733" number="1"/>
          <technical>
            <up-bow default-x="1.26" default-y="31.7"/>
            <fingering default-x="6.5" default-y="31.48">2</fingering>
            </technical>
          </notations>
        </note>
      <note default-x="134.02" default-y="15">
        <pitch>
          <step>D</step>
          <octave>4</octave>
          </pitch>
        <duration>2</duration>
        <voice>1</voice>
        <type>eighth</type>
        <stem>down</stem>
        <notations>
          <slur type="stop" number="1" bezier-x="-17.236293" bezier-y="13.345733"/>
          <technical>
            <up-bow default-x="1.26" default-y="31.7"/>
            <fingering default-x="6.5" default-y="31.48">2</fingering>
            </technical>
          </notations>
        </note>
      </measure>
    <measure number="10" width="183.82">
      <note default-x="21.36" default-y="10">
        <pitch>
          <step>C</step>
          <alter>1</alter>
          <octave>4</octave>
          </pitch>
        <duration>4</duration>
        <voice>1</voice>
        <type>quarter</type>
        <accidental>sharp</accidental>
        <stem>down</stem>
        <notations>
          <technical>
            <down-bow default-x="0.2" default-y="19.3"/>
            <fingering default-x="6.5" default-y="29.7">1</fingering>
            </technical>
          </notations>
        </note>
      <note default-x="76.16" default-y="10">
        <pitch>
          <step>C</step>
          <alter>1</alter>
          <octave>4</octave>
          </pitch>
        <duration>6</duration>
        <voice>1</voice>
        <type>quarter</type>
        <dot default-x="94.15" default-y="15"/>
        <stem>down</stem>
        <notations>
          <slur type="start" bezier-x="17.236293" bezier-y="13.345733" number="1"/>
          <technical>
            <up-bow default-x="1.26" default-y="26.7"/>
            <fingering default-x="6.5" default-y="31.79">1</fingering>
            </technical>
          </notations>
        </note>
      <note default-x="142.88" default-y="10">
        <pitch>
          <step>C</step>
          <alter>1</alter>
          <octave>4</octave>
          </pitch>
        <duration>2</duration>
        <voice>1</voice>
        <type>eighth</type>
        <stem>down</stem>
        <notations>
          <slur type="stop" number="1" bezier-x="-17.236293" bezier-y="13.345733"/>
          <technical>
            <up-bow default-x="1.26" default-y="26.7"/>
            <fingering default-x="6.5" default-y="31.79">1</fingering>
            </technical>
          </notations>
        </note>
      </measure>
    <measure number="11" width="174.96">
      <note default-x="12.5" default-y="15">
        <pitch>
          <step>D</step>
          <octave>4</octave>
          </pitch>
        <duration>4</duration>
        <voice>1</voice>
        <type>quarter</type>
        <stem>down</stem>
        <notations>
          <technical>
            <down-bow default-x="0.2" default-y="24.3"/>
            <fingering default-x="6.5" default-y="29.4">2</fingering>
            </technical>
          </notations>
        </note>
      <note default-x="67.3" default-y="15">
        <pitch>
          <step>D</step>
          <octave>4</octave>
          </pitch>
        <duration>6</duration>
        <voice>1</voice>
        <type>quarter</type>
        <dot default-x="85.29" default-y="15"/>
        <stem>down</stem>
        <notations>
          <slur type="start" bezier-x="17.236293" bezier-y="13.345733" number="1"/>
          <technical>
            <up-bow default-x="1.26" default-y="31.7"/>
            <fingering default-x="6.5" default-y="31.79">1</fingering>
            </technical>
          </notations>
        </note>
      <note default-x="134.02" default-y="15">
        <pitch>
          <step>D</step>
          <octave>4</octave>
          </pitch>
        <duration>2</duration>
        <voice>1</voice>
        <type>eighth</type>
        <stem>down</stem>
        <notations>
          <slur type="stop" number="1" bezier-x="-17.236293" bezier-y="13.345733"/>
          <technical>
            <up-bow default-x="1.26" default-y="31.7"/>
            <fingering default-x="6.5" default-y="31.79">1</fingering>
            </technical>
          </notations>
        </note>
      </measure>
    <measure number="12" width="260.76">
      <print new-system="yes">
        <system-layout>
          <system-margins>
            <left-margin>0</left-margin>
            <right-margin>0</right-margin>
            </system-margins>
          <system-distance>177.41</system-distance>
          </system-layout>
        </print>
      <note default-x="74.67" default-y="20">
        <pitch>
          <step>E</step>
          <octave>4</octave>
          </pitch>
        <duration>4</duration>
        <voice>1</voice>
        <type>quarter</type>
        <stem>down</stem>
        <notations>
          <technical>
            <down-bow default-x="0.2" default-y="29.3"/>
            <fingering default-x="6.5" default-y="30.01">3</fingering>
            </technical>
          </notations>
        </note>
      <note default-x="137.53" default-y="20">
        <pitch>
          <step>E</step>
          <octave>4</octave>
          </pitch>
        <duration>6</duration>
        <voice>1</voice>
        <type>quarter</type>
        <dot default-x="155.52" default-y="25"/>
        <stem>down</stem>
        <notations>
          <slur type="start" bezier-x="19.769815" bezier-y="14.292948" number="1"/>
          <technical>
            <up-bow default-x="1.26" default-y="36.91"/>
            <fingering default-x="6.5" default-y="32.09">3</fingering>
            </technical>
          </notations>
        </note>
      <note default-x="214.06" default-y="20">
        <pitch>
          <step>E</step>
          <octave>4</octave>
          </pitch>
        <duration>2</duration>
        <voice>1</voice>
        <type>eighth</type>
        <stem>down</stem>
        <notations>
          <slur type="stop" number="1" bezier-x="-19.769815" bezier-y="14.292948"/>
          <technical>
            <up-bow default-x="1.26" default-y="36.91"/>
            <fingering default-x="6.5" default-y="32.09">3</fingering>
            </technical>
          </notations>
        </note>
      </measure>
    <measure number="13" width="198.58">
      <note default-x="12.5" default-y="25">
        <pitch>
          <step>F</step>
          <octave>4</octave>
          </pitch>
        <duration>4</duration>
        <voice>1</voice>
        <type>quarter</type>
        <stem>down</stem>
        <notations>
          <technical>
            <down-bow default-x="0.2" default-y="34.3"/>
            <fingering default-x="6.5" default-y="29.7">4</fingering>
            </technical>
          </notations>
        </note>
      <note default-x="75.36" default-y="25">
        <pitch>
          <step>F</step>
          <octave>4</octave>
          </pitch>
        <duration>6</duration>
        <voice>1</voice>
        <type>quarter</type>
        <dot default-x="93.35" default-y="25"/>
        <stem>down</stem>
        <notations>
          <slur type="start" bezier-x="19.769815" bezier-y="14.292948" number="1"/>
          <technical>
            <up-bow default-x="1.26" default-y="41.91"/>
            <fingering default-x="6.5" default-y="31.79">4</fingering>
            </technical>
          </notations>
        </note>
      <note default-x="151.88" default-y="25">
        <pitch>
          <step>F</step>
          <octave>4</octave>
          </pitch>
        <duration>2</duration>
        <voice>1</voice>
        <type>eighth</type>
        <stem>down</stem>
        <notations>
          <slur type="stop" number="1" bezier-x="-19.769815" bezier-y="14.292948"/>
          <technical>
            <up-bow default-x="1.26" default-y="41.91"/>
            <fingering default-x="6.5" default-y="31.79">4</fingering>
            </technical>
          </notations>
        </note>
      </measure>
    <measure number="14" width="229.8">
      <note default-x="12.5" default-y="20">
        <pitch>
          <step>E</step>
          <octave>4</octave>
          </pitch>
        <duration>4</duration>
        <voice>1</voice>
        <type>quarter</type>
        <stem>down</stem>
        <notations>
          <technical>
            <down-bow default-x="0.2" default-y="29.3"/>
            <fingering default-x="6.5" default-y="30.01">3</fingering>
            </technical>
          </notations>
        </note>
      <note default-x="75.36" default-y="20">
        <pitch>
          <step>E</step>
          <octave>4</octave>
          </pitch>
        <duration>2</duration>
        <voice>1</voice>
        <type>eighth</type>
        <stem>down</stem>
        <beam number="1">begin</beam>
        <notations>
          <slur type="start" bezier-x="21.477744" bezier-y="18.017915" number="1"/>
          <technical>
            <up-bow default-x="1.26" default-y="37.65"/>
            <fingering default-x="6.5" default-y="31.79">1</fingering>
            </technical>
          </notations>
        </note>
      <note default-x="120.25" default-y="25">
        <pitch>
          <step>F</step>
          <octave>4</octave>
          </pitch>
        <duration>2</duration>
        <voice>1</voice>
        <type>eighth</type>
        <stem>down</stem>
        <beam number="1">end</beam>
        <notations>
          <technical>
            <fingering default-x="6.5" default-y="15.84">2</fingering>
            </technical>
          </notations>
        </note>
      <note default-x="165.15" default-y="30">
        <pitch>
          <step>G</step>
          <octave>4</octave>
          </pitch>
        <duration>4</duration>
        <voice>1</voice>
        <type>quarter</type>
        <stem>down</stem>
        <notations>
          <slur type="stop" number="1" bezier-x="-24.915544" bezier-y="12.851241"/>
          <technical>
            <fingering default-x="6.5" default-y="16.04">4</fingering>
            </technical>
          </notations>
        </note>
      </measure>
    <measure number="15" width="246.34">
      <note default-x="12.5" default-y="25">
        <pitch>
          <step>F</step>
          <octave>4</octave>
          </pitch>
        <duration>2</duration>
        <voice>1</voice>
        <type>eighth</type>
        <stem>down</stem>
        <beam number="1">begin</beam>
        <notations>
          <slur type="start" bezier-x="21.737414" bezier-y="11.690546" number="1"/>
          <technical>
            <down-bow default-x="0.2" default-y="40.95"/>
            <fingering default-x="6.5" relative-x="1.16" relative-y="39.01">4</fingering>
            </technical>
          </notations>
        </note>
      <note default-x="57.4" default-y="20">
        <pitch>
          <step>E</step>
          <octave>4</octave>
          </pitch>
        <duration>1</duration>
        <voice>1</voice>
        <type>16th</type>
        <stem>down</stem>
        <beam number="1">continue</beam>
        <beam number="2">begin</beam>
        <notations>
          <technical>
            <fingering default-x="6.5" default-y="16.24">3</fingering>
            </technical>
          </notations>
        </note>
      <note default-x="89.47" default-y="15">
        <pitch>
          <step>D</step>
          <octave>4</octave>
          </pitch>
        <duration>1</duration>
        <voice>1</voice>
        <type>16th</type>
        <stem>down</stem>
        <beam number="1">end</beam>
        <beam number="2">end</beam>
        <notations>
          <slur type="stop" number="1" bezier-x="-18.028261" bezier-y="16.857219"/>
          <technical>
            <fingering default-x="6.5" default-y="16.04">1</fingering>
            </technical>
          </notations>
        </note>
      <note default-x="123.12" default-y="10">
        <pitch>
          <step>C</step>
          <alter>1</alter>
          <octave>4</octave>
          </pitch>
        <duration>6</duration>
        <voice>1</voice>
        <type>quarter</type>
        <dot default-x="141.11" default-y="15"/>
        <accidental>sharp</accidental>
        <stem>down</stem>
        <notations>
          <slur type="start" bezier-x="18.836974" bezier-y="15.569403" number="1"/>
          <ornaments>
            <trill-mark/>
            </ornaments>
          <technical>
            <up-bow default-x="1.26" default-y="27.34"/>
            <fingering default-x="6.5" relative-x="-2.33" relative-y="59.17">1</fingering>
            </technical>
          </notations>
        </note>
      <note default-x="199.64" default-y="15">
        <pitch>
          <step>D</step>
          <octave>4</octave>
          </pitch>
        <duration>2</duration>
        <voice>1</voice>
        <type>eighth</type>
        <stem>down</stem>
        <notations>
          <slur type="stop" number="1" bezier-x="-20.702656" bezier-y="12.986067"/>
          <technical>
            <fingering default-x="6.5" default-y="15.84">2</fingering>
            </technical>
          </notations>
        </note>
      </measure>
    <measure number="16" width="126.94">
      <note default-x="12.5" default-y="15">
        <pitch>
          <step>D</step>
          <octave>4</octave>
          </pitch>
        <duration>12</duration>
        <voice>1</voice>
        <type>half</type>
        <dot default-x="30.49" default-y="15"/>
        <stem>down</stem>
        <notations>
          <technical>
            <down-bow default-x="0.2" default-y="24.34"/>
            <fingering default-x="6.5" default-y="29.44">2</fingering>
            </technical>
          </notations>
        </note>
      <barline location="right">
        <bar-style>light-light</bar-style>
        </barline>
      </measure>
    <measure number="17" width="145.53">
      <print new-system="yes">
        <system-layout>
          <system-margins>
            <left-margin>0</left-margin>
            <right-margin>0</right-margin>
            </system-margins>
          <system-distance>177.41</system-distance>
          </system-layout>
        </print>
      <direction placement="above" system="only-top">
        <direction-type>
          <words relative-x="-16.29" relative-y="17.67" font-weight="bold" font-size="12">Andante</words>
          </direction-type>
        <sound tempo="92"/>
        </direction>
      <direction placement="above" system="only-top">
        <direction-type>
          <metronome parentheses="no" relative-x="-15.13" relative-y="42.83">
            <beat-unit>quarter</beat-unit>
            <per-minute>80</per-minute>
            </metronome>
          </direction-type>
        <direction-type>
          <words relative-x="-15.13" relative-y="42.83" font-weight="bold" font-size="12">-88</words>
          </direction-type>
        <sound tempo="80"/>
        </direction>
      <note default-x="90.2" default-y="-10">
        <rest measure="yes"/>
        <duration>12</duration>
        <voice>1</voice>
        </note>
      </measure>
    <measure number="18" width="83.35">
      <note default-x="34.28" default-y="-10">
        <rest measure="yes"/>
        <duration>12</duration>
        <voice>1</voice>
        </note>
      </measure>
    <measure number="19" width="83.35">
      <note default-x="34.28" default-y="-10">
        <rest measure="yes"/>
        <duration>12</duration>
        <voice>1</voice>
        </note>
      </measure>
    <measure number="20" width="83.35">
      <note default-x="34.28" default-y="-10">
        <rest measure="yes"/>
        <duration>12</duration>
        <voice>1</voice>
        </note>
      </measure>
    <measure number="21" width="83.35">
      <note default-x="34.28" default-y="-10">
        <rest measure="yes"/>
        <duration>12</duration>
        <voice>1</voice>
        </note>
      </measure>
    <measure number="22" width="83.35">
      <note default-x="34.28" default-y="-10">
        <rest measure="yes"/>
        <duration>12</duration>
        <voice>1</voice>
        </note>
      </measure>
    <measure number="23" width="83.35">
      <note default-x="34.28" default-y="-10">
        <rest measure="yes"/>
        <duration>12</duration>
        <voice>1</voice>
        </note>
      </measure>
    <measure number="24" width="83.35">
      <note default-x="34.28" default-y="-10">
        <rest measure="yes"/>
        <duration>12</duration>
        <voice>1</voice>
        </note>
      </measure>
    <measure number="25" width="83.35">
      <note default-x="34.28" default-y="-10">
        <rest measure="yes"/>
        <duration>12</duration>
        <voice>1</voice>
        </note>
      </measure>
    <measure number="26" width="83.35">
      <note default-x="34.28" default-y="-10">
        <rest measure="yes"/>
        <duration>12</duration>
        <voice>1</voice>
        </note>
      </measure>
    <measure number="27" width="83.35">
      <note default-x="34.28" default-y="-10">
        <rest measure="yes"/>
        <duration>12</duration>
        <voice>1</voice>
        </note>
      </measure>
    <measure number="28" width="83.35">
      <note default-x="34.28" default-y="-10">
        <rest measure="yes"/>
        <duration>12</duration>
        <voice>1</voice>
        </note>
      </measure>
    <measure number="29" width="145.53">
      <print new-system="yes">
        <system-layout>
          <system-margins>
            <left-margin>0</left-margin>
            <right-margin>0</right-margin>
            </system-margins>
          <system-distance>177.41</system-distance>
          </system-layout>
        </print>
      <note default-x="90.2" default-y="-10">
        <rest measure="yes"/>
        <duration>12</duration>
        <voice>1</voice>
        </note>
      </measure>
    <measure number="30" width="83.35">
      <note default-x="34.28" default-y="-10">
        <rest measure="yes"/>
        <duration>12</duration>
        <voice>1</voice>
        </note>
      </measure>
    <measure number="31" width="83.35">
      <note default-x="34.28" default-y="-10">
        <rest measure="yes"/>
        <duration>12</duration>
        <voice>1</voice>
        </note>
      </measure>
    <measure number="32" width="83.35">
      <note default-x="34.28" default-y="-10">
        <rest measure="yes"/>
        <duration>12</duration>
        <voice>1</voice>
        </note>
      </measure>
    <measure number="33" width="83.35">
      <note default-x="34.28" default-y="-10">
        <rest measure="yes"/>
        <duration>12</duration>
        <voice>1</voice>
        </note>
      </measure>
    <measure number="34" width="83.35">
      <note default-x="34.28" default-y="-10">
        <rest measure="yes"/>
        <duration>12</duration>
        <voice>1</voice>
        </note>
      </measure>
    <measure number="35" width="83.35">
      <note default-x="34.28" default-y="-10">
        <rest measure="yes"/>
        <duration>12</duration>
        <voice>1</voice>
        </note>
      </measure>
    <measure number="36" width="83.35">
      <note default-x="34.28" default-y="-10">
        <rest measure="yes"/>
        <duration>12</duration>
        <voice>1</voice>
        </note>
      </measure>
    <measure number="37" width="83.35">
      <note default-x="34.28" default-y="-10">
        <rest measure="yes"/>
        <duration>12</duration>
        <voice>1</voice>
        </note>
      </measure>
    <measure number="38" width="83.35">
      <note default-x="34.28" default-y="-10">
        <rest measure="yes"/>
        <duration>12</duration>
        <voice>1</voice>
        </note>
      </measure>
    <measure number="39" width="83.35">
      <note default-x="34.28" default-y="-10">
        <rest measure="yes"/>
        <duration>12</duration>
        <voice>1</voice>
        </note>
      </measure>
    <measure number="40" width="83.35">
      <note default-x="34.28" default-y="-10">
        <rest measure="yes"/>
        <duration>12</duration>
        <voice>1</voice>
        </note>
      </measure>
    <measure number="41" width="142.17">
      <print new-system="yes">
        <system-layout>
          <system-margins>
            <left-margin>0</left-margin>
            <right-margin>0</right-margin>
            </system-margins>
          <system-distance>177.41</system-distance>
          </system-layout>
        </print>
      <note default-x="88.53" default-y="-10">
        <rest measure="yes"/>
        <duration>12</duration>
        <voice>1</voice>
        </note>
      </measure>
    <measure number="42" width="80">
      <note default-x="32.6" default-y="-10">
        <rest measure="yes"/>
        <duration>12</duration>
        <voice>1</voice>
        </note>
      </measure>
    <measure number="43" width="83.16">
      <note default-x="29.58" default-y="-10">
        <rest measure="yes"/>
        <duration>12</duration>
        <voice>1</voice>
        </note>
      <barline location="right">
        <bar-style>light-heavy</bar-style>
        </barline>
      </measure>
    </part>
  </score-partwise>
