<?xml version="1.0" encoding="UTF-8"?>
<!DOCTYPE score-partwise PUBLIC "-//Recordare//DTD MusicXML 4.0 Partwise//EN" "http://www.musicxml.org/dtds/partwise.dtd">
<score-partwise version="4.0">
  <work>
    <work-title>Untitled score</work-title>
    </work>
  <identification>
    <creator type="composer">Composer / arranger</creator>
    <encoding>
      <software>MuseScore Studio 4.6.3</software>
      <encoding-date>2026-05-30</encoding-date>
      <supports element="accidental" type="yes"/>
      <supports element="beam" type="yes"/>
      <supports element="print" attribute="new-page" type="yes" value="yes"/>
      <supports element="print" attribute="new-system" type="yes" value="yes"/>
      <supports element="stem" type="yes"/>
      </encoding>
    <miscellaneous>
      <miscellaneous-field name="creationDate">2025-11-27</miscellaneous-field>
      <miscellaneous-field name="platform">Microsoft Windows</miscellaneous-field>
      <miscellaneous-field name="subtitle">Subtitle</miscellaneous-field>
      </miscellaneous>
    </identification>
  <defaults>
    <scaling>
      <millimeters>6.99912</millimeters>
      <tenths>40</tenths>
      </scaling>
    <page-layout>
      <page-height>1596.77</page-height>
      <page-width>1233.87</page-width>
      <page-margins type="even">
        <left-margin>85.725</left-margin>
        <right-margin>85.725</right-margin>
        <top-margin>85.725</top-margin>
        <bottom-margin>85.725</bottom-margin>
        </page-margins>
      <page-margins type="odd">
        <left-margin>85.725</left-margin>
        <right-margin>85.725</right-margin>
        <top-margin>85.725</top-margin>
        <bottom-margin>85.725</bottom-margin>
        </page-margins>
      </page-layout>
    <appearance>
      <line-width type="light barline">1.8</line-width>
      <line-width type="heavy barline">5.5</line-width>
      <line-width type="beam">5</line-width>
      <line-width type="bracket">4.5</line-width>
      <line-width type="dashes">1</line-width>
      <line-width type="enclosure">1</line-width>
      <line-width type="ending">1.1</line-width>
      <line-width type="extend">1</line-width>
      <line-width type="leger">1.6</line-width>
      <line-width type="pedal">1.1</line-width>
      <line-width type="octave shift">1.1</line-width>
      <line-width type="slur middle">2.1</line-width>
      <line-width type="slur tip">0.5</line-width>
      <line-width type="staff">1.1</line-width>
      <line-width type="stem">1</line-width>
      <line-width type="tie middle">2.1</line-width>
      <line-width type="tie tip">0.5</line-width>
      <line-width type="tuplet bracket">1</line-width>
      <line-width type="wedge">1.2</line-width>
      <note-size type="cue">70</note-size>
      <note-size type="grace">70</note-size>
      <note-size type="grace-cue">49</note-size>
      </appearance>
    <music-font font-family="Leland"/>
    <word-font font-family="Edwin" font-size="10"/>
    <lyric-font font-family="Edwin" font-size="10"/>
    </defaults>
  <credit page="1">
    <credit-type>title</credit-type>
    <credit-words default-x="616.9347" default-y="1511.047129" justify="center" valign="top" font-size="22">Twinkle, Twinkle, Little Star
</credit-words>
    <credit-words></credit-words>
    </credit>
  <part-list>
    <score-part id="P1">
      <part-name>Violoncello</part-name>
      <part-abbreviation>Vc.</part-abbreviation>
      <score-instrument id="P1-I1">
        <instrument-name>Violoncello</instrument-name>
        <instrument-sound>strings.cello</instrument-sound>
        </score-instrument>
      <midi-device id="P1-I1" port="1"></midi-device>
      <midi-instrument id="P1-I1">
        <midi-channel>1</midi-channel>
        <midi-program>43</midi-program>
        <volume>78.7402</volume>
        <pan>0</pan>
        </midi-instrument>
      </score-part>
    </part-list>
  <part id="P1">
    <measure number="1" width="554.65">
      <print>
        <system-layout>
          <system-margins>
            <left-margin>50</left-margin>
            <right-margin>0</right-margin>
            </system-margins>
          <top-system-distance>170</top-system-distance>
          </system-layout>
        </print>
      <attributes>
        <divisions>4</divisions>
        <key>
          <fifths>2</fifths>
          </key>
        <time>
          <beats>4</beats>
          <beat-type>4</beat-type>
          </time>
        <clef>
          <sign>F</sign>
          <line>4</line>
          </clef>
        </attributes>
      <note default-x="109.39" default-y="-20">
        <pitch>
          <step>D</step>
          <octave>3</octave>
          </pitch>
        <duration>1</duration>
        <voice>1</voice>
        <type>16th</type>
        <stem>down</stem>
        <beam number="1">begin</beam>
        <beam number="2">begin</beam>
        <notations>
          <technical>
            <fingering default-x="6.5" default-y="30.85">0</fingering>
            </technical>
          </notations>
        </note>
      <note default-x="141.06" default-y="-20">
        <pitch>
          <step>D</step>
          <octave>3</octave>
          </pitch>
        <duration>1</duration>
        <voice>1</voice>
        <type>16th</type>
        <stem>down</stem>
        <beam number="1">continue</beam>
        <beam number="2">continue</beam>
        <notations>
          <technical>
            <fingering default-x="6.5" default-y="30.85">0</fingering>
            </technical>
          </notations>
        </note>
      <note default-x="172.74" default-y="-20">
        <pitch>
          <step>D</step>
          <octave>3</octave>
          </pitch>
        <duration>1</duration>
        <voice>1</voice>
        <type>16th</type>
        <stem>down</stem>
        <beam number="1">continue</beam>
        <beam number="2">continue</beam>
        <notations>
          <technical>
            <fingering default-x="6.5" default-y="30.85">0</fingering>
            </technical>
          </notations>
        </note>
      <note default-x="204.42" default-y="-20">
        <pitch>
          <step>D</step>
          <octave>3</octave>
          </pitch>
        <duration>1</duration>
        <voice>1</voice>
        <type>16th</type>
        <stem>down</stem>
        <beam number="1">end</beam>
        <beam number="2">end</beam>
        <notations>
          <technical>
            <fingering default-x="6.5" default-y="30.85">0</fingering>
            </technical>
          </notations>
        </note>
      <note default-x="236.09" default-y="-20">
        <pitch>
          <step>D</step>
          <octave>3</octave>
          </pitch>
        <duration>2</duration>
        <voice>1</voice>
        <type>eighth</type>
        <stem>down</stem>
        <beam number="1">begin</beam>
        <notations>
          <articulations>
            <staccato default-x="4.93" default-y="-6.56"/>
            </articulations>
          <technical>
            <fingering default-x="6.5" default-y="30.85">0</fingering>
            </technical>
          </notations>
        </note>
      <note default-x="283.61" default-y="-20">
        <pitch>
          <step>D</step>
          <octave>3</octave>
          </pitch>
        <duration>2</duration>
        <voice>1</voice>
        <type>eighth</type>
        <stem>down</stem>
        <beam number="1">end</beam>
        <notations>
          <articulations>
            <staccato default-x="4.93" default-y="-6.56"/>
            </articulations>
          <technical>
            <fingering default-x="6.5" default-y="30.85">0</fingering>
            </technical>
          </notations>
        </note>
      <note default-x="331.12" default-y="0">
        <pitch>
          <step>A</step>
          <octave>3</octave>
          </pitch>
        <duration>1</duration>
        <voice>1</voice>
        <type>16th</type>
        <stem>down</stem>
        <beam number="1">begin</beam>
        <beam number="2">begin</beam>
        <notations>
          <technical>
            <fingering default-x="6.5" default-y="16.04">0</fingering>
            </technical>
          </notations>
        </note>
      <note default-x="362.8" default-y="0">
        <pitch>
          <step>A</step>
          <octave>3</octave>
          </pitch>
        <duration>1</duration>
        <voice>1</voice>
        <type>16th</type>
        <stem>down</stem>
        <beam number="1">continue</beam>
        <beam number="2">continue</beam>
        <notations>
          <technical>
            <fingering default-x="6.5" default-y="16.04">0</fingering>
            </technical>
          </notations>
        </note>
      <note default-x="394.47" default-y="0">
        <pitch>
          <step>A</step>
          <octave>3</octave>
          </pitch>
        <duration>1</duration>
        <voice>1</voice>
        <type>16th</type>
        <stem>down</stem>
        <beam number="1">continue</beam>
        <beam number="2">continue</beam>
        <notations>
          <technical>
            <fingering default-x="6.5" default-y="16.04">0</fingering>
            </technical>
          </notations>
        </note>
      <note default-x="426.15" default-y="0">
        <pitch>
          <step>A</step>
          <octave>3</octave>
          </pitch>
        <duration>1</duration>
        <voice>1</voice>
        <type>16th</type>
        <stem>down</stem>
        <beam number="1">end</beam>
        <beam number="2">end</beam>
        <notations>
          <technical>
            <fingering default-x="6.5" default-y="16.04">0</fingering>
            </technical>
          </notations>
        </note>
      <note default-x="457.83" default-y="0">
        <pitch>
          <step>A</step>
          <octave>3</octave>
          </pitch>
        <duration>2</duration>
        <voice>1</voice>
        <type>eighth</type>
        <stem>down</stem>
        <beam number="1">begin</beam>
        <notations>
          <articulations>
            <staccato default-x="4.93" default-y="9.3"/>
            </articulations>
          <technical>
            <fingering default-x="6.5" default-y="21.19">0</fingering>
            </technical>
          </notations>
        </note>
      <note default-x="505.34" default-y="0">
        <pitch>
          <step>A</step>
          <octave>3</octave>
          </pitch>
        <duration>2</duration>
        <voice>1</voice>
        <type>eighth</type>
        <stem>down</stem>
        <beam number="1">end</beam>
        <notations>
          <articulations>
            <staccato default-x="4.93" default-y="9.3"/>
            </articulations>
          <technical>
            <fingering default-x="6.5" default-y="21.19">0</fingering>
            </technical>
          </notations>
        </note>
      </measure>
    <measure number="2" width="457.77">
      <note default-x="12.5" default-y="5">
        <pitch>
          <step>B</step>
          <octave>3</octave>
          </pitch>
        <duration>1</duration>
        <voice>1</voice>
        <type>16th</type>
        <stem>down</stem>
        <beam number="1">begin</beam>
        <beam number="2">begin</beam>
        <notations>
          <technical>
            <fingering default-x="6.5" default-y="16.04">1</fingering>
            </technical>
          </notations>
        </note>
      <note default-x="44.18" default-y="5">
        <pitch>
          <step>B</step>
          <octave>3</octave>
          </pitch>
        <duration>1</duration>
        <voice>1</voice>
        <type>16th</type>
        <stem>down</stem>
        <beam number="1">continue</beam>
        <beam number="2">continue</beam>
        <notations>
          <technical>
            <fingering default-x="6.5" default-y="16.04">1</fingering>
            </technical>
          </notations>
        </note>
      <note default-x="75.85" default-y="5">
        <pitch>
          <step>B</step>
          <octave>3</octave>
          </pitch>
        <duration>1</duration>
        <voice>1</voice>
        <type>16th</type>
        <stem>down</stem>
        <beam number="1">continue</beam>
        <beam number="2">continue</beam>
        <notations>
          <technical>
            <fingering default-x="6.5" default-y="16.04">1</fingering>
            </technical>
          </notations>
        </note>
      <note default-x="107.53" default-y="5">
        <pitch>
          <step>B</step>
          <octave>3</octave>
          </pitch>
        <duration>1</duration>
        <voice>1</voice>
        <type>16th</type>
        <stem>down</stem>
        <beam number="1">end</beam>
        <beam number="2">end</beam>
        <notations>
          <technical>
            <fingering default-x="6.5" default-y="16.04">1</fingering>
            </technical>
          </notations>
        </note>
      <note default-x="139.2" default-y="5">
        <pitch>
          <step>B</step>
          <octave>3</octave>
          </pitch>
        <duration>2</duration>
        <voice>1</voice>
        <type>eighth</type>
        <stem>down</stem>
        <beam number="1">begin</beam>
        <notations>
          <articulations>
            <staccato default-x="4.93" default-y="14.3"/>
            </articulations>
          <technical>
            <fingering default-x="6.5" default-y="21.19">1</fingering>
            </technical>
          </notations>
        </note>
      <note default-x="186.72" default-y="5">
        <pitch>
          <step>B</step>
          <octave>3</octave>
          </pitch>
        <duration>2</duration>
        <voice>1</voice>
        <type>eighth</type>
        <stem>down</stem>
        <beam number="1">end</beam>
        <notations>
          <articulations>
            <staccato default-x="4.93" default-y="14.3"/>
            </articulations>
          <technical>
            <fingering default-x="6.5" default-y="21.19">1</fingering>
            </technical>
          </notations>
        </note>
      <note default-x="234.23" default-y="0">
        <pitch>
          <step>A</step>
          <octave>3</octave>
          </pitch>
        <duration>1</duration>
        <voice>1</voice>
        <type>16th</type>
        <stem>down</stem>
        <beam number="1">begin</beam>
        <beam number="2">begin</beam>
        <notations>
          <technical>
            <fingering default-x="6.5" default-y="16.04">0</fingering>
            </technical>
          </notations>
        </note>
      <note default-x="265.91" default-y="0">
        <pitch>
          <step>A</step>
          <octave>3</octave>
          </pitch>
        <duration>1</duration>
        <voice>1</voice>
        <type>16th</type>
        <stem>down</stem>
        <beam number="1">continue</beam>
        <beam number="2">continue</beam>
        <notations>
          <technical>
            <fingering default-x="6.5" default-y="16.04">0</fingering>
            </technical>
          </notations>
        </note>
      <note default-x="297.59" default-y="0">
        <pitch>
          <step>A</step>
          <octave>3</octave>
          </pitch>
        <duration>1</duration>
        <voice>1</voice>
        <type>16th</type>
        <stem>down</stem>
        <beam number="1">continue</beam>
        <beam number="2">continue</beam>
        <notations>
          <technical>
            <fingering default-x="6.5" default-y="16.04">0</fingering>
            </technical>
          </notations>
        </note>
      <note default-x="329.26" default-y="0">
        <pitch>
          <step>A</step>
          <octave>3</octave>
          </pitch>
        <duration>1</duration>
        <voice>1</voice>
        <type>16th</type>
        <stem>down</stem>
        <beam number="1">end</beam>
        <beam number="2">end</beam>
        <notations>
          <technical>
            <fingering default-x="6.5" default-y="16.04">0</fingering>
            </technical>
          </notations>
        </note>
      <note default-x="360.94" default-y="0">
        <pitch>
          <step>A</step>
          <octave>3</octave>
          </pitch>
        <duration>2</duration>
        <voice>1</voice>
        <type>eighth</type>
        <stem>down</stem>
        <beam number="1">begin</beam>
        <notations>
          <articulations>
            <staccato default-x="4.93" default-y="9.3"/>
            </articulations>
          <technical>
            <fingering default-x="6.5" default-y="21.19">0</fingering>
            </technical>
          </notations>
        </note>
      <note default-x="408.45" default-y="0">
        <pitch>
          <step>A</step>
          <octave>3</octave>
          </pitch>
        <duration>2</duration>
        <voice>1</voice>
        <type>eighth</type>
        <stem>down</stem>
        <beam number="1">end</beam>
        <notations>
          <articulations>
            <staccato default-x="4.93" default-y="9.3"/>
            </articulations>
          <technical>
            <fingering default-x="6.5" default-y="21.19">0</fingering>
            </technical>
          </notations>
        </note>
      </measure>
    <measure number="3" width="568.59">
      <print new-system="yes">
        <system-layout>
          <system-margins>
            <left-margin>0</left-margin>
            <right-margin>0</right-margin>
            </system-margins>
          <system-distance>169</system-distance>
          </system-layout>
        </print>
      <note default-x="87.27" default-y="-5">
        <pitch>
          <step>G</step>
          <octave>3</octave>
          </pitch>
        <duration>1</duration>
        <voice>1</voice>
        <type>16th</type>
        <stem>down</stem>
        <beam number="1">begin</beam>
        <beam number="2">begin</beam>
        <notations>
          <technical>
            <fingering default-x="6.5" default-y="16.04">4</fingering>
            </technical>
          </notations>
        </note>
      <note default-x="121.52" default-y="-5">
        <pitch>
          <step>G</step>
          <octave>3</octave>
          </pitch>
        <duration>1</duration>
        <voice>1</voice>
        <type>16th</type>
        <stem>down</stem>
        <beam number="1">continue</beam>
        <beam number="2">continue</beam>
        <notations>
          <technical>
            <fingering default-x="6.5" default-y="16.04">4</fingering>
            </technical>
          </notations>
        </note>
      <note default-x="155.77" default-y="-5">
        <pitch>
          <step>G</step>
          <octave>3</octave>
          </pitch>
        <duration>1</duration>
        <voice>1</voice>
        <type>16th</type>
        <stem>down</stem>
        <beam number="1">continue</beam>
        <beam number="2">continue</beam>
        <notations>
          <technical>
            <fingering default-x="6.5" default-y="16.04">4</fingering>
            </technical>
          </notations>
        </note>
      <note default-x="190.02" default-y="-5">
        <pitch>
          <step>G</step>
          <octave>3</octave>
          </pitch>
        <duration>1</duration>
        <voice>1</voice>
        <type>16th</type>
        <stem>down</stem>
        <beam number="1">end</beam>
        <beam number="2">end</beam>
        <notations>
          <technical>
            <fingering default-x="6.5" default-y="16.04">4</fingering>
            </technical>
          </notations>
        </note>
      <note default-x="224.28" default-y="-5">
        <pitch>
          <step>G</step>
          <octave>3</octave>
          </pitch>
        <duration>2</duration>
        <voice>1</voice>
        <type>eighth</type>
        <stem>down</stem>
        <beam number="1">begin</beam>
        <notations>
          <articulations>
            <staccato default-x="4.93" default-y="4.3"/>
            </articulations>
          <technical>
            <fingering default-x="6.5" default-y="21.19">4</fingering>
            </technical>
          </notations>
        </note>
      <note default-x="275.65" default-y="-5">
        <pitch>
          <step>G</step>
          <octave>3</octave>
          </pitch>
        <duration>2</duration>
        <voice>1</voice>
        <type>eighth</type>
        <stem>down</stem>
        <beam number="1">end</beam>
        <notations>
          <articulations>
            <staccato default-x="4.93" default-y="4.3"/>
            </articulations>
          <technical>
            <fingering default-x="6.5" default-y="21.19">4</fingering>
            </technical>
          </notations>
        </note>
      <note default-x="327.03" default-y="-10">
        <pitch>
          <step>F</step>
          <alter>1</alter>
          <octave>3</octave>
          </pitch>
        <duration>1</duration>
        <voice>1</voice>
        <type>16th</type>
        <stem>down</stem>
        <beam number="1">begin</beam>
        <beam number="2">begin</beam>
        <notations>
          <technical>
            <fingering default-x="6.5" default-y="21.05">3</fingering>
            </technical>
          </notations>
        </note>
      <note default-x="361.28" default-y="-10">
        <pitch>
          <step>F</step>
          <alter>1</alter>
          <octave>3</octave>
          </pitch>
        <duration>1</duration>
        <voice>1</voice>
        <type>16th</type>
        <stem>down</stem>
        <beam number="1">continue</beam>
        <beam number="2">continue</beam>
        <notations>
          <technical>
            <fingering default-x="6.5" default-y="21.05">3</fingering>
            </technical>
          </notations>
        </note>
      <note default-x="395.54" default-y="-10">
        <pitch>
          <step>F</step>
          <alter>1</alter>
          <octave>3</octave>
          </pitch>
        <duration>1</duration>
        <voice>1</voice>
        <type>16th</type>
        <stem>down</stem>
        <beam number="1">continue</beam>
        <beam number="2">continue</beam>
        <notations>
          <technical>
            <fingering default-x="6.5" default-y="21.05">3</fingering>
            </technical>
          </notations>
        </note>
      <note default-x="429.79" default-y="-10">
        <pitch>
          <step>F</step>
          <alter>1</alter>
          <octave>3</octave>
          </pitch>
        <duration>1</duration>
        <voice>1</voice>
        <type>16th</type>
        <stem>down</stem>
        <beam number="1">end</beam>
        <beam number="2">end</beam>
        <notations>
          <technical>
            <fingering default-x="6.5" default-y="21.05">3</fingering>
            </technical>
          </notations>
        </note>
      <note default-x="464.04" default-y="-10">
        <pitch>
          <step>F</step>
          <alter>1</alter>
          <octave>3</octave>
          </pitch>
        <duration>2</duration>
        <voice>1</voice>
        <type>eighth</type>
        <stem>down</stem>
        <beam number="1">begin</beam>
        <notations>
          <articulations>
            <staccato default-x="4.93" default-y="3.44"/>
            </articulations>
          <technical>
            <fingering default-x="6.5" default-y="25.63">3</fingering>
            </technical>
          </notations>
        </note>
      <note default-x="515.42" default-y="-10">
        <pitch>
          <step>F</step>
          <alter>1</alter>
          <octave>3</octave>
          </pitch>
        <duration>2</duration>
        <voice>1</voice>
        <type>eighth</type>
        <stem>down</stem>
        <beam number="1">end</beam>
        <notations>
          <articulations>
            <staccato default-x="4.93" default-y="3.44"/>
            </articulations>
          <technical>
            <fingering default-x="6.5" default-y="25.63">3</fingering>
            </technical>
          </notations>
        </note>
      </measure>
    <measure number="4" width="493.83">
      <note default-x="12.5" default-y="-15">
        <pitch>
          <step>E</step>
          <octave>3</octave>
          </pitch>
        <duration>1</duration>
        <voice>1</voice>
        <type>16th</type>
        <stem>down</stem>
        <beam number="1">begin</beam>
        <beam number="2">begin</beam>
        <notations>
          <technical>
            <fingering default-x="6.5" default-y="25.85">1</fingering>
            </technical>
          </notations>
        </note>
      <note default-x="46.75" default-y="-15">
        <pitch>
          <step>E</step>
          <octave>3</octave>
          </pitch>
        <duration>1</duration>
        <voice>1</voice>
        <type>16th</type>
        <stem>down</stem>
        <beam number="1">continue</beam>
        <beam number="2">continue</beam>
        <notations>
          <technical>
            <fingering default-x="6.5" default-y="25.85">1</fingering>
            </technical>
          </notations>
        </note>
      <note default-x="81" default-y="-15">
        <pitch>
          <step>E</step>
          <octave>3</octave>
          </pitch>
        <duration>1</duration>
        <voice>1</voice>
        <type>16th</type>
        <stem>down</stem>
        <beam number="1">continue</beam>
        <beam number="2">continue</beam>
        <notations>
          <technical>
            <fingering default-x="6.5" default-y="25.85">1</fingering>
            </technical>
          </notations>
        </note>
      <note default-x="115.26" default-y="-15">
        <pitch>
          <step>E</step>
          <octave>3</octave>
          </pitch>
        <duration>1</duration>
        <voice>1</voice>
        <type>16th</type>
        <stem>down</stem>
        <beam number="1">end</beam>
        <beam number="2">end</beam>
        <notations>
          <technical>
            <fingering default-x="6.5" default-y="25.85">1</fingering>
            </technical>
          </notations>
        </note>
      <note default-x="149.51" default-y="-15">
        <pitch>
          <step>E</step>
          <octave>3</octave>
          </pitch>
        <duration>2</duration>
        <voice>1</voice>
        <type>eighth</type>
        <stem>down</stem>
        <beam number="1">begin</beam>
        <notations>
          <articulations>
            <staccato default-x="4.93" default-y="-6.56"/>
            </articulations>
          <technical>
            <fingering default-x="6.5" default-y="25.85">1</fingering>
            </technical>
          </notations>
        </note>
      <note default-x="200.88" default-y="-15">
        <pitch>
          <step>E</step>
          <octave>3</octave>
          </pitch>
        <duration>2</duration>
        <voice>1</voice>
        <type>eighth</type>
        <stem>down</stem>
        <beam number="1">end</beam>
        <notations>
          <articulations>
            <staccato default-x="4.93" default-y="-6.56"/>
            </articulations>
          <technical>
            <fingering default-x="6.5" default-y="25.85">1</fingering>
            </technical>
          </notations>
        </note>
      <note default-x="252.26" default-y="-20">
        <pitch>
          <step>D</step>
          <octave>3</octave>
          </pitch>
        <duration>1</duration>
        <voice>1</voice>
        <type>16th</type>
        <stem>down</stem>
        <beam number="1">begin</beam>
        <beam number="2">begin</beam>
        <notations>
          <technical>
            <fingering default-x="6.5" default-y="30.85">0</fingering>
            </technical>
          </notations>
        </note>
      <note default-x="286.51" default-y="-20">
        <pitch>
          <step>D</step>
          <octave>3</octave>
          </pitch>
        <duration>1</duration>
        <voice>1</voice>
        <type>16th</type>
        <stem>down</stem>
        <beam number="1">continue</beam>
        <beam number="2">continue</beam>
        <notations>
          <technical>
            <fingering default-x="6.5" default-y="30.85">0</fingering>
            </technical>
          </notations>
        </note>
      <note default-x="320.77" default-y="-20">
        <pitch>
          <step>D</step>
          <octave>3</octave>
          </pitch>
        <duration>1</duration>
        <voice>1</voice>
        <type>16th</type>
        <stem>down</stem>
        <beam number="1">continue</beam>
        <beam number="2">continue</beam>
        <notations>
          <technical>
            <fingering default-x="6.5" default-y="30.85">0</fingering>
            </technical>
          </notations>
        </note>
      <note default-x="355.02" default-y="-20">
        <pitch>
          <step>D</step>
          <octave>3</octave>
          </pitch>
        <duration>1</duration>
        <voice>1</voice>
        <type>16th</type>
        <stem>down</stem>
        <beam number="1">end</beam>
        <beam number="2">end</beam>
        <notations>
          <technical>
            <fingering default-x="6.5" default-y="30.85">0</fingering>
            </technical>
          </notations>
        </note>
      <note default-x="389.27" default-y="-20">
        <pitch>
          <step>D</step>
          <octave>3</octave>
          </pitch>
        <duration>2</duration>
        <voice>1</voice>
        <type>eighth</type>
        <stem>down</stem>
        <beam number="1">begin</beam>
        <notations>
          <articulations>
            <staccato default-x="4.93" default-y="-6.56"/>
            </articulations>
          <technical>
            <fingering default-x="6.5" default-y="30.85">0</fingering>
            </technical>
          </notations>
        </note>
      <note default-x="440.65" default-y="-20">
        <pitch>
          <step>D</step>
          <octave>3</octave>
          </pitch>
        <duration>2</duration>
        <voice>1</voice>
        <type>eighth</type>
        <stem>down</stem>
        <beam number="1">end</beam>
        <notations>
          <articulations>
            <staccato default-x="4.93" default-y="-6.56"/>
            </articulations>
          <technical>
            <fingering default-x="6.5" default-y="30.85">0</fingering>
            </technical>
          </notations>
        </note>
      </measure>
    <measure number="5" width="568.59">
      <print new-system="yes">
        <system-layout>
          <system-margins>
            <left-margin>0</left-margin>
            <right-margin>0</right-margin>
            </system-margins>
          <system-distance>169</system-distance>
          </system-layout>
        </print>
      <note default-x="87.27" default-y="0">
        <pitch>
          <step>A</step>
          <octave>3</octave>
          </pitch>
        <duration>1</duration>
        <voice>1</voice>
        <type>16th</type>
        <stem>down</stem>
        <beam number="1">begin</beam>
        <beam number="2">begin</beam>
        <notations>
          <technical>
            <fingering default-x="6.5" default-y="16.04">0</fingering>
            </technical>
          </notations>
        </note>
      <note default-x="121.52" default-y="0">
        <pitch>
          <step>A</step>
          <octave>3</octave>
          </pitch>
        <duration>1</duration>
        <voice>1</voice>
        <type>16th</type>
        <stem>down</stem>
        <beam number="1">continue</beam>
        <beam number="2">continue</beam>
        <notations>
          <technical>
            <fingering default-x="6.5" default-y="16.04">0</fingering>
            </technical>
          </notations>
        </note>
      <note default-x="155.77" default-y="0">
        <pitch>
          <step>A</step>
          <octave>3</octave>
          </pitch>
        <duration>1</duration>
        <voice>1</voice>
        <type>16th</type>
        <stem>down</stem>
        <beam number="1">continue</beam>
        <beam number="2">continue</beam>
        <notations>
          <technical>
            <fingering default-x="6.5" default-y="16.04">0</fingering>
            </technical>
          </notations>
        </note>
      <note default-x="190.02" default-y="0">
        <pitch>
          <step>A</step>
          <octave>3</octave>
          </pitch>
        <duration>1</duration>
        <voice>1</voice>
        <type>16th</type>
        <stem>down</stem>
        <beam number="1">end</beam>
        <beam number="2">end</beam>
        <notations>
          <technical>
            <fingering default-x="6.5" default-y="16.04">0</fingering>
            </technical>
          </notations>
        </note>
      <note default-x="224.28" default-y="0">
        <pitch>
          <step>A</step>
          <octave>3</octave>
          </pitch>
        <duration>2</duration>
        <voice>1</voice>
        <type>eighth</type>
        <stem>down</stem>
        <beam number="1">begin</beam>
        <notations>
          <articulations>
            <staccato default-x="4.93" default-y="9.3"/>
            </articulations>
          <technical>
            <fingering default-x="6.5" default-y="21.19">0</fingering>
            </technical>
          </notations>
        </note>
      <note default-x="275.65" default-y="0">
        <pitch>
          <step>A</step>
          <octave>3</octave>
          </pitch>
        <duration>2</duration>
        <voice>1</voice>
        <type>eighth</type>
        <stem>down</stem>
        <beam number="1">end</beam>
        <notations>
          <articulations>
            <staccato default-x="4.93" default-y="9.3"/>
            </articulations>
          <technical>
            <fingering default-x="6.5" default-y="21.19">0</fingering>
            </technical>
          </notations>
        </note>
      <note default-x="327.03" default-y="-5">
        <pitch>
          <step>G</step>
          <octave>3</octave>
          </pitch>
        <duration>1</duration>
        <voice>1</voice>
        <type>16th</type>
        <stem>down</stem>
        <beam number="1">begin</beam>
        <beam number="2">begin</beam>
        <notations>
          <technical>
            <fingering default-x="6.5" default-y="16.04">4</fingering>
            </technical>
          </notations>
        </note>
      <note default-x="361.28" default-y="-5">
        <pitch>
          <step>G</step>
          <octave>3</octave>
          </pitch>
        <duration>1</duration>
        <voice>1</voice>
        <type>16th</type>
        <stem>down</stem>
        <beam number="1">continue</beam>
        <beam number="2">continue</beam>
        <notations>
          <technical>
            <fingering default-x="6.5" default-y="16.04">4</fingering>
            </technical>
          </notations>
        </note>
      <note default-x="395.54" default-y="-5">
        <pitch>
          <step>G</step>
          <octave>3</octave>
          </pitch>
        <duration>1</duration>
        <voice>1</voice>
        <type>16th</type>
        <stem>down</stem>
        <beam number="1">continue</beam>
        <beam number="2">continue</beam>
        <notations>
          <technical>
            <fingering default-x="6.5" default-y="16.04">4</fingering>
            </technical>
          </notations>
        </note>
      <note default-x="429.79" default-y="-5">
        <pitch>
          <step>G</step>
          <octave>3</octave>
          </pitch>
        <duration>1</duration>
        <voice>1</voice>
        <type>16th</type>
        <stem>down</stem>
        <beam number="1">end</beam>
        <beam number="2">end</beam>
        <notations>
          <technical>
            <fingering default-x="6.5" default-y="16.04">4</fingering>
            </technical>
          </notations>
        </note>
      <note default-x="464.04" default-y="-5">
        <pitch>
          <step>G</step>
          <octave>3</octave>
          </pitch>
        <duration>2</duration>
        <voice>1</voice>
        <type>eighth</type>
        <stem>down</stem>
        <beam number="1">begin</beam>
        <notations>
          <articulations>
            <staccato default-x="4.93" default-y="4.3"/>
            </articulations>
          <technical>
            <fingering default-x="6.5" default-y="21.19">4</fingering>
            </technical>
          </notations>
        </note>
      <note default-x="515.42" default-y="-5">
        <pitch>
          <step>G</step>
          <octave>3</octave>
          </pitch>
        <duration>2</duration>
        <voice>1</voice>
        <type>eighth</type>
        <stem>down</stem>
        <beam number="1">end</beam>
        <notations>
          <articulations>
            <staccato default-x="4.93" default-y="4.3"/>
            </articulations>
          <technical>
            <fingering default-x="6.5" default-y="21.19">4</fingering>
            </technical>
          </notations>
        </note>
      </measure>
    <measure number="6" width="493.83">
      <note default-x="12.5" default-y="-10">
        <pitch>
          <step>F</step>
          <alter>1</alter>
          <octave>3</octave>
          </pitch>
        <duration>1</duration>
        <voice>1</voice>
        <type>16th</type>
        <stem>down</stem>
        <beam number="1">begin</beam>
        <beam number="2">begin</beam>
        <notations>
          <technical>
            <fingering default-x="6.5" default-y="21.05">3</fingering>
            </technical>
          </notations>
        </note>
      <note default-x="46.75" default-y="-10">
        <pitch>
          <step>F</step>
          <alter>1</alter>
          <octave>3</octave>
          </pitch>
        <duration>1</duration>
        <voice>1</voice>
        <type>16th</type>
        <stem>down</stem>
        <beam number="1">continue</beam>
        <beam number="2">continue</beam>
        <notations>
          <technical>
            <fingering default-x="6.5" default-y="21.05">3</fingering>
            </technical>
          </notations>
        </note>
      <note default-x="81" default-y="-10">
        <pitch>
          <step>F</step>
          <alter>1</alter>
          <octave>3</octave>
          </pitch>
        <duration>1</duration>
        <voice>1</voice>
        <type>16th</type>
        <stem>down</stem>
        <beam number="1">continue</beam>
        <beam number="2">continue</beam>
        <notations>
          <technical>
            <fingering default-x="6.5" default-y="21.05">3</fingering>
            </technical>
          </notations>
        </note>
      <note default-x="115.26" default-y="-10">
        <pitch>
          <step>F</step>
          <alter>1</alter>
          <octave>3</octave>
          </pitch>
        <duration>1</duration>
        <voice>1</voice>
        <type>16th</type>
        <stem>down</stem>
        <beam number="1">end</beam>
        <beam number="2">end</beam>
        <notations>
          <technical>
            <fingering default-x="6.5" default-y="21.05">3</fingering>
            </technical>
          </notations>
        </note>
      <note default-x="149.51" default-y="-10">
        <pitch>
          <step>F</step>
          <alter>1</alter>
          <octave>3</octave>
          </pitch>
        <duration>2</duration>
        <voice>1</voice>
        <type>eighth</type>
        <stem>down</stem>
        <beam number="1">begin</beam>
        <notations>
          <articulations>
            <staccato default-x="4.93" default-y="3.44"/>
            </articulations>
          <technical>
            <fingering default-x="6.5" default-y="25.63">3</fingering>
            </technical>
          </notations>
        </note>
      <note default-x="200.88" default-y="-10">
        <pitch>
          <step>F</step>
          <alter>1</alter>
          <octave>3</octave>
          </pitch>
        <duration>2</duration>
        <voice>1</voice>
        <type>eighth</type>
        <stem>down</stem>
        <beam number="1">end</beam>
        <notations>
          <articulations>
            <staccato default-x="4.93" default-y="3.44"/>
            </articulations>
          <technical>
            <fingering default-x="6.5" default-y="25.63">3</fingering>
            </technical>
          </notations>
        </note>
      <note default-x="252.26" default-y="-15">
        <pitch>
          <step>E</step>
          <octave>3</octave>
          </pitch>
        <duration>1</duration>
        <voice>1</voice>
        <type>16th</type>
        <stem>down</stem>
        <beam number="1">begin</beam>
        <beam number="2">begin</beam>
        <notations>
          <technical>
            <fingering default-x="6.5" default-y="25.85">1</fingering>
            </technical>
          </notations>
        </note>
      <note default-x="286.51" default-y="-15">
        <pitch>
          <step>E</step>
          <octave>3</octave>
          </pitch>
        <duration>1</duration>
        <voice>1</voice>
        <type>16th</type>
        <stem>down</stem>
        <beam number="1">continue</beam>
        <beam number="2">continue</beam>
        <notations>
          <technical>
            <fingering default-x="6.5" default-y="25.85">1</fingering>
            </technical>
          </notations>
        </note>
      <note default-x="320.77" default-y="-15">
        <pitch>
          <step>E</step>
          <octave>3</octave>
          </pitch>
        <duration>1</duration>
        <voice>1</voice>
        <type>16th</type>
        <stem>down</stem>
        <beam number="1">continue</beam>
        <beam number="2">continue</beam>
        <notations>
          <technical>
            <fingering default-x="6.5" default-y="25.85">1</fingering>
            </technical>
          </notations>
        </note>
      <note default-x="355.02" default-y="-15">
        <pitch>
          <step>E</step>
          <octave>3</octave>
          </pitch>
        <duration>1</duration>
        <voice>1</voice>
        <type>16th</type>
        <stem>down</stem>
        <beam number="1">end</beam>
        <beam number="2">end</beam>
        <notations>
          <technical>
            <fingering default-x="6.5" default-y="25.85">1</fingering>
            </technical>
          </notations>
        </note>
      <note default-x="389.27" default-y="-15">
        <pitch>
          <step>E</step>
          <octave>3</octave>
          </pitch>
        <duration>2</duration>
        <voice>1</voice>
        <type>eighth</type>
        <stem>down</stem>
        <beam number="1">begin</beam>
        <notations>
          <articulations>
            <staccato default-x="4.93" default-y="-6.56"/>
            </articulations>
          <technical>
            <fingering default-x="6.5" default-y="25.85">1</fingering>
            </technical>
          </notations>
        </note>
      <note default-x="440.65" default-y="-15">
        <pitch>
          <step>E</step>
          <octave>3</octave>
          </pitch>
        <duration>2</duration>
        <voice>1</voice>
        <type>eighth</type>
        <stem>down</stem>
        <beam number="1">end</beam>
        <notations>
          <articulations>
            <staccato default-x="4.93" default-y="-6.56"/>
            </articulations>
          <technical>
            <fingering default-x="6.5" default-y="25.85">1</fingering>
            </technical>
          </notations>
        </note>
      </measure>
    <measure number="7" width="568.59">
      <print new-system="yes">
        <system-layout>
          <system-margins>
            <left-margin>0</left-margin>
            <right-margin>0</right-margin>
            </system-margins>
          <system-distance>169</system-distance>
          </system-layout>
        </print>
      <note default-x="87.27" default-y="0">
        <pitch>
          <step>A</step>
          <octave>3</octave>
          </pitch>
        <duration>1</duration>
        <voice>1</voice>
        <type>16th</type>
        <stem>down</stem>
        <beam number="1">begin</beam>
        <beam number="2">begin</beam>
        <notations>
          <technical>
            <fingering default-x="6.5" default-y="16.04">0</fingering>
            </technical>
          </notations>
        </note>
      <note default-x="121.52" default-y="0">
        <pitch>
          <step>A</step>
          <octave>3</octave>
          </pitch>
        <duration>1</duration>
        <voice>1</voice>
        <type>16th</type>
        <stem>down</stem>
        <beam number="1">continue</beam>
        <beam number="2">continue</beam>
        <notations>
          <technical>
            <fingering default-x="6.5" default-y="16.04">0</fingering>
            </technical>
          </notations>
        </note>
      <note default-x="155.77" default-y="0">
        <pitch>
          <step>A</step>
          <octave>3</octave>
          </pitch>
        <duration>1</duration>
        <voice>1</voice>
        <type>16th</type>
        <stem>down</stem>
        <beam number="1">continue</beam>
        <beam number="2">continue</beam>
        <notations>
          <technical>
            <fingering default-x="6.5" default-y="16.04">0</fingering>
            </technical>
          </notations>
        </note>
      <note default-x="190.02" default-y="0">
        <pitch>
          <step>A</step>
          <octave>3</octave>
          </pitch>
        <duration>1</duration>
        <voice>1</voice>
        <type>16th</type>
        <stem>down</stem>
        <beam number="1">end</beam>
        <beam number="2">end</beam>
        <notations>
          <technical>
            <fingering default-x="6.5" default-y="16.04">0</fingering>
            </technical>
          </notations>
        </note>
      <note default-x="224.28" default-y="0">
        <pitch>
          <step>A</step>
          <octave>3</octave>
          </pitch>
        <duration>2</duration>
        <voice>1</voice>
        <type>eighth</type>
        <stem>down</stem>
        <beam number="1">begin</beam>
        <notations>
          <articulations>
            <staccato default-x="4.93" default-y="9.3"/>
            </articulations>
          <technical>
            <fingering default-x="6.5" default-y="21.19">0</fingering>
            </technical>
          </notations>
        </note>
      <note default-x="275.65" default-y="0">
        <pitch>
          <step>A</step>
          <octave>3</octave>
          </pitch>
        <duration>2</duration>
        <voice>1</voice>
        <type>eighth</type>
        <stem>down</stem>
        <beam number="1">end</beam>
        <notations>
          <articulations>
            <staccato default-x="4.93" default-y="9.3"/>
            </articulations>
          <technical>
            <fingering default-x="6.5" default-y="21.19">0</fingering>
            </technical>
          </notations>
        </note>
      <note default-x="327.03" default-y="-5">
        <pitch>
          <step>G</step>
          <octave>3</octave>
          </pitch>
        <duration>1</duration>
        <voice>1</voice>
        <type>16th</type>
        <stem>down</stem>
        <beam number="1">begin</beam>
        <beam number="2">begin</beam>
        <notations>
          <technical>
            <fingering default-x="6.5" default-y="16.04">4</fingering>
            </technical>
          </notations>
        </note>
      <note default-x="361.28" default-y="-5">
        <pitch>
          <step>G</step>
          <octave>3</octave>
          </pitch>
        <duration>1</duration>
        <voice>1</voice>
        <type>16th</type>
        <stem>down</stem>
        <beam number="1">continue</beam>
        <beam number="2">continue</beam>
        <notations>
          <technical>
            <fingering default-x="6.5" default-y="16.04">4</fingering>
            </technical>
          </notations>
        </note>
      <note default-x="395.54" default-y="-5">
        <pitch>
          <step>G</step>
          <octave>3</octave>
          </pitch>
        <duration>1</duration>
        <voice>1</voice>
        <type>16th</type>
        <stem>down</stem>
        <beam number="1">continue</beam>
        <beam number="2">continue</beam>
        <notations>
          <technical>
            <fingering default-x="6.5" default-y="16.04">4</fingering>
            </technical>
          </notations>
        </note>
      <note default-x="429.79" default-y="-5">
        <pitch>
          <step>G</step>
          <octave>3</octave>
          </pitch>
        <duration>1</duration>
        <voice>1</voice>
        <type>16th</type>
        <stem>down</stem>
        <beam number="1">end</beam>
        <beam number="2">end</beam>
        <notations>
          <technical>
            <fingering default-x="6.5" default-y="16.04">4</fingering>
            </technical>
          </notations>
        </note>
      <note default-x="464.04" default-y="-5">
        <pitch>
          <step>G</step>
          <octave>3</octave>
          </pitch>
        <duration>2</duration>
        <voice>1</voice>
        <type>eighth</type>
        <stem>down</stem>
        <beam number="1">begin</beam>
        <notations>
          <articulations>
            <staccato default-x="4.93" default-y="4.3"/>
            </articulations>
          <technical>
            <fingering default-x="6.5" default-y="21.19">4</fingering>
            </technical>
          </notations>
        </note>
      <note default-x="515.42" default-y="-5">
        <pitch>
          <step>G</step>
          <octave>3</octave>
          </pitch>
        <duration>2</duration>
        <voice>1</voice>
        <type>eighth</type>
        <stem>down</stem>
        <beam number="1">end</beam>
        <notations>
          <articulations>
            <staccato default-x="4.93" default-y="4.3"/>
            </articulations>
          <technical>
            <fingering default-x="6.5" default-y="21.19">4</fingering>
            </technical>
          </notations>
        </note>
      </measure>
    <measure number="8" width="493.83">
      <note default-x="12.5" default-y="-10">
        <pitch>
          <step>F</step>
          <alter>1</alter>
          <octave>3</octave>
          </pitch>
        <duration>1</duration>
        <voice>1</voice>
        <type>16th</type>
        <stem>down</stem>
        <beam number="1">begin</beam>
        <beam number="2">begin</beam>
        <notations>
          <technical>
            <fingering default-x="6.5" default-y="21.05">3</fingering>
            </technical>
          </notations>
        </note>
      <note default-x="46.75" default-y="-10">
        <pitch>
          <step>F</step>
          <alter>1</alter>
          <octave>3</octave>
          </pitch>
        <duration>1</duration>
        <voice>1</voice>
        <type>16th</type>
        <stem>down</stem>
        <beam number="1">continue</beam>
        <beam number="2">continue</beam>
        <notations>
          <technical>
            <fingering default-x="6.5" default-y="21.05">3</fingering>
            </technical>
          </notations>
        </note>
      <note default-x="81" default-y="-10">
        <pitch>
          <step>F</step>
          <alter>1</alter>
          <octave>3</octave>
          </pitch>
        <duration>1</duration>
        <voice>1</voice>
        <type>16th</type>
        <stem>down</stem>
        <beam number="1">continue</beam>
        <beam number="2">continue</beam>
        <notations>
          <technical>
            <fingering default-x="6.5" default-y="21.05">3</fingering>
            </technical>
          </notations>
        </note>
      <note default-x="115.26" default-y="-10">
        <pitch>
          <step>F</step>
          <alter>1</alter>
          <octave>3</octave>
          </pitch>
        <duration>1</duration>
        <voice>1</voice>
        <type>16th</type>
        <stem>down</stem>
        <beam number="1">end</beam>
        <beam number="2">end</beam>
        <notations>
          <technical>
            <fingering default-x="6.5" default-y="21.05">3</fingering>
            </technical>
          </notations>
        </note>
      <note default-x="149.51" default-y="-10">
        <pitch>
          <step>F</step>
          <alter>1</alter>
          <octave>3</octave>
          </pitch>
        <duration>2</duration>
        <voice>1</voice>
        <type>eighth</type>
        <stem>down</stem>
        <beam number="1">begin</beam>
        <notations>
          <articulations>
            <staccato default-x="4.93" default-y="3.44"/>
            </articulations>
          <technical>
            <fingering default-x="6.5" default-y="25.63">3</fingering>
            </technical>
          </notations>
        </note>
      <note default-x="200.88" default-y="-10">
        <pitch>
          <step>F</step>
          <alter>1</alter>
          <octave>3</octave>
          </pitch>
        <duration>2</duration>
        <voice>1</voice>
        <type>eighth</type>
        <stem>down</stem>
        <beam number="1">end</beam>
        <notations>
          <articulations>
            <staccato default-x="4.93" default-y="3.44"/>
            </articulations>
          <technical>
            <fingering default-x="6.5" default-y="25.63">3</fingering>
            </technical>
          </notations>
        </note>
      <note default-x="252.26" default-y="-15">
        <pitch>
          <step>E</step>
          <octave>3</octave>
          </pitch>
        <duration>1</duration>
        <voice>1</voice>
        <type>16th</type>
        <stem>down</stem>
        <beam number="1">begin</beam>
        <beam number="2">begin</beam>
        <notations>
          <technical>
            <fingering default-x="6.5" default-y="25.85">1</fingering>
            </technical>
          </notations>
        </note>
      <note default-x="286.51" default-y="-15">
        <pitch>
          <step>E</step>
          <octave>3</octave>
          </pitch>
        <duration>1</duration>
        <voice>1</voice>
        <type>16th</type>
        <stem>down</stem>
        <beam number="1">continue</beam>
        <beam number="2">continue</beam>
        <notations>
          <technical>
            <fingering default-x="6.5" default-y="25.85">1</fingering>
            </technical>
          </notations>
        </note>
      <note default-x="320.77" default-y="-15">
        <pitch>
          <step>E</step>
          <octave>3</octave>
          </pitch>
        <duration>1</duration>
        <voice>1</voice>
        <type>16th</type>
        <stem>down</stem>
        <beam number="1">continue</beam>
        <beam number="2">continue</beam>
        <notations>
          <technical>
            <fingering default-x="6.5" default-y="25.85">1</fingering>
            </technical>
          </notations>
        </note>
      <note default-x="355.02" default-y="-15">
        <pitch>
          <step>E</step>
          <octave>3</octave>
          </pitch>
        <duration>1</duration>
        <voice>1</voice>
        <type>16th</type>
        <stem>down</stem>
        <beam number="1">end</beam>
        <beam number="2">end</beam>
        <notations>
          <technical>
            <fingering default-x="6.5" default-y="25.85">1</fingering>
            </technical>
          </notations>
        </note>
      <note default-x="389.27" default-y="-15">
        <pitch>
          <step>E</step>
          <octave>3</octave>
          </pitch>
        <duration>2</duration>
        <voice>1</voice>
        <type>eighth</type>
        <stem>down</stem>
        <beam number="1">begin</beam>
        <notations>
          <articulations>
            <staccato default-x="4.93" default-y="-6.56"/>
            </articulations>
          <technical>
            <fingering default-x="6.5" default-y="25.85">1</fingering>
            </technical>
          </notations>
        </note>
      <note default-x="440.65" default-y="-15">
        <pitch>
          <step>E</step>
          <octave>3</octave>
          </pitch>
        <duration>2</duration>
        <voice>1</voice>
        <type>eighth</type>
        <stem>down</stem>
        <beam number="1">end</beam>
        <notations>
          <articulations>
            <staccato default-x="4.93" default-y="-6.56"/>
            </articulations>
          <technical>
            <fingering default-x="6.5" default-y="25.85">1</fingering>
            </technical>
          </notations>
        </note>
      </measure>
    <measure number="9" width="568.59">
      <print new-system="yes">
        <system-layout>
          <system-margins>
            <left-margin>0</left-margin>
            <right-margin>0</right-margin>
            </system-margins>
          <system-distance>169</system-distance>
          </system-layout>
        </print>
      <note default-x="87.27" default-y="-20">
        <pitch>
          <step>D</step>
          <octave>3</octave>
          </pitch>
        <duration>1</duration>
        <voice>1</voice>
        <type>16th</type>
        <stem>down</stem>
        <beam number="1">begin</beam>
        <beam number="2">begin</beam>
        <notations>
          <technical>
            <fingering default-x="6.5" default-y="30.85">0</fingering>
            </technical>
          </notations>
        </note>
      <note default-x="121.52" default-y="-20">
        <pitch>
          <step>D</step>
          <octave>3</octave>
          </pitch>
        <duration>1</duration>
        <voice>1</voice>
        <type>16th</type>
        <stem>down</stem>
        <beam number="1">continue</beam>
        <beam number="2">continue</beam>
        <notations>
          <technical>
            <fingering default-x="6.5" default-y="30.85">0</fingering>
            </technical>
          </notations>
        </note>
      <note default-x="155.77" default-y="-20">
        <pitch>
          <step>D</step>
          <octave>3</octave>
          </pitch>
        <duration>1</duration>
        <voice>1</voice>
        <type>16th</type>
        <stem>down</stem>
        <beam number="1">continue</beam>
        <beam number="2">continue</beam>
        <notations>
          <technical>
            <fingering default-x="6.5" default-y="30.85">0</fingering>
            </technical>
          </notations>
        </note>
      <note default-x="190.02" default-y="-20">
        <pitch>
          <step>D</step>
          <octave>3</octave>
          </pitch>
        <duration>1</duration>
        <voice>1</voice>
        <type>16th</type>
        <stem>down</stem>
        <beam number="1">end</beam>
        <beam number="2">end</beam>
        <notations>
          <technical>
            <fingering default-x="6.5" default-y="30.85">0</fingering>
            </technical>
          </notations>
        </note>
      <note default-x="224.28" default-y="-20">
        <pitch>
          <step>D</step>
          <octave>3</octave>
          </pitch>
        <duration>2</duration>
        <voice>1</voice>
        <type>eighth</type>
        <stem>down</stem>
        <beam number="1">begin</beam>
        <notations>
          <articulations>
            <staccato default-x="4.93" default-y="-6.56"/>
            </articulations>
          <technical>
            <fingering default-x="6.5" default-y="30.85">0</fingering>
            </technical>
          </notations>
        </note>
      <note default-x="275.65" default-y="-20">
        <pitch>
          <step>D</step>
          <octave>3</octave>
          </pitch>
        <duration>2</duration>
        <voice>1</voice>
        <type>eighth</type>
        <stem>down</stem>
        <beam number="1">end</beam>
        <notations>
          <articulations>
            <staccato default-x="4.93" default-y="-6.56"/>
            </articulations>
          <technical>
            <fingering default-x="6.5" default-y="30.85">0</fingering>
            </technical>
          </notations>
        </note>
      <note default-x="327.03" default-y="0">
        <pitch>
          <step>A</step>
          <octave>3</octave>
          </pitch>
        <duration>1</duration>
        <voice>1</voice>
        <type>16th</type>
        <stem>down</stem>
        <beam number="1">begin</beam>
        <beam number="2">begin</beam>
        <notations>
          <technical>
            <fingering default-x="6.5" default-y="16.04">0</fingering>
            </technical>
          </notations>
        </note>
      <note default-x="361.28" default-y="0">
        <pitch>
          <step>A</step>
          <octave>3</octave>
          </pitch>
        <duration>1</duration>
        <voice>1</voice>
        <type>16th</type>
        <stem>down</stem>
        <beam number="1">continue</beam>
        <beam number="2">continue</beam>
        <notations>
          <technical>
            <fingering default-x="6.5" default-y="16.04">0</fingering>
            </technical>
          </notations>
        </note>
      <note default-x="395.54" default-y="0">
        <pitch>
          <step>A</step>
          <octave>3</octave>
          </pitch>
        <duration>1</duration>
        <voice>1</voice>
        <type>16th</type>
        <stem>down</stem>
        <beam number="1">continue</beam>
        <beam number="2">continue</beam>
        <notations>
          <technical>
            <fingering default-x="6.5" default-y="16.04">0</fingering>
            </technical>
          </notations>
        </note>
      <note default-x="429.79" default-y="0">
        <pitch>
          <step>A</step>
          <octave>3</octave>
          </pitch>
        <duration>1</duration>
        <voice>1</voice>
        <type>16th</type>
        <stem>down</stem>
        <beam number="1">end</beam>
        <beam number="2">end</beam>
        <notations>
          <technical>
            <fingering default-x="6.5" default-y="16.04">0</fingering>
            </technical>
          </notations>
        </note>
      <note default-x="464.04" default-y="0">
        <pitch>
          <step>A</step>
          <octave>3</octave>
          </pitch>
        <duration>2</duration>
        <voice>1</voice>
        <type>eighth</type>
        <stem>down</stem>
        <beam number="1">begin</beam>
        <notations>
          <articulations>
            <staccato default-x="4.93" default-y="9.3"/>
            </articulations>
          <technical>
            <fingering default-x="6.5" default-y="21.19">0</fingering>
            </technical>
          </notations>
        </note>
      <note default-x="515.42" default-y="0">
        <pitch>
          <step>A</step>
          <octave>3</octave>
          </pitch>
        <duration>2</duration>
        <voice>1</voice>
        <type>eighth</type>
        <stem>down</stem>
        <beam number="1">end</beam>
        <notations>
          <articulations>
            <staccato default-x="4.93" default-y="9.3"/>
            </articulations>
          <technical>
            <fingering default-x="6.5" default-y="21.19">0</fingering>
            </technical>
          </notations>
        </note>
      </measure>
    <measure number="10" width="493.83">
      <note default-x="12.5" default-y="5">
        <pitch>
          <step>B</step>
          <octave>3</octave>
          </pitch>
        <duration>1</duration>
        <voice>1</voice>
        <type>16th</type>
        <stem>down</stem>
        <beam number="1">begin</beam>
        <beam number="2">begin</beam>
        <notations>
          <technical>
            <fingering default-x="6.5" default-y="16.04">1</fingering>
            </technical>
          </notations>
        </note>
      <note default-x="46.75" default-y="5">
        <pitch>
          <step>B</step>
          <octave>3</octave>
          </pitch>
        <duration>1</duration>
        <voice>1</voice>
        <type>16th</type>
        <stem>down</stem>
        <beam number="1">continue</beam>
        <beam number="2">continue</beam>
        <notations>
          <technical>
            <fingering default-x="6.5" default-y="16.04">1</fingering>
            </technical>
          </notations>
        </note>
      <note default-x="81" default-y="5">
        <pitch>
          <step>B</step>
          <octave>3</octave>
          </pitch>
        <duration>1</duration>
        <voice>1</voice>
        <type>16th</type>
        <stem>down</stem>
        <beam number="1">continue</beam>
        <beam number="2">continue</beam>
        <notations>
          <technical>
            <fingering default-x="6.5" default-y="16.04">1</fingering>
            </technical>
          </notations>
        </note>
      <note default-x="115.26" default-y="5">
        <pitch>
          <step>B</step>
          <octave>3</octave>
          </pitch>
        <duration>1</duration>
        <voice>1</voice>
        <type>16th</type>
        <stem>down</stem>
        <beam number="1">end</beam>
        <beam number="2">end</beam>
        <notations>
          <technical>
            <fingering default-x="6.5" default-y="16.04">1</fingering>
            </technical>
          </notations>
        </note>
      <note default-x="149.51" default-y="5">
        <pitch>
          <step>B</step>
          <octave>3</octave>
          </pitch>
        <duration>2</duration>
        <voice>1</voice>
        <type>eighth</type>
        <stem>down</stem>
        <beam number="1">begin</beam>
        <notations>
          <articulations>
            <staccato default-x="4.93" default-y="14.3"/>
            </articulations>
          <technical>
            <fingering default-x="6.5" default-y="21.19">1</fingering>
            </technical>
          </notations>
        </note>
      <note default-x="200.88" default-y="5">
        <pitch>
          <step>B</step>
          <octave>3</octave>
          </pitch>
        <duration>2</duration>
        <voice>1</voice>
        <type>eighth</type>
        <stem>down</stem>
        <beam number="1">end</beam>
        <notations>
          <articulations>
            <staccato default-x="4.93" default-y="14.3"/>
            </articulations>
          <technical>
            <fingering default-x="6.5" default-y="21.19">1</fingering>
            </technical>
          </notations>
        </note>
      <note default-x="252.26" default-y="0">
        <pitch>
          <step>A</step>
          <octave>3</octave>
          </pitch>
        <duration>1</duration>
        <voice>1</voice>
        <type>16th</type>
        <stem>down</stem>
        <beam number="1">begin</beam>
        <beam number="2">begin</beam>
        <notations>
          <technical>
            <fingering default-x="6.5" default-y="16.04">0</fingering>
            </technical>
          </notations>
        </note>
      <note default-x="286.51" default-y="0">
        <pitch>
          <step>A</step>
          <octave>3</octave>
          </pitch>
        <duration>1</duration>
        <voice>1</voice>
        <type>16th</type>
        <stem>down</stem>
        <beam number="1">continue</beam>
        <beam number="2">continue</beam>
        <notations>
          <technical>
            <fingering default-x="6.5" default-y="16.04">0</fingering>
            </technical>
          </notations>
        </note>
      <note default-x="320.77" default-y="0">
        <pitch>
          <step>A</step>
          <octave>3</octave>
          </pitch>
        <duration>1</duration>
        <voice>1</voice>
        <type>16th</type>
        <stem>down</stem>
        <beam number="1">continue</beam>
        <beam number="2">continue</beam>
        <notations>
          <technical>
            <fingering default-x="6.5" default-y="16.04">0</fingering>
            </technical>
          </notations>
        </note>
      <note default-x="355.02" default-y="0">
        <pitch>
          <step>A</step>
          <octave>3</octave>
          </pitch>
        <duration>1</duration>
        <voice>1</voice>
        <type>16th</type>
        <stem>down</stem>
        <beam number="1">end</beam>
        <beam number="2">end</beam>
        <notations>
          <technical>
            <fingering default-x="6.5" default-y="16.04">0</fingering>
            </technical>
          </notations>
        </note>
      <note default-x="389.27" default-y="0">
        <pitch>
          <step>A</step>
          <octave>3</octave>
          </pitch>
        <duration>2</duration>
        <voice>1</voice>
        <type>eighth</type>
        <stem>down</stem>
        <beam number="1">begin</beam>
        <notations>
          <articulations>
            <staccato default-x="4.93" default-y="9.3"/>
            </articulations>
          <technical>
            <fingering default-x="6.5" default-y="21.19">0</fingering>
            </technical>
          </notations>
        </note>
      <note default-x="440.65" default-y="0">
        <pitch>
          <step>A</step>
          <octave>3</octave>
          </pitch>
        <duration>2</duration>
        <voice>1</voice>
        <type>eighth</type>
        <stem>down</stem>
        <beam number="1">end</beam>
        <notations>
          <articulations>
            <staccato default-x="4.93" default-y="9.3"/>
            </articulations>
          <technical>
            <fingering default-x="6.5" default-y="21.19">0</fingering>
            </technical>
          </notations>
        </note>
      </measure>
    <measure number="11" width="563.99">
      <print new-system="yes">
        <system-layout>
          <system-margins>
            <left-margin>0</left-margin>
            <right-margin>0</right-margin>
            </system-margins>
          <system-distance>169</system-distance>
          </system-layout>
        </print>
      <note default-x="87.27" default-y="-5">
        <pitch>
          <step>G</step>
          <octave>3</octave>
          </pitch>
        <duration>1</duration>
        <voice>1</voice>
        <type>16th</type>
        <stem>down</stem>
        <beam number="1">begin</beam>
        <beam number="2">begin</beam>
        <notations>
          <technical>
            <fingering default-x="6.5" default-y="16.04">4</fingering>
            </technical>
          </notations>
        </note>
      <note default-x="121.19" default-y="-5">
        <pitch>
          <step>G</step>
          <octave>3</octave>
          </pitch>
        <duration>1</duration>
        <voice>1</voice>
        <type>16th</type>
        <stem>down</stem>
        <beam number="1">continue</beam>
        <beam number="2">continue</beam>
        <notations>
          <technical>
            <fingering default-x="6.5" default-y="16.04">4</fingering>
            </technical>
          </notations>
        </note>
      <note default-x="155.12" default-y="-5">
        <pitch>
          <step>G</step>
          <octave>3</octave>
          </pitch>
        <duration>1</duration>
        <voice>1</voice>
        <type>16th</type>
        <stem>down</stem>
        <beam number="1">continue</beam>
        <beam number="2">continue</beam>
        <notations>
          <technical>
            <fingering default-x="6.5" default-y="16.04">4</fingering>
            </technical>
          </notations>
        </note>
      <note default-x="189.04" default-y="-5">
        <pitch>
          <step>G</step>
          <octave>3</octave>
          </pitch>
        <duration>1</duration>
        <voice>1</voice>
        <type>16th</type>
        <stem>down</stem>
        <beam number="1">end</beam>
        <beam number="2">end</beam>
        <notations>
          <technical>
            <fingering default-x="6.5" default-y="16.04">4</fingering>
            </technical>
          </notations>
        </note>
      <note default-x="222.96" default-y="-5">
        <pitch>
          <step>G</step>
          <octave>3</octave>
          </pitch>
        <duration>2</duration>
        <voice>1</voice>
        <type>eighth</type>
        <stem>down</stem>
        <beam number="1">begin</beam>
        <notations>
          <articulations>
            <staccato default-x="4.93" default-y="4.3"/>
            </articulations>
          <technical>
            <fingering default-x="6.5" default-y="21.19">4</fingering>
            </technical>
          </notations>
        </note>
      <note default-x="273.85" default-y="-5">
        <pitch>
          <step>G</step>
          <octave>3</octave>
          </pitch>
        <duration>2</duration>
        <voice>1</voice>
        <type>eighth</type>
        <stem>down</stem>
        <beam number="1">end</beam>
        <notations>
          <articulations>
            <staccato default-x="4.93" default-y="4.3"/>
            </articulations>
          <technical>
            <fingering default-x="6.5" default-y="21.19">4</fingering>
            </technical>
          </notations>
        </note>
      <note default-x="324.73" default-y="-10">
        <pitch>
          <step>F</step>
          <alter>1</alter>
          <octave>3</octave>
          </pitch>
        <duration>1</duration>
        <voice>1</voice>
        <type>16th</type>
        <stem>down</stem>
        <beam number="1">begin</beam>
        <beam number="2">begin</beam>
        <notations>
          <technical>
            <fingering default-x="6.5" default-y="21.05">3</fingering>
            </technical>
          </notations>
        </note>
      <note default-x="358.65" default-y="-10">
        <pitch>
          <step>F</step>
          <alter>1</alter>
          <octave>3</octave>
          </pitch>
        <duration>1</duration>
        <voice>1</voice>
        <type>16th</type>
        <stem>down</stem>
        <beam number="1">continue</beam>
        <beam number="2">continue</beam>
        <notations>
          <technical>
            <fingering default-x="6.5" default-y="21.05">3</fingering>
            </technical>
          </notations>
        </note>
      <note default-x="392.58" default-y="-10">
        <pitch>
          <step>F</step>
          <alter>1</alter>
          <octave>3</octave>
          </pitch>
        <duration>1</duration>
        <voice>1</voice>
        <type>16th</type>
        <stem>down</stem>
        <beam number="1">continue</beam>
        <beam number="2">continue</beam>
        <notations>
          <technical>
            <fingering default-x="6.5" default-y="21.05">3</fingering>
            </technical>
          </notations>
        </note>
      <note default-x="426.5" default-y="-10">
        <pitch>
          <step>F</step>
          <alter>1</alter>
          <octave>3</octave>
          </pitch>
        <duration>1</duration>
        <voice>1</voice>
        <type>16th</type>
        <stem>down</stem>
        <beam number="1">end</beam>
        <beam number="2">end</beam>
        <notations>
          <technical>
            <fingering default-x="6.5" default-y="21.05">3</fingering>
            </technical>
          </notations>
        </note>
      <note default-x="460.42" default-y="-10">
        <pitch>
          <step>F</step>
          <alter>1</alter>
          <octave>3</octave>
          </pitch>
        <duration>2</duration>
        <voice>1</voice>
        <type>eighth</type>
        <stem>down</stem>
        <beam number="1">begin</beam>
        <notations>
          <articulations>
            <staccato default-x="4.93" default-y="3.44"/>
            </articulations>
          <technical>
            <fingering default-x="6.5" default-y="25.63">3</fingering>
            </technical>
          </notations>
        </note>
      <note default-x="511.31" default-y="-10">
        <pitch>
          <step>F</step>
          <alter>1</alter>
          <octave>3</octave>
          </pitch>
        <duration>2</duration>
        <voice>1</voice>
        <type>eighth</type>
        <stem>down</stem>
        <beam number="1">end</beam>
        <notations>
          <articulations>
            <staccato default-x="4.93" default-y="3.44"/>
            </articulations>
          <technical>
            <fingering default-x="6.5" default-y="25.63">3</fingering>
            </technical>
          </notations>
        </note>
      </measure>
    <measure number="12" width="498.43">
      <note default-x="12.5" default-y="-15">
        <pitch>
          <step>E</step>
          <octave>3</octave>
          </pitch>
        <duration>1</duration>
        <voice>1</voice>
        <type>16th</type>
        <stem>down</stem>
        <beam number="1">begin</beam>
        <beam number="2">begin</beam>
        <notations>
          <technical>
            <fingering default-x="6.5" default-y="25.85">1</fingering>
            </technical>
          </notations>
        </note>
      <note default-x="46.42" default-y="-15">
        <pitch>
          <step>E</step>
          <octave>3</octave>
          </pitch>
        <duration>1</duration>
        <voice>1</voice>
        <type>16th</type>
        <stem>down</stem>
        <beam number="1">continue</beam>
        <beam number="2">continue</beam>
        <notations>
          <technical>
            <fingering default-x="6.5" default-y="25.85">1</fingering>
            </technical>
          </notations>
        </note>
      <note default-x="80.35" default-y="-15">
        <pitch>
          <step>E</step>
          <octave>3</octave>
          </pitch>
        <duration>1</duration>
        <voice>1</voice>
        <type>16th</type>
        <stem>down</stem>
        <beam number="1">continue</beam>
        <beam number="2">continue</beam>
        <notations>
          <technical>
            <fingering default-x="6.5" default-y="25.85">1</fingering>
            </technical>
          </notations>
        </note>
      <note default-x="114.27" default-y="-15">
        <pitch>
          <step>E</step>
          <octave>3</octave>
          </pitch>
        <duration>1</duration>
        <voice>1</voice>
        <type>16th</type>
        <stem>down</stem>
        <beam number="1">end</beam>
        <beam number="2">end</beam>
        <notations>
          <technical>
            <fingering default-x="6.5" default-y="25.85">1</fingering>
            </technical>
          </notations>
        </note>
      <note default-x="148.19" default-y="-15">
        <pitch>
          <step>E</step>
          <octave>3</octave>
          </pitch>
        <duration>2</duration>
        <voice>1</voice>
        <type>eighth</type>
        <stem>down</stem>
        <beam number="1">begin</beam>
        <notations>
          <articulations>
            <staccato default-x="4.93" default-y="-6.56"/>
            </articulations>
          <technical>
            <fingering default-x="6.5" default-y="25.85">1</fingering>
            </technical>
          </notations>
        </note>
      <note default-x="199.08" default-y="-15">
        <pitch>
          <step>E</step>
          <octave>3</octave>
          </pitch>
        <duration>2</duration>
        <voice>1</voice>
        <type>eighth</type>
        <stem>down</stem>
        <beam number="1">end</beam>
        <notations>
          <articulations>
            <staccato default-x="4.93" default-y="-6.56"/>
            </articulations>
          <technical>
            <fingering default-x="6.5" default-y="25.85">1</fingering>
            </technical>
          </notations>
        </note>
      <note default-x="249.96" default-y="-20">
        <pitch>
          <step>D</step>
          <octave>3</octave>
          </pitch>
        <duration>1</duration>
        <voice>1</voice>
        <type>16th</type>
        <stem>down</stem>
        <beam number="1">begin</beam>
        <beam number="2">begin</beam>
        <notations>
          <technical>
            <fingering default-x="6.5" default-y="30.85">0</fingering>
            </technical>
          </notations>
        </note>
      <note default-x="283.89" default-y="-20">
        <pitch>
          <step>D</step>
          <octave>3</octave>
          </pitch>
        <duration>1</duration>
        <voice>1</voice>
        <type>16th</type>
        <stem>down</stem>
        <beam number="1">continue</beam>
        <beam number="2">continue</beam>
        <notations>
          <technical>
            <fingering default-x="6.5" default-y="30.85">0</fingering>
            </technical>
          </notations>
        </note>
      <note default-x="317.81" default-y="-20">
        <pitch>
          <step>D</step>
          <octave>3</octave>
          </pitch>
        <duration>1</duration>
        <voice>1</voice>
        <type>16th</type>
        <stem>down</stem>
        <beam number="1">continue</beam>
        <beam number="2">continue</beam>
        <notations>
          <technical>
            <fingering default-x="6.5" default-y="30.85">0</fingering>
            </technical>
          </notations>
        </note>
      <note default-x="351.73" default-y="-20">
        <pitch>
          <step>D</step>
          <octave>3</octave>
          </pitch>
        <duration>1</duration>
        <voice>1</voice>
        <type>16th</type>
        <stem>down</stem>
        <beam number="1">end</beam>
        <beam number="2">end</beam>
        <notations>
          <technical>
            <fingering default-x="6.5" default-y="30.85">0</fingering>
            </technical>
          </notations>
        </note>
      <note default-x="385.66" default-y="-20">
        <pitch>
          <step>D</step>
          <octave>3</octave>
          </pitch>
        <duration>2</duration>
        <voice>1</voice>
        <type>eighth</type>
        <stem>down</stem>
        <beam number="1">begin</beam>
        <notations>
          <articulations>
            <staccato default-x="4.93" default-y="-6.56"/>
            </articulations>
          <technical>
            <fingering default-x="6.5" default-y="30.85">0</fingering>
            </technical>
          </notations>
        </note>
      <note default-x="436.54" default-y="-20">
        <pitch>
          <step>D</step>
          <octave>3</octave>
          </pitch>
        <duration>2</duration>
        <voice>1</voice>
        <type>eighth</type>
        <stem>down</stem>
        <beam number="1">end</beam>
        <notations>
          <articulations>
            <staccato default-x="4.93" default-y="-6.56"/>
            </articulations>
          <technical>
            <fingering default-x="6.5" default-y="30.85">0</fingering>
            </technical>
          </notations>
        </note>
      <barline location="right">
        <bar-style>light-heavy</bar-style>
        </barline>
      </measure>
    </part>
  </score-partwise>
